<?xml version="1.0" encoding="UTF-8"?>
<!DOCTYPE svg PUBLIC "-//W3C//DTD SVG 1.1//EN" "http://www.w3.org/Graphics/SVG/1.1/DTD/svg11.dtd">
<svg xmlns="http://www.w3.org/2000/svg" version="1.1" width="189px" height="267px" style="shape-rendering:geometricPrecision; text-rendering:geometricPrecision; image-rendering:optimizeQuality; fill-rule:evenodd; clip-rule:evenodd" xmlns:xlink="http://www.w3.org/1999/xlink">
<g><path style="opacity:1" fill="#171717" d="M 43.5,-0.5 C 53.5,-0.5 63.5,-0.5 73.5,-0.5C 73.8168,3.70159 73.4834,7.70159 72.5,11.5C 66.8333,11.5 61.1667,11.5 55.5,11.5C 55.1832,15.7016 55.5166,19.7016 56.5,23.5C 62.1667,23.5 67.8333,23.5 73.5,23.5C 73.797,27.7675 73.4637,31.9341 72.5,36C 63.1667,36.6667 53.8333,36.6667 44.5,36C 43.5115,23.9136 43.1782,11.747 43.5,-0.5 Z"/></g>
<g><path style="opacity:1" fill="#040404" d="M 112.5,-0.5 C 121.833,-0.5 131.167,-0.5 140.5,-0.5C 140.5,2.83333 140.5,6.16667 140.5,9.5C 134.974,9.17859 129.64,9.51192 124.5,10.5C 124.5,10.8333 124.5,11.1667 124.5,11.5C 129.64,12.4881 134.974,12.8214 140.5,12.5C 140.5,20.1667 140.5,27.8333 140.5,35.5C 131.167,35.5 121.833,35.5 112.5,35.5C 112.5,32.1667 112.5,28.8333 112.5,25.5C 118.167,25.5 123.833,25.5 129.5,25.5C 129.5,24.5 129.5,23.5 129.5,22.5C 123.833,22.5 118.167,22.5 112.5,22.5C 112.5,14.8333 112.5,7.16667 112.5,-0.5 Z"/></g>
<g><path style="opacity:0.372" fill="#8a8a8a" d="M 140.5,-0.5 C 140.833,-0.5 141.167,-0.5 141.5,-0.5C 141.5,3.16667 141.5,6.83333 141.5,10.5C 135.833,10.5 130.167,10.5 124.5,10.5C 129.64,9.51192 134.974,9.17859 140.5,9.5C 140.5,6.16667 140.5,2.83333 140.5,-0.5 Z"/></g>
<g><path style="opacity:0.046" fill="#d3d3d3" d="M 72.5,11.5 C 67.3595,12.4881 62.0262,12.8214 56.5,12.5C 56.5,16.1667 56.5,19.8333 56.5,23.5C 55.5166,19.7016 55.1832,15.7016 55.5,11.5C 61.1667,11.5 66.8333,11.5 72.5,11.5 Z"/></g>
<g><path style="opacity:0.409" fill="#a4a4a4" d="M 77.5,-0.5 C 77.8333,-0.5 78.1667,-0.5 78.5,-0.5C 78.5,7.16667 78.5,14.8333 78.5,22.5C 84.1667,22.5 89.8333,22.5 95.5,22.5C 95.5,23.5 95.5,24.5 95.5,25.5C 89.8333,25.5 84.1667,25.5 78.5,25.5C 78.5,28.8333 78.5,32.1667 78.5,35.5C 87.8333,35.5 97.1667,35.5 106.5,35.5C 106.5,27.8333 106.5,20.1667 106.5,12.5C 100.833,12.5 95.1667,12.5 89.5,12.5C 89.5,11.5 89.5,10.5 89.5,9.5C 95.1667,9.5 100.833,9.5 106.5,9.5C 106.5,6.16667 106.5,2.83333 106.5,-0.5C 106.833,-0.5 107.167,-0.5 107.5,-0.5C 107.5,3.16667 107.5,6.83333 107.5,10.5C 84.8333,10.8333 84.8333,11.1667 107.5,11.5C 107.5,19.8333 107.5,28.1667 107.5,36.5C 97.5,36.5 87.5,36.5 77.5,36.5C 77.5,32.5 77.5,28.5 77.5,24.5C 100.167,24.1667 100.167,23.8333 77.5,23.5C 77.5,15.5 77.5,7.5 77.5,-0.5 Z"/></g>
<g><path style="opacity:1" fill="#000000" d="M 78.5,-0.5 C 87.8333,-0.5 97.1667,-0.5 106.5,-0.5C 106.5,2.83333 106.5,6.16667 106.5,9.5C 100.833,9.5 95.1667,9.5 89.5,9.5C 89.5,10.5 89.5,11.5 89.5,12.5C 95.1667,12.5 100.833,12.5 106.5,12.5C 106.5,20.1667 106.5,27.8333 106.5,35.5C 97.1667,35.5 87.8333,35.5 78.5,35.5C 78.5,32.1667 78.5,28.8333 78.5,25.5C 84.1667,25.5 89.8333,25.5 95.5,25.5C 95.5,24.5 95.5,23.5 95.5,22.5C 89.8333,22.5 84.1667,22.5 78.5,22.5C 78.5,14.8333 78.5,7.16667 78.5,-0.5 Z"/></g>
<g><path style="opacity:0.31" fill="#a9a9a9" d="M 112.5,22.5 C 118.167,22.5 123.833,22.5 129.5,22.5C 129.5,23.5 129.5,24.5 129.5,25.5C 123.833,25.5 118.167,25.5 112.5,25.5C 117.651,24.6733 122.984,24.1733 128.5,24C 122.984,23.8267 117.651,23.3267 112.5,22.5 Z"/></g>
<g><path style="opacity:0.447" fill="#808080" d="M 124.5,11.5 C 130.167,11.5 135.833,11.5 141.5,11.5C 141.5,19.8333 141.5,28.1667 141.5,36.5C 131.652,36.8271 121.986,36.4938 112.5,35.5C 121.833,35.5 131.167,35.5 140.5,35.5C 140.5,27.8333 140.5,20.1667 140.5,12.5C 134.974,12.8214 129.64,12.4881 124.5,11.5 Z"/></g>
<g><path style="opacity:0.482" fill="#90a8fe" d="M -0.5,52.5 C -0.5,52.1667 -0.5,51.8333 -0.5,51.5C 62.5,51.5 125.5,51.5 188.5,51.5C 188.5,54.8333 188.5,58.1667 188.5,61.5C 188.167,61.5 187.833,61.5 187.5,61.5C 187.5,58.5 187.5,55.5 187.5,52.5C 124.833,52.5 62.1667,52.5 -0.5,52.5 Z"/></g>
<g><path style="opacity:1" fill="#364ec6" d="M -0.5,52.5 C 62.1667,52.5 124.833,52.5 187.5,52.5C 187.5,55.5 187.5,58.5 187.5,61.5C 187.5,63.1667 187.5,64.8333 187.5,66.5C 186.095,72.4383 185.095,78.4383 184.5,84.5C 184.474,74.1107 185.141,63.7773 186.5,53.5C 124.833,53.5 63.1667,53.5 1.5,53.5C 2.29871,62.1423 2.63204,70.8089 2.5,79.5C 2.16667,79.5 1.83333,79.5 1.5,79.5C 1.04752,74.0019 0.380852,68.6686 -0.5,63.5C -0.5,59.8333 -0.5,56.1667 -0.5,52.5 Z"/></g>
<g><path style="opacity:1" fill="#284ee3" d="M 184.5,84.5 C 184.5,88.5 184.5,92.5 184.5,96.5C 184.006,107.928 183.006,119.261 181.5,130.5C 180.71,131.609 180.21,132.942 180,134.5C 179.501,140.157 179.334,145.824 179.5,151.5C 178.552,168.536 177.219,185.536 175.5,202.5C 173.855,207.234 173.189,212.234 173.5,217.5C 173.5,219.5 173.5,221.5 173.5,223.5C 172.252,224.334 171.585,225.667 171.5,227.5C 170.707,233.14 170.374,238.807 170.5,244.5C 159.164,247.19 147.83,250.024 136.5,253C 135.058,253.377 134.058,254.21 133.5,255.5C 129.103,257.405 124.437,258.739 119.5,259.5C 111.685,260.233 104.019,261.4 96.5,263C 96.8333,263.333 97.1667,263.667 97.5,264C 93.8484,264.499 90.1817,264.665 86.5,264.5C 83.4954,262.723 80.1621,261.723 76.5,261.5C 73.5718,261.435 70.9052,260.768 68.5,259.5C 66.4855,258.076 64.1522,257.41 61.5,257.5C 58.9327,257.279 56.5994,256.612 54.5,255.5C 54.1193,254.069 53.1193,253.236 51.5,253C 47.8296,252.452 44.1629,251.952 40.5,251.5C 38.901,251.768 37.5676,251.434 36.5,250.5C 34.4855,249.076 32.1522,248.41 29.5,248.5C 26.2071,246.224 22.5404,244.891 18.5,244.5C 18.6633,242.143 18.4966,239.81 18,237.5C 17.6174,236.944 17.1174,236.611 16.5,236.5C 16.831,228.472 16.4977,220.472 15.5,212.5C 15.1441,205.119 14.1441,198.119 12.5,191.5C 12.6663,184.492 12.4996,177.492 12,170.5C 11.7679,169.263 11.2679,168.263 10.5,167.5C 10.2594,153.797 9.42604,140.13 8,126.5C 7.18228,116.585 5.68228,106.919 3.5,97.5C 3.57453,91.4707 3.2412,85.4707 2.5,79.5C 2.63204,70.8089 2.29871,62.1423 1.5,53.5C 63.1667,53.5 124.833,53.5 186.5,53.5C 185.141,63.7773 184.474,74.1107 184.5,84.5 Z"/></g>
<g><path style="opacity:1" fill="#2b64ef" d="M 94.5,226.5 C 100.782,225.393 106.949,224.06 113,222.5C 114.436,222.559 115.769,222.892 117,223.5C 123.37,220.556 129.537,217.556 135.5,214.5C 137.779,213.349 140.112,212.349 142.5,211.5C 144.053,206.425 145.219,201.092 146,195.5C 146.8,182.509 147.3,169.509 147.5,156.5C 147.5,155.5 147.5,154.5 147.5,153.5C 149.471,144.614 150.971,135.614 152,126.5C 152.5,118.507 152.666,110.507 152.5,102.5C 152.5,98.8333 152.5,95.1667 152.5,91.5C 133.167,91.5 113.833,91.5 94.5,91.5C 74.5,91.5 54.5,91.5 34.5,91.5C 53.9929,90.5029 73.6596,90.1696 93.5,90.5C 93.1858,82.9129 93.5192,75.4129 94.5,68C 119.831,67.5 145.164,67.3334 170.5,67.5C 166.826,122.284 161.993,176.95 156,231.5C 150.276,234.052 144.443,236.219 138.5,238C 123.185,241.322 108.185,245.489 93.5,250.5C 93.8082,244.575 93.4749,238.741 92.5,233C 93.1667,232 93.8333,231 94.5,230C 93.3157,228.855 93.3157,227.688 94.5,226.5 Z"/></g>
<g><path style="opacity:0.388" fill="#adbaf2" d="M 187.5,66.5 C 186.969,76.6908 185.969,86.6908 184.5,96.5C 184.5,92.5 184.5,88.5 184.5,84.5C 185.095,78.4383 186.095,72.4383 187.5,66.5 Z"/></g>
<g><path style="opacity:0.761" fill="#9babe8" d="M 1.5,79.5 C 1.83333,79.5 2.16667,79.5 2.5,79.5C 3.2412,85.4707 3.57453,91.4707 3.5,97.5C 2.42326,91.6876 1.75659,85.6876 1.5,79.5 Z"/></g>
<g><path style="opacity:1" fill="#eaebeb" d="M 94.5,92.5 C 94.5,99.8333 94.5,107.167 94.5,114.5C 94.1667,114.5 93.8333,114.5 93.5,114.5C 75.3409,113.503 57.0076,113.17 38.5,113.5C 38.4218,106.485 38.0885,99.485 37.5,92.5C 56.5,92.5 75.5,92.5 94.5,92.5 Z"/></g>
<g><path style="opacity:1" fill="#fcfdfe" d="M 94.5,91.5 C 113.833,91.5 133.167,91.5 152.5,91.5C 152.5,95.1667 152.5,98.8333 152.5,102.5C 150.383,119.311 148.717,136.311 147.5,153.5C 147.5,154.5 147.5,155.5 147.5,156.5C 145.666,174.672 144,193.005 142.5,211.5C 140.112,212.349 137.779,213.349 135.5,214.5C 122.128,217.623 108.795,220.956 95.5,224.5C 94.6618,224.158 94.3284,223.492 94.5,222.5C 94.3341,214.867 94.6674,207.533 95.5,200.5C 103.489,198.169 111.489,195.836 119.5,193.5C 120.969,185.024 121.969,176.358 122.5,167.5C 123.451,166.081 123.784,164.415 123.5,162.5C 113.833,162.5 104.167,162.5 94.5,162.5C 94.5,155.167 94.5,147.833 94.5,140.5C 104.681,140.827 114.681,140.494 124.5,139.5C 125.461,137.735 125.795,135.735 125.5,133.5C 125.927,129.176 126.261,124.842 126.5,120.5C 127.461,118.735 127.795,116.735 127.5,114.5C 116.5,114.5 105.5,114.5 94.5,114.5C 94.5,107.167 94.5,99.8333 94.5,92.5C 94.5,92.1667 94.5,91.8333 94.5,91.5 Z"/></g>
<g><path style="opacity:1" fill="#e4e8fc" d="M 34.5,91.5 C 54.5,91.5 74.5,91.5 94.5,91.5C 94.5,91.8333 94.5,92.1667 94.5,92.5C 75.5,92.5 56.5,92.5 37.5,92.5C 38.0885,99.485 38.4218,106.485 38.5,113.5C 57.0076,113.17 75.3409,113.503 93.5,114.5C 74.5,114.5 55.5,114.5 36.5,114.5C 36.6631,107.938 35.9965,101.605 34.5,95.5C 34.5,94.1667 34.5,92.8333 34.5,91.5 Z"/></g>
<g><path style="opacity:1" fill="#b1c0f4" d="M 36.5,114.5 C 55.5,114.5 74.5,114.5 93.5,114.5C 93.8333,114.5 94.1667,114.5 94.5,114.5C 105.5,114.5 116.5,114.5 127.5,114.5C 127.795,116.735 127.461,118.735 126.5,120.5C 126.5,118.833 126.5,117.167 126.5,115.5C 115.833,115.5 105.167,115.5 94.5,115.5C 74.9928,115.83 55.6595,115.497 36.5,114.5 Z"/></g>
<g><path style="opacity:1" fill="#2d48c2" d="M 34.5,95.5 C 35.9965,101.605 36.6631,107.938 36.5,114.5C 55.6595,115.497 74.9928,115.83 94.5,115.5C 94.5,115.833 94.5,116.167 94.5,116.5C 94.1667,116.5 93.8333,116.5 93.5,116.5C 74.1667,116.5 54.8333,116.5 35.5,116.5C 34.6591,109.535 34.3257,102.535 34.5,95.5 Z"/></g>
<g><path style="opacity:1" fill="#335fcc" d="M 94.5,116.5 C 94.5,116.167 94.5,115.833 94.5,115.5C 105.167,115.5 115.833,115.5 126.5,115.5C 126.5,117.167 126.5,118.833 126.5,120.5C 126.261,124.842 125.927,129.176 125.5,133.5C 125.167,133.5 124.833,133.5 124.5,133.5C 124.193,127.907 124.527,122.407 125.5,117C 115.172,116.5 104.839,116.334 94.5,116.5 Z"/></g>
<g><path style="opacity:1" fill="#717ad8" d="M 3.5,97.5 C 5.68228,106.919 7.18228,116.585 8,126.5C 9.42604,140.13 10.2594,153.797 10.5,167.5C 10.5,170.167 10.5,172.833 10.5,175.5C 7.33834,149.72 5.00501,123.72 3.5,97.5 Z"/></g>
<g><path style="opacity:1" fill="#2a64ef" d="M 93.5,116.5 C 93.8333,116.5 94.1667,116.5 94.5,116.5C 104.839,116.334 115.172,116.5 125.5,117C 124.527,122.407 124.193,127.907 124.5,133.5C 124.5,135.167 124.5,136.833 124.5,138.5C 114.167,138.5 103.833,138.5 93.5,138.5C 93.3789,131.317 93.3789,123.984 93.5,116.5 Z"/></g>
<g><path style="opacity:1" fill="#577ade" d="M 124.5,133.5 C 124.833,133.5 125.167,133.5 125.5,133.5C 125.795,135.735 125.461,137.735 124.5,139.5C 96.1667,139.5 67.8333,139.5 39.5,139.5C 57.3256,138.503 75.3256,138.17 93.5,138.5C 103.833,138.5 114.167,138.5 124.5,138.5C 124.5,136.833 124.5,135.167 124.5,133.5 Z"/></g>
<g><path style="opacity:1" fill="#496fd8" d="M 152.5,102.5 C 152.666,110.507 152.5,118.507 152,126.5C 150.971,135.614 149.471,144.614 147.5,153.5C 148.717,136.311 150.383,119.311 152.5,102.5 Z"/></g>
<g><path style="opacity:1" fill="#8b95de" d="M 181.5,130.5 C 181.65,137.721 180.983,144.721 179.5,151.5C 179.334,145.824 179.501,140.157 180,134.5C 180.21,132.942 180.71,131.609 181.5,130.5 Z"/></g>
<g><path style="opacity:1" fill="#eaebee" d="M 39.5,139.5 C 67.8333,139.5 96.1667,139.5 124.5,139.5C 114.681,140.494 104.681,140.827 94.5,140.5C 94.5,147.833 94.5,155.167 94.5,162.5C 76.8333,162.5 59.1667,162.5 41.5,162.5C 41.7373,161.209 41.404,160.209 40.5,159.5C 39.7243,152.863 39.391,146.196 39.5,139.5 Z"/></g>
<g><path style="opacity:1" fill="#aabdf7" d="M 40.5,159.5 C 41.404,160.209 41.7373,161.209 41.5,162.5C 59.1667,162.5 76.8333,162.5 94.5,162.5C 104.167,162.5 113.833,162.5 123.5,162.5C 123.784,164.415 123.451,166.081 122.5,167.5C 122.5,166.167 122.5,164.833 122.5,163.5C 113.167,163.5 103.833,163.5 94.5,163.5C 76.5,163.5 58.5,163.5 40.5,163.5C 40.5,162.167 40.5,160.833 40.5,159.5 Z"/></g>
<g><path style="opacity:1" fill="#2b64ef" d="M 94.5,164.5 C 103.167,164.5 111.833,164.5 120.5,164.5C 120.425,174.178 120.092,183.844 119.5,193.5C 111.489,195.836 103.489,198.169 95.5,200.5C 87.3269,198.869 79.3269,196.869 71.5,194.5C 79.4295,194.876 87.0962,196.21 94.5,198.5C 94.5,187.167 94.5,175.833 94.5,164.5 Z"/></g>
<g><path style="opacity:1" fill="#3450ce" d="M 71.5,194.5 C 70.1667,194.167 68.8333,193.833 67.5,193.5C 67.0602,187.264 66.3935,181.097 65.5,175C 57.8406,174.5 50.1739,174.334 42.5,174.5C 42.8333,180.5 43.1667,186.5 43.5,192.5C 42.7321,191.737 42.2321,190.737 42,189.5C 41.6667,190.167 41.3333,190.833 41,191.5C 40.5005,185.175 40.3338,178.842 40.5,172.5C 50.2239,172.141 59.8906,172.641 69.5,174C 68.5236,180.076 68.1903,186.242 68.5,192.5C 70.1788,192.285 71.1788,192.952 71.5,194.5 Z"/></g>
<g><path style="opacity:1" fill="#3a63cd" d="M 94.5,164.5 C 94.5,164.167 94.5,163.833 94.5,163.5C 103.833,163.5 113.167,163.5 122.5,163.5C 122.5,164.833 122.5,166.167 122.5,167.5C 121.969,176.358 120.969,185.024 119.5,193.5C 120.092,183.844 120.425,174.178 120.5,164.5C 111.833,164.5 103.167,164.5 94.5,164.5 Z"/></g>
<g><path style="opacity:1" fill="#6c79d8" d="M 10.5,167.5 C 11.2679,168.263 11.7679,169.263 12,170.5C 12.4996,177.492 12.6663,184.492 12.5,191.5C 12.5,194.167 12.5,196.833 12.5,199.5C 11.0792,191.709 10.4125,183.709 10.5,175.5C 10.5,172.833 10.5,170.167 10.5,167.5 Z"/></g>
<g><path style="opacity:1" fill="#eaeaeb" d="M 67.5,193.5 C 68.8333,193.833 70.1667,194.167 71.5,194.5C 79.3269,196.869 87.3269,198.869 95.5,200.5C 94.6674,207.533 94.3341,214.867 94.5,222.5C 91.3388,223.466 88.3388,222.966 85.5,221C 82.5,220.667 79.5,220.333 76.5,220C 70.3087,217.368 63.9753,215.368 57.5,214C 58.8333,213.333 58.8333,212.667 57.5,212C 54.0445,211.82 50.7111,211.153 47.5,210C 45.5806,198.962 44.5806,187.796 44.5,176.5C 51.1667,176.5 57.8333,176.5 64.5,176.5C 64.6442,180.511 64.9775,184.511 65.5,188.5C 65.5561,190.64 66.2227,192.306 67.5,193.5 Z"/></g>
<g><path style="opacity:1" fill="#3f67d5" d="M 147.5,156.5 C 147.3,169.509 146.8,182.509 146,195.5C 145.219,201.092 144.053,206.425 142.5,211.5C 144,193.005 145.666,174.672 147.5,156.5 Z"/></g>
<g><path style="opacity:0.998" fill="#6a75d8" d="M 12.5,191.5 C 14.1441,198.119 15.1441,205.119 15.5,212.5C 16.4977,220.472 16.831,228.472 16.5,236.5C 16.5,238.833 16.5,241.167 16.5,243.5C 14.7174,229.02 13.3841,214.353 12.5,199.5C 12.5,196.833 12.5,194.167 12.5,191.5 Z"/></g>
<g><path style="opacity:1" fill="#364ec1" d="M 43.5,195.5 C 43.9853,201.169 44.9853,206.836 46.5,212.5C 50.6713,213.668 54.6713,215.002 58.5,216.5C 53.7555,216.522 49.2555,215.522 45,213.5C 43.5899,207.621 43.0899,201.621 43.5,195.5 Z"/></g>
<g><path style="opacity:1" fill="#d6dffc" d="M 67.5,193.5 C 66.2227,192.306 65.5561,190.64 65.5,188.5C 64.9775,184.511 64.6442,180.511 64.5,176.5C 57.8333,176.5 51.1667,176.5 44.5,176.5C 44.5806,187.796 45.5806,198.962 47.5,210C 50.7111,211.153 54.0445,211.82 57.5,212C 58.8333,212.667 58.8333,213.333 57.5,214C 63.9753,215.368 70.3087,217.368 76.5,220C 79.5,220.333 82.5,220.667 85.5,221C 88.3388,222.966 91.3388,223.466 94.5,222.5C 94.3284,223.492 94.6618,224.158 95.5,224.5C 95.1583,225.338 94.4916,225.672 93.5,225.5C 81.8021,222.606 70.1355,219.606 58.5,216.5C 54.6713,215.002 50.6713,213.668 46.5,212.5C 44.9853,206.836 43.9853,201.169 43.5,195.5C 43.5,194.5 43.5,193.5 43.5,192.5C 43.1667,186.5 42.8333,180.5 42.5,174.5C 50.1739,174.334 57.8406,174.5 65.5,175C 66.3935,181.097 67.0602,187.264 67.5,193.5 Z"/></g>
<g><path style="opacity:0.608" fill="#9face8" d="M 175.5,202.5 C 175.259,207.694 174.593,212.694 173.5,217.5C 173.189,212.234 173.855,207.234 175.5,202.5 Z"/></g>
<g><path style="opacity:1" fill="#3766dd" d="M 135.5,214.5 C 129.537,217.556 123.37,220.556 117,223.5C 115.769,222.892 114.436,222.559 113,222.5C 106.949,224.06 100.782,225.393 94.5,226.5C 93.8333,226.5 93.5,226.167 93.5,225.5C 94.4916,225.672 95.1583,225.338 95.5,224.5C 108.795,220.956 122.128,217.623 135.5,214.5 Z"/></g>
<g><path style="opacity:1" fill="#485bc8" d="M 16.5,236.5 C 17.1174,236.611 17.6174,236.944 18,237.5C 18.4966,239.81 18.6633,242.143 18.5,244.5C 22.5404,244.891 26.2071,246.224 29.5,248.5C 25.7783,247.983 22.1117,247.15 18.5,246C 17.244,245.583 16.5774,244.75 16.5,243.5C 16.5,241.167 16.5,238.833 16.5,236.5 Z"/></g>
<g><path style="opacity:0.914" fill="#798ce0" d="M 29.5,248.5 C 32.1522,248.41 34.4855,249.076 36.5,250.5C 33.8478,250.59 31.5145,249.924 29.5,248.5 Z"/></g>
<g><path style="opacity:1" fill="#6a77d8" d="M 173.5,223.5 C 173.337,230.982 172.337,238.315 170.5,245.5C 158.278,249.305 145.945,252.639 133.5,255.5C 134.058,254.21 135.058,253.377 136.5,253C 147.83,250.024 159.164,247.19 170.5,244.5C 170.374,238.807 170.707,233.14 171.5,227.5C 171.585,225.667 172.252,224.334 173.5,223.5 Z"/></g>
<g><path style="opacity:1" fill="#5a69d2" d="M 40.5,251.5 C 44.1629,251.952 47.8296,252.452 51.5,253C 53.1193,253.236 54.1193,254.069 54.5,255.5C 49.4713,255.08 44.8047,253.746 40.5,251.5 Z"/></g>
<g><path style="opacity:0.902" fill="#87a1e4" d="M 61.5,257.5 C 64.1522,257.41 66.4855,258.076 68.5,259.5C 65.8478,259.59 63.5145,258.924 61.5,257.5 Z"/></g>
<g><path style="opacity:1" fill="#6570d5" d="M 119.5,259.5 C 112.072,261.524 104.739,263.857 97.5,266.5C 95.1667,266.5 92.8333,266.5 90.5,266.5C 89.1667,265.833 87.8333,265.167 86.5,264.5C 90.1817,264.665 93.8484,264.499 97.5,264C 97.1667,263.667 96.8333,263.333 96.5,263C 104.019,261.4 111.685,260.233 119.5,259.5 Z"/></g>
<g><path style="opacity:1" fill="#788bd5" d="M 76.5,261.5 C 80.1621,261.723 83.4954,262.723 86.5,264.5C 82.8379,264.277 79.5046,263.277 76.5,261.5 Z"/></g>
</svg>
