<?xml version="1.0" encoding="UTF-8"?>
<!DOCTYPE svg PUBLIC "-//W3C//DTD SVG 1.1//EN" "http://www.w3.org/Graphics/SVG/1.1/DTD/svg11.dtd">
<svg xmlns="http://www.w3.org/2000/svg" version="1.1" width="225px" height="225px" style="shape-rendering:geometricPrecision; text-rendering:geometricPrecision; image-rendering:optimizeQuality; fill-rule:evenodd; clip-rule:evenodd" xmlns:xlink="http://www.w3.org/1999/xlink">
<g><path style="opacity:0.004" fill="#000000" d="M 139.5,17.5 C 140.833,18.1667 140.833,18.1667 139.5,17.5 Z"/></g>
<g><path style="opacity:0.008" fill="#7f807f" d="M 141.5,17.5 C 142.833,18.1667 142.833,18.1667 141.5,17.5 Z"/></g>
<g><path style="opacity:0.514" fill="#565656" d="M 143.5,26.5 C 142.833,26.8333 142.167,27.1667 141.5,27.5C 141.5,25.5 141.5,23.5 141.5,21.5C 130.167,21.5 118.833,21.5 107.5,21.5C 107.5,24.1667 107.5,26.8333 107.5,29.5C 107.5,30.1667 107.5,30.8333 107.5,31.5C 105.167,31.5 102.833,31.5 100.5,31.5C 100.158,30.6618 99.4916,30.3284 98.5,30.5C 100.607,29.5318 102.941,29.1984 105.5,29.5C 105.5,26.1667 105.5,22.8333 105.5,19.5C 112.053,20.0677 118.387,19.401 124.5,17.5C 130.613,19.401 136.947,20.0677 143.5,19.5C 143.5,21.8333 143.5,24.1667 143.5,26.5 Z"/></g>
<g><path style="opacity:0.004" fill="#000000" d="M 82.5,24.5 C 83.8333,25.1667 83.8333,25.1667 82.5,24.5 Z"/></g>
<g><path style="opacity:0.333" fill="#3c3c3c" d="M 93.5,17.5 C 100.341,18.0158 102.007,21.1825 98.5,27C 92,28.5 89.5,26 91,19.5C 91.9947,18.9341 92.828,18.2674 93.5,17.5 Z M 93.5,19.5 C 98.2411,19.1614 99.5744,21.1614 97.5,25.5C 94.5693,26.7026 92.5693,25.7026 91.5,22.5C 92.1925,21.4822 92.8592,20.4822 93.5,19.5 Z"/></g>
<g><path style="opacity:0.467" fill="#404040" d="M 80.5,27.5 C 79.5,27.5 78.5,27.5 77.5,27.5C 77.3505,26.448 77.5172,25.448 78,24.5C 78.6979,25.6906 79.5313,26.6906 80.5,27.5 Z"/></g>
<g><path style="opacity:0.996" fill="#181818" d="M 81.5,27.5 C 81.8966,26.475 82.5632,26.3083 83.5,27C 82.9056,27.4643 82.2389,27.631 81.5,27.5 Z"/></g>
<g><path style="opacity:0.996" fill="#242424" d="M 80.5,27.5 C 80.8333,27.5 81.1667,27.5 81.5,27.5C 81.1667,31.5 80.8333,31.5 80.5,27.5 Z"/></g>
<g><path style="opacity:0.863" fill="#4d4d4d" d="M 149.5,30.5 C 148.833,30.5 148.167,30.5 147.5,30.5C 148.167,26.5 148.833,26.5 149.5,30.5 Z"/></g>
<g><path style="opacity:0.61" fill="#444444" d="M 107.5,38.5 C 106.833,38.8333 106.167,39.1667 105.5,39.5C 102.67,37.9652 101.337,38.9652 101.5,42.5C 100.833,41.8333 100.167,41.1667 99.5,40.5C 99.9081,39.3569 100.575,38.3569 101.5,37.5C 106.429,36.0334 111.096,34.0334 115.5,31.5C 112.956,31.0509 110.29,31.0509 107.5,31.5C 107.5,30.8333 107.5,30.1667 107.5,29.5C 110.493,28.8654 113.493,28.6987 116.5,29C 117.86,30.9376 117.527,32.6043 115.5,34C 113.412,35.0296 111.245,35.8629 109,36.5C 107.97,36.8361 107.47,37.5028 107.5,38.5 Z"/></g>
<g><path style="opacity:0.914" fill="#3a3a3a" d="M 136.5,25.5 C 137.043,25.56 137.376,25.8933 137.5,26.5C 136.959,28.5352 136.292,30.5352 135.5,32.5C 134.808,31.9747 134.308,31.3081 134,30.5C 131.651,33.0168 129.151,35.3501 126.5,37.5C 125.719,36.2634 124.719,35.2634 123.5,34.5C 121.135,36.8418 118.469,38.3418 115.5,39C 118.016,36.3167 120.683,33.8167 123.5,31.5C 124.275,33.4753 125.609,34.3087 127.5,34C 129.167,32.3333 130.833,30.6667 132.5,29C 131.692,28.6924 131.025,28.1924 130.5,27.5C 132.631,26.8313 134.631,26.1646 136.5,25.5 Z"/></g>
<g><path style="opacity:0.569" fill="#4c4c4c" d="M 147.5,30.5 C 147.833,31.1667 148.167,31.8333 148.5,32.5C 147.022,32.762 145.689,32.4287 144.5,31.5C 145.325,30.6143 146.325,30.281 147.5,30.5 Z"/></g>
<g><path style="opacity:0.114" fill="#4d4d4d" d="M 149.5,30.5 C 154.833,31.1667 154.833,31.8333 149.5,32.5C 149.5,31.8333 149.5,31.1667 149.5,30.5 Z"/></g>
<g><path style="opacity:0.598" fill="#474747" d="M 148.5,32.5 C 148.833,32.5 149.167,32.5 149.5,32.5C 149.657,33.8734 149.49,35.2068 149,36.5C 147.232,35.3181 147.065,33.9848 148.5,32.5 Z"/></g>
<g><path style="opacity:0.492" fill="#444444" d="M 98.5,30.5 C 99.4916,30.3284 100.158,30.6618 100.5,31.5C 98.5696,32.7635 96.9029,34.4301 95.5,36.5C 94.0613,34.6397 92.3947,32.973 90.5,31.5C 89.2638,32.2458 87.9305,32.5792 86.5,32.5C 86.3032,38.5451 86.6365,44.5451 87.5,50.5C 87.5,51.1667 87.1667,51.5 86.5,51.5C 85.71,50.3915 85.21,49.0581 85,47.5C 84.3333,42.5 84.3333,37.5 85,32.5C 88.9956,28.2117 92.4956,28.545 95.5,33.5C 96.2876,32.2299 97.2876,31.2299 98.5,30.5 Z"/></g>
<g><path style="opacity:0.491" fill="#4e4e4e" d="M 143.5,26.5 C 143.5,34.5 143.5,42.5 143.5,50.5C 142.833,49.8333 142.167,49.1667 141.5,48.5C 141.5,41.5 141.5,34.5 141.5,27.5C 142.167,27.1667 142.833,26.8333 143.5,26.5 Z"/></g>
<g><path style="opacity:0.345" fill="#4b4b4b" d="M 159.5,31.5 C 160.167,31.5 160.5,31.8333 160.5,32.5C 161.159,35.4552 161.492,38.4552 161.5,41.5C 161.167,41.5 160.833,41.5 160.5,41.5C 160.516,33.6856 158.016,32.6856 153,38.5C 152.36,42.7234 151.193,46.7234 149.5,50.5C 151.29,53.9877 152.623,57.6543 153.5,61.5C 153.5,61.8333 153.5,62.1667 153.5,62.5C 152.504,62.5858 151.671,62.2524 151,61.5C 150.364,57.7735 149.197,54.2735 147.5,51C 149.121,46.5899 150.621,42.0899 152,37.5C 154.127,34.8805 156.627,32.8805 159.5,31.5 Z"/></g>
<g><path style="opacity:0.442" fill="#424242" d="M 62.5,32.5 C 65.9598,34.0615 66.2931,36.0615 63.5,38.5C 60.025,36.9158 59.6917,34.9158 62.5,32.5 Z"/></g>
<g><path style="opacity:0.263" fill="#4c4c4c" d="M 159.5,31.5 C 169.404,30.6577 175.071,35.3243 176.5,45.5C 173.574,51.036 171.241,56.7026 169.5,62.5C 169.167,62.5 168.833,62.5 168.5,62.5C 169.643,56.5439 171.643,50.8772 174.5,45.5C 173.974,42.7284 173.141,40.0618 172,37.5C 170.736,35.393 168.903,34.393 166.5,34.5C 166.5,36.8333 166.5,39.1667 166.5,41.5C 165.167,41.5 163.833,41.5 162.5,41.5C 164.367,39.1876 164.867,36.5209 164,33.5C 162.989,32.6634 161.822,32.33 160.5,32.5C 160.5,31.8333 160.167,31.5 159.5,31.5 Z"/></g>
<g><path style="opacity:0.637" fill="#424242" d="M 75.5,32.5 C 76.9801,34.4119 78.9801,35.5785 81.5,36C 79.9262,37.8259 79.0929,39.9925 79,42.5C 77.2041,41.233 75.3707,41.233 73.5,42.5C 72.7078,40.5352 72.0412,38.5352 71.5,36.5C 73.4206,35.6761 74.754,34.3428 75.5,32.5 Z M 75.5,35.5 C 78.6862,35.9736 79.1862,37.307 77,39.5C 76.3333,38.1667 75.6667,38.1667 75,39.5C 74.6258,38.5838 74.1258,37.7504 73.5,37C 74.4158,36.7216 75.0825,36.2216 75.5,35.5 Z"/></g>
<g><path style="opacity:0.542" fill="#505050" d="M 130.5,37.5 C 132.265,36.5386 134.265,36.2053 136.5,36.5C 136.828,41.8746 136.495,47.2079 135.5,52.5C 134.507,47.8804 134.173,43.2137 134.5,38.5C 133.5,38.5 132.5,38.5 131.5,38.5C 131.5,37.8333 131.167,37.5 130.5,37.5 Z"/></g>
<g><path style="opacity:0.642" fill="#323232" d="M 57.5,41.5 C 61.2485,41.3066 64.5818,42.3066 67.5,44.5C 67.5,45.1667 67.5,45.8333 67.5,46.5C 64.0746,43.5934 63.0746,44.2601 64.5,48.5C 64.5,49.1667 64.1667,49.5 63.5,49.5C 62.5569,46.8908 60.8903,44.8908 58.5,43.5C 58.1667,42.8333 57.8333,42.1667 57.5,41.5 Z"/></g>
<g><path style="opacity:0.708" fill="#353535" d="M 53.5,41.5 C 54.1667,42.1667 54.8333,42.8333 55.5,43.5C 52.7891,45.2752 50.7891,47.6085 49.5,50.5C 49.1667,50.5 48.8333,50.5 48.5,50.5C 48.472,48.4176 49.1387,46.5843 50.5,45C 47.5037,45.6707 44.837,47.1707 42.5,49.5C 41.8333,49.5 41.5,49.1667 41.5,48.5C 44.5381,44.6433 48.5381,42.31 53.5,41.5 Z"/></g>
<g><path style="opacity:0.753" fill="#3f3f3f" d="M 130.5,37.5 C 131.167,37.5 131.5,37.8333 131.5,38.5C 131.827,43.2137 131.493,47.8804 130.5,52.5C 129.526,50.2573 129.192,47.924 129.5,45.5C 126.387,45.0646 125.721,46.0646 127.5,48.5C 127.281,49.938 126.781,51.2713 126,52.5C 125.501,48.8484 125.335,45.1817 125.5,41.5C 124.5,41.5 123.5,41.5 122.5,41.5C 121.833,41.5 121.167,41.5 120.5,41.5C 120.97,40.3065 121.97,39.6399 123.5,39.5C 124.5,39.8333 125.5,40.1667 126.5,40.5C 127.641,41.4255 127.641,42.2588 126.5,43C 127.448,43.4828 128.448,43.6495 129.5,43.5C 129.205,41.2646 129.539,39.2646 130.5,37.5 Z"/></g>
<g><path style="opacity:0.259" fill="#414141" d="M 53.5,41.5 C 54.8333,41.5 56.1667,41.5 57.5,41.5C 57.8333,42.1667 58.1667,42.8333 58.5,43.5C 57.5269,45.9479 57.1936,48.6146 57.5,51.5C 59.8568,51.6633 62.1902,51.4966 64.5,51C 63.944,50.6174 63.6107,50.1174 63.5,49.5C 64.1667,49.5 64.5,49.1667 64.5,48.5C 66.3623,51.3301 69.0289,52.1634 72.5,51C 70.9625,49.2927 69.2959,47.7927 67.5,46.5C 67.5,45.8333 67.5,45.1667 67.5,44.5C 72.7791,47.7065 76.1125,52.3732 77.5,58.5C 76.5084,58.3284 75.8417,58.6618 75.5,59.5C 71.0087,57.2616 66.342,56.9283 61.5,58.5C 61.5,57.8333 61.1667,57.5 60.5,57.5C 62.1887,56.6963 63.8554,55.6963 65.5,54.5C 62.9135,53.52 60.2469,53.1866 57.5,53.5C 56.8333,53.5 56.1667,53.5 55.5,53.5C 55.1667,53.5 54.8333,53.5 54.5,53.5C 54.1667,52.8333 53.8333,52.1667 53.5,51.5C 55.369,49.3647 56.0356,46.6981 55.5,43.5C 54.8333,42.8333 54.1667,42.1667 53.5,41.5 Z M 67.5,46.5 C 69.2959,47.7927 70.9625,49.2927 72.5,51C 69.0289,52.1634 66.3623,51.3301 64.5,48.5C 63.0746,44.2601 64.0746,43.5934 67.5,46.5 Z M 74.5,56.5 C 65.3025,54.9016 65.3025,53.9016 74.5,53.5C 74.5,54.5 74.5,55.5 74.5,56.5 Z"/></g>
<g><path style="opacity:0.479" fill="#525252" d="M 107.5,38.5 C 107.5,44.1667 107.5,49.8333 107.5,55.5C 108.5,55.5 109.5,55.5 110.5,55.5C 110.167,56.1667 109.833,56.8333 109.5,57.5C 108.167,57.5 106.833,57.5 105.5,57.5C 105.5,51.5 105.5,45.5 105.5,39.5C 106.167,39.1667 106.833,38.8333 107.5,38.5 Z"/></g>
<g><path style="opacity:0.614" fill="#464646" d="M 120.5,41.5 C 121.167,41.5 121.833,41.5 122.5,41.5C 122.823,45.226 122.489,48.8927 121.5,52.5C 120.534,50.604 120.201,48.604 120.5,46.5C 119.5,46.5 118.5,46.5 117.5,46.5C 117.799,48.604 117.466,50.604 116.5,52.5C 115.526,50.2573 115.192,47.924 115.5,45.5C 117.167,45.5 118.833,45.5 120.5,45.5C 120.5,44.1667 120.5,42.8333 120.5,41.5 Z"/></g>
<g><path style="opacity:0.639" fill="#474747" d="M 160.5,41.5 C 160.833,41.5 161.167,41.5 161.5,41.5C 161.833,41.5 162.167,41.5 162.5,41.5C 163.833,41.5 165.167,41.5 166.5,41.5C 169.332,43.4065 170.166,46.0732 169,49.5C 165.714,53.4851 162.381,53.4851 159,49.5C 158.282,46.5929 158.782,43.9262 160.5,41.5 Z M 162.5,42.5 C 167.262,43.0925 168.596,45.5925 166.5,50C 160.202,50.4954 158.868,47.9954 162.5,42.5 Z"/></g>
<g><path style="opacity:0.404" fill="#505050" d="M 162.5,45.5 C 163.5,45.5 164.5,45.5 165.5,45.5C 165.5,46.5 165.5,47.5 165.5,48.5C 164.5,48.5 163.5,48.5 162.5,48.5C 162.5,47.5 162.5,46.5 162.5,45.5 Z"/></g>
<g><path style="opacity:0.741" fill="#4b4b4b" d="M 181.5,47.5 C 185.267,49.326 185.433,51.326 182,53.5C 178.911,51.7956 178.745,49.7956 181.5,47.5 Z"/></g>
<g><path style="opacity:0.471" fill="#444444" d="M 41.5,48.5 C 41.5,49.1667 41.8333,49.5 42.5,49.5C 42.3893,50.1174 42.056,50.6174 41.5,51C 43.9291,51.7033 46.2625,51.5366 48.5,50.5C 48.8333,50.5 49.1667,50.5 49.5,50.5C 50.5676,51.4345 51.901,51.7678 53.5,51.5C 53.8333,52.1667 54.1667,52.8333 54.5,53.5C 52.5,53.5 50.5,53.5 48.5,53.5C 48.8016,56.0593 48.4682,58.3926 47.5,60.5C 47.6716,59.5084 47.3382,58.8417 46.5,58.5C 46.5,56.8333 46.5,55.1667 46.5,53.5C 44.8333,53.5 43.1667,53.5 41.5,53.5C 41.1667,52.5 40.5,51.8333 39.5,51.5C 39.9321,50.2905 40.5987,49.2905 41.5,48.5 Z"/></g>
<g><path style="opacity:0.467" fill="#565656" d="M 99.5,40.5 C 100.167,41.1667 100.833,41.8333 101.5,42.5C 101.823,48.69 101.49,54.69 100.5,60.5C 100.768,58.901 100.434,57.5676 99.5,56.5C 99.5,51.1667 99.5,45.8333 99.5,40.5 Z"/></g>
<g><path style="opacity:0.53" fill="#4d4d4d" d="M 91.5,65.5 C 90.8333,66.1667 90.1667,66.8333 89.5,67.5C 89.5,62.5 89.5,57.5 89.5,52.5C 88.209,52.7373 87.209,52.404 86.5,51.5C 87.1667,51.5 87.5,51.1667 87.5,50.5C 89.275,46.6136 90.1084,42.2803 90,37.5C 91.3527,46.7754 91.8527,56.1088 91.5,65.5 Z"/></g>
<g><path style="opacity:0.589" fill="#555555" d="M 110.5,55.5 C 118.5,55.5 126.5,55.5 134.5,55.5C 133.167,56.1667 131.833,56.8333 130.5,57.5C 130.5,58.1667 130.5,58.8333 130.5,59.5C 129.732,58.7375 129.232,57.7375 129,56.5C 128.601,56.7284 128.435,57.0618 128.5,57.5C 125.721,57.2786 123.054,57.612 120.5,58.5C 120.5,57.8333 120.167,57.5 119.5,57.5C 116.167,57.5 112.833,57.5 109.5,57.5C 109.833,56.8333 110.167,56.1667 110.5,55.5 Z"/></g>
<g><path style="opacity:0.593" fill="#5c5c5c" d="M 141.5,48.5 C 142.167,49.1667 142.833,49.8333 143.5,50.5C 143.5,52.8333 143.5,55.1667 143.5,57.5C 139.167,57.5 134.833,57.5 130.5,57.5C 131.833,56.8333 133.167,56.1667 134.5,55.5C 136.833,55.5 139.167,55.5 141.5,55.5C 141.5,53.1667 141.5,50.8333 141.5,48.5 Z"/></g>
<g><path style="opacity:0.506" fill="#444444" d="M 82.5,54.5 C 86.2668,56.326 86.4335,58.326 83,60.5C 79.9113,58.7956 79.7446,56.7956 82.5,54.5 Z M 82.5,56.5 C 83.7733,57.0768 83.7733,57.7435 82.5,58.5C 81.537,58.0302 81.537,57.3635 82.5,56.5 Z"/></g>
<g><path style="opacity:0.514" fill="#565656" d="M 96.5,68.5 C 95.5,69.8333 94.5,69.8333 93.5,68.5C 94.1666,61.6553 94.8333,54.6553 95.5,47.5C 96.497,54.4684 96.8303,61.4684 96.5,68.5 Z"/></g>
<g><path style="opacity:0.767" fill="#333333" d="M 55.5,53.5 C 56.1667,53.5 56.8333,53.5 57.5,53.5C 57.3379,55.5273 57.5045,57.5273 58,59.5C 58.7083,58.6195 59.5416,57.9528 60.5,57.5C 61.1667,57.5 61.5,57.8333 61.5,58.5C 57.5846,61.6527 55.918,65.6527 56.5,70.5C 55.8333,70.5 55.1667,70.5 54.5,70.5C 54.2924,68.0799 54.6258,65.7466 55.5,63.5C 52.8938,62.3483 50.2272,62.1816 47.5,63C 48.056,63.3826 48.3893,63.8826 48.5,64.5C 47.8333,64.5 47.1667,64.5 46.5,64.5C 44.3647,62.631 41.6981,61.9644 38.5,62.5C 38.5,62.1667 38.5,61.8333 38.5,61.5C 41.1667,61.5 43.8333,61.5 46.5,61.5C 46.5,60.5 46.5,59.5 46.5,58.5C 47.3382,58.8417 47.6716,59.5084 47.5,60.5C 49.9479,61.4731 52.6146,61.8064 55.5,61.5C 55.5,58.8333 55.5,56.1667 55.5,53.5 Z"/></g>
<g><path style="opacity:0.851" fill="#444444" d="M 119.5,57.5 C 120.167,57.5 120.5,57.8333 120.5,58.5C 120.5,59.1667 120.5,59.8333 120.5,60.5C 119.89,61.391 119.557,62.391 119.5,63.5C 119.838,66.1569 119.171,68.4902 117.5,70.5C 117.167,70.1667 116.833,69.8333 116.5,69.5C 117.106,67.2906 117.773,65.124 118.5,63C 117.692,62.6924 117.025,62.1924 116.5,61.5C 117.91,60.4305 118.91,59.0972 119.5,57.5 Z"/></g>
<g><path style="opacity:0.902" fill="#4f4f4f" d="M 130.5,59.5 C 131.398,60.1577 132.398,60.8243 133.5,61.5C 131.167,63.704 130.834,66.204 132.5,69C 131.833,71 131.167,71 130.5,69C 129.713,66.9011 129.38,64.7345 129.5,62.5C 126.061,62.2529 122.728,62.5863 119.5,63.5C 119.557,62.391 119.89,61.391 120.5,60.5C 123.167,60.5 125.833,60.5 128.5,60.5C 128.5,59.5 128.5,58.5 128.5,57.5C 128.435,57.0618 128.601,56.7284 129,56.5C 129.232,57.7375 129.732,58.7375 130.5,59.5 Z"/></g>
<g><path style="opacity:0.592" fill="#404040" d="M 63.5,59.5 C 65.1992,59.3398 66.8659,59.5065 68.5,60C 66.1023,61.0181 63.769,62.1847 61.5,63.5C 61.1667,63.1667 60.8333,62.8333 60.5,62.5C 61.7701,61.7124 62.7701,60.7124 63.5,59.5 Z"/></g>
<g><path style="opacity:0.492" fill="#474747" d="M 186.5,59.5 C 187.872,61.0887 189.539,62.4221 191.5,63.5C 190.985,65.2251 190.318,66.8917 189.5,68.5C 188.167,67.1667 186.833,67.1667 185.5,68.5C 184.752,66.6675 183.752,65.0009 182.5,63.5C 184.769,62.9954 186.103,61.6621 186.5,59.5 Z M 185.5,64.5 C 186.077,63.2267 186.743,63.2267 187.5,64.5C 187.03,65.463 186.363,65.463 185.5,64.5 Z"/></g>
<g><path style="opacity:0.355" fill="#3e3e3e" d="M 39.5,51.5 C 40.5,51.8333 41.1667,52.5 41.5,53.5C 39.023,55.4159 38.023,58.0825 38.5,61.5C 38.5,61.8333 38.5,62.1667 38.5,62.5C 38.0618,62.4346 37.7284,62.6012 37.5,63C 38.3161,64.923 38.9828,66.923 39.5,69C 39.8361,70.0299 40.5028,70.5299 41.5,70.5C 40.8902,71.391 40.5569,72.391 40.5,73.5C 37.5091,70.3658 36.1757,66.5325 36.5,62C 36.2185,58.024 37.2185,54.524 39.5,51.5 Z"/></g>
<g><path style="opacity:0.069" fill="#494949" d="M 148.5,63.5 C 150.078,64.0656 151.412,65.0656 152.5,66.5C 151.354,67.7187 150.354,69.0521 149.5,70.5C 148.646,69.0521 147.646,67.7187 146.5,66.5C 147.612,65.7348 148.279,64.7348 148.5,63.5 Z"/></g>
<g><path style="opacity:0.459" fill="#414141" d="M 153.5,62.5 C 153.5,62.1667 153.5,61.8333 153.5,61.5C 155.167,61.5 156.833,61.5 158.5,61.5C 158.155,64.488 159.488,65.8213 162.5,65.5C 165.102,65.5328 167.102,64.5328 168.5,62.5C 168.833,62.5 169.167,62.5 169.5,62.5C 168.351,66.0028 165.851,67.6695 162,67.5C 158.912,67.9137 157.078,66.5804 156.5,63.5C 155.675,62.6143 154.675,62.281 153.5,62.5 Z"/></g>
<g><path style="opacity:0.167" fill="#454646" d="M 46.5,64.5 C 47.1667,64.5 47.8333,64.5 48.5,64.5C 48.5,66.5 48.5,68.5 48.5,70.5C 50.5,70.5 52.5,70.5 54.5,70.5C 55.1667,70.5 55.8333,70.5 56.5,70.5C 56.6287,72.2161 56.962,73.8828 57.5,75.5C 57.1667,75.5 56.8333,75.5 56.5,75.5C 54.7803,72.558 52.447,71.8913 49.5,73.5C 49.1667,73.5 48.8333,73.5 48.5,73.5C 46.059,72.2437 43.7257,72.2437 41.5,73.5C 41.1667,73.5 40.8333,73.5 40.5,73.5C 40.5569,72.391 40.8902,71.391 41.5,70.5C 43.1667,70.5 44.8333,70.5 46.5,70.5C 46.5,68.5 46.5,66.5 46.5,64.5 Z"/></g>
<g><path style="opacity:0.039" fill="#484848" d="M 89.5,68.5 C 89.631,69.2389 89.4643,69.9056 89,70.5C 88.3083,69.5632 88.475,68.8966 89.5,68.5 Z"/></g>
<g><path style="opacity:0.792" fill="#434343" d="M 99.5,56.5 C 100.434,57.5676 100.768,58.901 100.5,60.5C 100.784,63.7766 100.451,66.9433 99.5,70C 95.8326,70.937 92.4993,70.437 89.5,68.5C 89.5,68.1667 89.5,67.8333 89.5,67.5C 90.1667,66.8333 90.8333,66.1667 91.5,65.5C 91.2852,67.1788 91.9519,68.1788 93.5,68.5C 94.5,69.8333 95.5,69.8333 96.5,68.5C 97.9311,68.1193 98.7645,67.1193 99,65.5C 99.498,62.5184 99.6646,59.5184 99.5,56.5 Z"/></g>
<g><path style="opacity:0.775" fill="#424242" d="M 177.5,69.5 C 176.833,69.5 176.5,69.8333 176.5,70.5C 163.517,69.9736 158.35,75.9736 161,88.5C 165.289,94.7637 171.123,96.7637 178.5,94.5C 178.842,95.3382 179.508,95.6716 180.5,95.5C 180.5,95.8333 180.5,96.1667 180.5,96.5C 180.167,96.5 179.833,96.5 179.5,96.5C 167.596,99.3834 160.262,94.8834 157.5,83C 159.777,71.7101 166.443,67.2101 177.5,69.5 Z"/></g>
<g><path style="opacity:0.366" fill="#3b3b3b" d="M 77.5,58.5 C 81.3747,63.6135 82.3747,69.2801 80.5,75.5C 79.5084,75.6716 78.8417,75.3382 78.5,74.5C 80.5032,68.8183 79.5032,63.8183 75.5,59.5C 75.8417,58.6618 76.5084,58.3284 77.5,58.5 Z"/></g>
<g><path style="opacity:0.569" fill="#444444" d="M 105.5,72.5 C 105.167,72.5 104.833,72.5 104.5,72.5C 103.167,72.5 102.5,73.1667 102.5,74.5C 102.5,74.8333 102.5,75.1667 102.5,75.5C 99.4762,77.0711 97.8095,79.5711 97.5,83C 95.7043,83.436 94.3709,82.7693 93.5,81C 95.0291,78.4754 97.1957,76.642 100,75.5C 100.196,73.0955 101.362,71.4289 103.5,70.5C 104.522,70.8555 105.189,71.5222 105.5,72.5 Z"/></g>
<g><path style="opacity:0.024" fill="#545554" d="M 144.5,72.5 C 145.833,73.1667 145.833,73.1667 144.5,72.5 Z"/></g>
<g><path style="opacity:0.589" fill="#4d4d4d" d="M 110.5,78.5 C 109.833,78.8333 109.167,79.1667 108.5,79.5C 108.5,78.8333 108.5,78.1667 108.5,77.5C 108.5,77.1667 108.5,76.8333 108.5,76.5C 110.088,75.3587 111.421,73.8587 112.5,72C 117.175,72.8756 117.508,74.7089 113.5,77.5C 112.078,76.2232 111.078,76.5565 110.5,78.5 Z"/></g>
<g><path style="opacity:0.004" fill="#000000" d="M 112.5,73.5 C 114.337,73.6395 114.67,74.3061 113.5,75.5C 112.702,75.0431 112.369,74.3764 112.5,73.5 Z"/></g>
<g><path style="opacity:0.562" fill="#414141" d="M 78.5,74.5 C 78.8417,75.3382 79.5084,75.6716 80.5,75.5C 82.4871,75.788 84.1538,77.1213 85.5,79.5C 86.1667,80.5 86.8333,81.5 87.5,82.5C 87.5,82.8333 87.5,83.1667 87.5,83.5C 85.3021,81.9019 82.9687,80.5686 80.5,79.5C 80.1667,79.5 79.8333,79.5 79.5,79.5C 79.6495,78.448 79.4828,77.448 79,76.5C 77.5187,77.4709 76.6854,78.8042 76.5,80.5C 77.5063,81.3957 77.5063,82.0623 76.5,82.5C 76.1667,82.5 75.8333,82.5 75.5,82.5C 75.2172,81.7109 74.7172,81.0442 74,80.5C 70.8897,82.5919 67.723,82.9252 64.5,81.5C 65.1667,81.5 65.5,81.1667 65.5,80.5C 71.048,80.8899 75.3813,78.8899 78.5,74.5 Z M 79.5,79.5 C 78.609,80.1098 77.609,80.4431 76.5,80.5C 76.6854,78.8042 77.5187,77.4709 79,76.5C 79.4828,77.448 79.6495,78.448 79.5,79.5 Z"/></g>
<g><path style="opacity:0.765" fill="#424242" d="M 104.5,72.5 C 104.833,72.5 105.167,72.5 105.5,72.5C 105.709,73.9217 106.209,75.255 107,76.5C 107.69,75.2617 108.19,75.2617 108.5,76.5C 108.5,76.8333 108.5,77.1667 108.5,77.5C 107.167,78.1667 107.167,78.8333 108.5,79.5C 109.167,79.1667 109.833,78.8333 110.5,78.5C 110.278,81.0764 108.945,81.9098 106.5,81C 105.62,79.6439 105.286,78.1439 105.5,76.5C 104.209,76.7373 103.209,76.404 102.5,75.5C 102.5,75.1667 102.5,74.8333 102.5,74.5C 103.5,74.1667 104.167,73.5 104.5,72.5 Z"/></g>
<g><path style="opacity:0.745" fill="#4b4a4a" d="M 144.5,73.5 C 145.234,74.7079 145.567,76.0413 145.5,77.5C 143.143,77.3367 140.81,77.5034 138.5,78C 139.793,78.49 141.127,78.6567 142.5,78.5C 142.737,79.791 142.404,80.791 141.5,81.5C 140.081,80.5489 138.415,80.2155 136.5,80.5C 136.662,78.4727 136.495,76.4727 136,74.5C 135.617,75.056 135.117,75.3893 134.5,75.5C 134.5,74.8333 134.5,74.1667 134.5,73.5C 136.666,73.4211 138.666,72.7545 140.5,71.5C 142.073,71.7517 143.406,72.4183 144.5,73.5 Z"/></g>
<g><path style="opacity:0.373" fill="#3f3f3f" d="M 27.5,79.5 C 27.5,79.1667 27.5,78.8333 27.5,78.5C 28.8503,77.5169 29.8503,76.1836 30.5,74.5C 31.8333,75.8333 33.1667,75.8333 34.5,74.5C 35.1414,76.2955 36.1414,77.7955 37.5,79C 36.2283,80.3068 35.2283,81.8068 34.5,83.5C 33.1667,82.1667 31.8333,82.1667 30.5,83.5C 29.8503,81.8164 28.8503,80.4831 27.5,79.5 Z M 30.5,77.5 C 35.8333,78.5 35.8333,79.5 30.5,80.5C 30.5,79.5 30.5,78.5 30.5,77.5 Z"/></g>
<g><path style="opacity:0.012" fill="#545554" d="M 27.5,78.5 C 26.8333,77.1667 26.8333,77.1667 27.5,78.5 Z"/></g>
<g><path style="opacity:0.02" fill="#323332" d="M 145.5,77.5 C 146.833,78.1667 146.833,78.1667 145.5,77.5 Z"/></g>
<g><path style="opacity:0.569" fill="#383838" d="M 40.5,73.5 C 40.8333,73.5 41.1667,73.5 41.5,73.5C 43.899,76.0579 46.7323,78.0579 50,79.5C 49.4052,77.6498 48.9052,75.6498 48.5,73.5C 48.8333,73.5 49.1667,73.5 49.5,73.5C 50.7368,74.9649 51.7368,76.6316 52.5,78.5C 52.4361,79.3652 52.1027,80.3652 51.5,81.5C 46.6387,80.2826 42.972,77.6159 40.5,73.5 Z"/></g>
<g><path style="opacity:0.81" fill="#363535" d="M 56.5,75.5 C 56.8333,75.5 57.1667,75.5 57.5,75.5C 59.6554,77.9895 62.322,79.6561 65.5,80.5C 65.5,81.1667 65.1667,81.5 64.5,81.5C 60.12,82.6954 55.7867,82.6954 51.5,81.5C 52.1027,80.3652 52.4361,79.3652 52.5,78.5C 53.4584,78.9528 54.2917,79.6195 55,80.5C 55.3519,78.7525 55.8519,77.0858 56.5,75.5 Z M 57.5,78.5 C 58.2891,78.7828 58.9558,79.2828 59.5,80C 58.184,80.5281 57.5173,80.0281 57.5,78.5 Z"/></g>
<g><path style="opacity:0.024" fill="#545554" d="M 85.5,78.5 C 86.8333,79.1667 86.8333,79.1667 85.5,78.5 Z"/></g>
<g><path style="opacity:0.818" fill="#3e3e3e" d="M 174.5,73.5 C 175.812,75.7432 176.478,78.4098 176.5,81.5C 176.167,84.1667 175.833,86.8333 175.5,89.5C 174.505,84.2079 174.172,78.8746 174.5,73.5 Z"/></g>
<g><path style="opacity:0.468" fill="#3d3d3d" d="M 79.5,79.5 C 79.8333,79.5 80.1667,79.5 80.5,79.5C 81.3696,81.0319 81.0362,82.5319 79.5,84C 81.2134,85.3782 82.5467,87.0448 83.5,89C 87.7706,89.2349 89.104,87.4016 87.5,83.5C 87.5,83.1667 87.5,82.8333 87.5,82.5C 91.2579,84.6539 91.2579,87.1539 87.5,90C 85.8333,90.6667 84.1667,90.6667 82.5,90C 81.2949,88.6244 79.9616,87.4577 78.5,86.5C 77.3995,85.3951 76.7329,84.0618 76.5,82.5C 77.5063,82.0623 77.5063,81.3957 76.5,80.5C 77.609,80.4431 78.609,80.1098 79.5,79.5 Z"/></g>
<g><path style="opacity:0.008" fill="#6d6d6d" d="M 27.5,79.5 C 27.631,80.2389 27.4643,80.9056 27,81.5C 26.3083,80.5632 26.475,79.8966 27.5,79.5 Z"/></g>
<g><path style="opacity:0.992" fill="#292929" d="M 189.5,74.5 C 190.65,79.3158 190.816,84.3158 190,89.5C 189.501,84.5111 189.334,79.5111 189.5,74.5 Z"/></g>
<g><path style="opacity:0.481" fill="#464646" d="M 168.5,79.5 C 169.777,80.6936 170.444,82.3603 170.5,84.5C 170.167,86.1667 169.833,87.8333 169.5,89.5C 168.513,86.2317 168.18,82.8984 168.5,79.5 Z"/></g>
<g><path style="opacity:0.511" fill="#3b3b3b" d="M 176.5,70.5 C 176.5,69.8333 176.833,69.5 177.5,69.5C 186.831,73.8112 189.497,80.8112 185.5,90.5C 184.833,90.5 184.167,90.5 183.5,90.5C 187.392,81.6235 185.059,74.9568 176.5,70.5 Z"/></g>
<g><path style="opacity:0.016" fill="#3f403f" d="M 75.5,82.5 C 74.8333,83.1667 74.8333,83.1667 75.5,82.5 Z"/></g>
<g><path style="opacity:0.012" fill="#545554" d="M 145.5,82.5 C 146.833,83.1667 146.833,83.1667 145.5,82.5 Z"/></g>
<g><path style="opacity:0.433" fill="#454545" d="M 179.5,77.5 C 180.794,79.0478 181.461,81.0478 181.5,83.5C 181.167,85.5 180.833,87.5 180.5,89.5C 179.509,85.5546 179.176,81.5546 179.5,77.5 Z"/></g>
<g><path style="opacity:0.529" fill="#464646" d="M 122.5,90.5 C 122.5,90.8333 122.5,91.1667 122.5,91.5C 120.194,91.0074 117.861,90.6741 115.5,90.5C 115.719,91.675 115.386,92.675 114.5,93.5C 113.824,92.3984 113.158,91.3984 112.5,90.5C 112.5,89.8333 112.167,89.5 111.5,89.5C 112.908,87.1031 113.908,84.4364 114.5,81.5C 115.474,83.7427 115.808,86.076 115.5,88.5C 118.067,88.7215 120.401,89.3882 122.5,90.5 Z"/></g>
<g><path style="opacity:0.81" fill="#444444" d="M 207.5,85.5 C 207.714,87.1439 207.38,88.6439 206.5,90C 204.749,89.6912 203.082,89.5246 201.5,89.5C 199.561,89.5608 197.561,89.5608 195.5,89.5C 194.343,86.2156 194.176,82.8823 195,79.5C 196.216,81.962 196.882,84.6287 197,87.5C 198.087,84.3088 198.92,80.9755 199.5,77.5C 200.167,80.1667 200.833,82.8333 201.5,85.5C 203.38,85.0702 205.38,85.0702 207.5,85.5 Z M 201.5,89.5 C 200.427,88.7494 200.26,87.7494 201,86.5C 202.728,87.3523 202.895,88.3523 201.5,89.5 Z M 204.5,86.5 C 205.289,86.7828 205.956,87.2828 206.5,88C 205.184,88.5281 204.517,88.0281 204.5,86.5 Z"/></g>
<g><path style="opacity:0.031" fill="#2c2c2c" d="M 201.5,82.5 C 202.525,82.8966 202.692,83.5632 202,84.5C 201.536,83.9056 201.369,83.2389 201.5,82.5 Z"/></g>
<g><path style="opacity:0.378" fill="#3f3e3e" d="M 134.5,73.5 C 134.5,74.1667 134.5,74.8333 134.5,75.5C 131.251,81.0576 132.751,83.7243 139,83.5C 140.301,83.3613 141.134,82.6946 141.5,81.5C 142.404,80.791 142.737,79.791 142.5,78.5C 143.72,80.0496 143.72,81.7163 142.5,83.5C 137.009,87.4449 133.009,86.1115 130.5,79.5C 130.852,76.783 132.185,74.783 134.5,73.5 Z"/></g>
<g><path style="opacity:0.008" fill="#000000" d="M 207.5,84.5 C 208.833,85.1667 208.833,85.1667 207.5,84.5 Z"/></g>
<g><path style="opacity:0.603" fill="#474747" d="M 28.5,86.5 C 34.6446,85.5098 40.9779,85.1765 47.5,85.5C 44.5,86.1667 41.5,86.8333 38.5,87.5C 35.8333,87.5 33.1667,87.5 30.5,87.5C 30.81,90.7131 30.4767,93.7131 29.5,96.5C 28.5,95.8333 27.5,95.1667 26.5,94.5C 27.6491,94.2089 28.3158,93.3756 28.5,92C 28.472,90.9302 28.1386,90.0968 27.5,89.5C 27.9528,88.5416 28.6195,87.7083 29.5,87C 29.2716,86.6012 28.9382,86.4346 28.5,86.5 Z"/></g>
<g><path style="opacity:0.863" fill="#4d4d4d" d="M 47.5,85.5 C 51.7016,85.1832 55.7016,85.5166 59.5,86.5C 58.8333,86.5 58.5,86.8333 58.5,87.5C 51.8333,87.5 45.1667,87.5 38.5,87.5C 41.5,86.8333 44.5,86.1667 47.5,85.5 Z"/></g>
<g><path style="opacity:0.246" fill="#303030" d="M 142.5,83.5 C 143.5,83.5 144.5,83.5 145.5,83.5C 145.593,85.2474 145.926,87.0807 146.5,89C 145.584,89.3742 144.75,89.8742 144,90.5C 143.257,88.5594 143.424,86.7261 144.5,85C 143.584,84.7216 142.918,84.2216 142.5,83.5 Z"/></g>
<g><path style="opacity:0.722" fill="#3b3b3b" d="M 163.5,82.5 C 164.725,83.1522 165.392,84.3189 165.5,86C 165.167,87.1667 164.833,88.3333 164.5,89.5C 163.526,87.2573 163.192,84.924 163.5,82.5 Z"/></g>
<g><path style="opacity:0.008" fill="#7f807f" d="M 78.5,86.5 C 77.8333,87.1667 77.8333,87.1667 78.5,86.5 Z"/></g>
<g><path style="opacity:0.702" fill="#404040" d="M 97.5,90.5 C 96.8333,90.5 96.5,90.1667 96.5,89.5C 100.922,85.774 105.922,84.1074 111.5,84.5C 106.594,85.9533 101.927,87.9533 97.5,90.5 Z"/></g>
<g><path style="opacity:0.273" fill="#3e3e3e" d="M 134.5,90.5 C 133.833,90.5 133.5,90.8333 133.5,91.5C 128.54,88.3991 123.207,86.0657 117.5,84.5C 123.953,84.0963 129.619,86.0963 134.5,90.5 Z"/></g>
<g><path style="opacity:0.63" fill="#323232" d="M 149.5,84.5 C 150.931,85.7804 151.598,87.4471 151.5,89.5C 150.5,89.5 149.5,89.5 148.5,89.5C 148.366,87.7085 148.699,86.0418 149.5,84.5 Z"/></g>
<g><path style="opacity:0.898" fill="#323232" d="M 154.5,79.5 C 155.777,80.6936 156.444,82.3603 156.5,84.5C 156.167,86.1667 155.833,87.8333 155.5,89.5C 154.513,86.2317 154.18,82.8984 154.5,79.5 Z"/></g>
<g><path style="opacity:0.055" fill="#5d5d5d" d="M 71.5,89.5 C 70.8333,89.5 70.5,89.8333 70.5,90.5C 69.9569,90.44 69.6236,90.1067 69.5,89.5C 70.2565,88.2267 70.9232,88.2267 71.5,89.5 Z"/></g>
<g><path style="opacity:0.004" fill="#000000" d="M 74.5,89.5 C 75.8333,90.1667 75.8333,90.1667 74.5,89.5 Z"/></g>
<g><path style="opacity:0.302" fill="#3b3b3b" d="M 111.5,89.5 C 112.167,89.5 112.5,89.8333 112.5,90.5C 105.825,91.6701 100.158,94.6701 95.5,99.5C 94.8333,99.5 94.5,99.1667 94.5,98.5C 98.8734,93.1456 104.54,90.1456 111.5,89.5 Z"/></g>
<g><path style="opacity:0.627" fill="#474747" d="M 96.5,89.5 C 96.5,90.1667 96.8333,90.5 97.5,90.5C 90.4107,95.6563 86.0774,102.656 84.5,111.5C 84.5378,102.1 88.5378,94.7665 96.5,89.5 Z"/></g>
<g><path style="opacity:0.69" fill="#3b3a3a" d="M 122.5,90.5 C 133.726,94.0609 139.726,101.728 140.5,113.5C 140.167,114.833 139.833,114.833 139.5,113.5C 138.133,102.735 132.467,95.4018 122.5,91.5C 122.5,91.1667 122.5,90.8333 122.5,90.5 Z"/></g>
<g><path style="opacity:0.379" fill="#333333" d="M 183.5,90.5 C 184.167,90.5 184.833,90.5 185.5,90.5C 188.129,93.6306 190.962,96.6306 194,99.5C 195.666,105.331 193.499,107.998 187.5,107.5C 187.5,106.833 187.833,106.5 188.5,106.5C 191.955,105.872 193.122,103.872 192,100.5C 190.5,99 189,97.5 187.5,96C 186.423,95.5304 185.423,95.6971 184.5,96.5C 183.833,96.5 183.5,96.1667 183.5,95.5C 184.303,94.5768 184.47,93.5768 184,92.5C 182.482,93.1634 181.315,94.1634 180.5,95.5C 179.508,95.6716 178.842,95.3382 178.5,94.5C 180.142,93.197 181.809,91.8637 183.5,90.5 Z"/></g>
<g><path style="opacity:0.607" fill="#686868" d="M 70.5,90.5 C 70.8333,90.5 71.1667,90.5 71.5,90.5C 71.5,90.8333 71.5,91.1667 71.5,91.5C 70.0028,92.3058 68.3361,92.9724 66.5,93.5C 65.1997,96.3092 65.1997,98.9759 66.5,101.5C 66.5,102.5 66.5,103.5 66.5,104.5C 69.8333,104.5 73.1667,104.5 76.5,104.5C 76.8333,105.167 77.1667,105.833 77.5,106.5C 73.1667,106.5 68.8333,106.5 64.5,106.5C 64.4764,101.773 64.3097,97.1068 64,92.5C 66.277,91.8828 68.4437,91.2161 70.5,90.5 Z"/></g>
<g><path style="opacity:0.398" fill="#737373" d="M 71.5,91.5 C 73.1703,91.7512 74.6703,92.4178 76,93.5C 78.6345,92.3078 79.4678,92.9744 78.5,95.5C 74.5,95.5 70.5,95.5 66.5,95.5C 66.5,97.5 66.5,99.5 66.5,101.5C 65.1997,98.9759 65.1997,96.3092 66.5,93.5C 68.3361,92.9724 70.0028,92.3058 71.5,91.5 Z"/></g>
<g><path style="opacity:0.895" fill="#424242" d="M 59.5,86.5 C 59.5,94.8333 59.5,103.167 59.5,111.5C 58.8333,113.5 58.1667,115.5 57.5,117.5C 57.1926,107.418 57.5259,97.4176 58.5,87.5C 58.5,86.8333 58.8333,86.5 59.5,86.5 Z"/></g>
<g><path style="opacity:0.803" fill="#585858" d="M 71.5,89.5 C 72.609,89.5569 73.609,89.8902 74.5,90.5C 76.2646,91.4614 78.2646,91.7947 80.5,91.5C 80.6658,96.1785 80.4992,100.845 80,105.5C 79.3292,106.252 78.4959,106.586 77.5,106.5C 77.1667,105.833 76.8333,105.167 76.5,104.5C 78.3878,102.012 79.0545,99.0122 78.5,95.5C 79.4678,92.9744 78.6345,92.3078 76,93.5C 74.6703,92.4178 73.1703,91.7512 71.5,91.5C 71.5,91.1667 71.5,90.8333 71.5,90.5C 71.5,90.1667 71.5,89.8333 71.5,89.5 Z"/></g>
<g><path style="opacity:0.792" fill="#353434" d="M 134.5,90.5 C 141.187,95.6991 145.187,102.532 146.5,111C 145.668,111.688 145.002,111.521 144.5,110.5C 142.91,102.922 139.243,96.589 133.5,91.5C 133.5,90.8333 133.833,90.5 134.5,90.5 Z"/></g>
<g><path style="opacity:0.453" fill="#3c3c3c" d="M 47.5,101.5 C 46.8333,101.5 46.1667,101.5 45.5,101.5C 40.6918,99.9811 36.0252,100.314 31.5,102.5C 31.5,101.833 31.1667,101.5 30.5,101.5C 35.4226,98.1214 40.7559,97.6214 46.5,100C 47.056,100.383 47.3893,100.883 47.5,101.5 Z"/></g>
<g><path style="opacity:0.587" fill="#464646" d="M 152.5,96.5 C 154.518,97.6225 156.518,97.6225 158.5,96.5C 159.248,98.3325 160.248,99.9991 161.5,101.5C 160.248,103.001 159.248,104.668 158.5,106.5C 156.833,105.167 155.167,105.167 153.5,106.5C 152.752,104.668 151.752,103.001 150.5,101.5C 152.005,100.158 152.672,98.4918 152.5,96.5 Z M 154.5,99.5 C 157.166,99.0658 158.333,100.066 158,102.5C 154.403,104.066 153.237,103.066 154.5,99.5 Z"/></g>
<g><path style="opacity:0.737" fill="#363636" d="M 183.5,95.5 C 183.5,96.1667 183.833,96.5 184.5,96.5C 183.909,97.1515 183.243,97.8182 182.5,98.5C 184.14,101.468 186.14,104.135 188.5,106.5C 187.833,106.5 187.5,106.833 187.5,107.5C 184.067,104.399 181.4,100.732 179.5,96.5C 179.833,96.5 180.167,96.5 180.5,96.5C 181.609,96.4431 182.609,96.1098 183.5,95.5 Z"/></g>
<g><path style="opacity:0.365" fill="#424242" d="M 94.5,98.5 C 94.5,99.1667 94.8333,99.5 95.5,99.5C 92.3099,103.577 90.6432,108.244 90.5,113.5C 94.5,114.167 94.5,114.833 90.5,115.5C 89.6586,113.621 89.3253,111.621 89.5,109.5C 89.8457,105.148 91.5124,101.481 94.5,98.5 Z"/></g>
<g><path style="opacity:0.875" fill="#353536" d="M 28.5,86.5 C 28.9382,86.4346 29.2716,86.6012 29.5,87C 28.6195,87.7083 27.9528,88.5416 27.5,89.5C 26.3747,91.1288 25.0414,92.6288 23.5,94C 24.448,94.4828 25.448,94.6495 26.5,94.5C 27.5,95.1667 28.5,95.8333 29.5,96.5C 26.5,96.5 23.5,96.5 20.5,96.5C 20.5,102.167 20.5,107.833 20.5,113.5C 19.8333,109.5 19.1667,105.5 18.5,101.5C 18.3379,99.4727 18.5045,97.4727 19,95.5C 22.0359,92.2956 25.2026,89.2956 28.5,86.5 Z"/></g>
<g><path style="opacity:0.629" fill="#434343" d="M 45.5,101.5 C 46.1667,101.5 46.8333,101.5 47.5,101.5C 48.4959,101.414 49.3292,101.748 50,102.5C 52.8634,106.38 54.0301,110.713 53.5,115.5C 52.8333,115.5 52.1667,115.5 51.5,115.5C 52.1884,109.556 50.1884,104.889 45.5,101.5 Z"/></g>
<g><path style="opacity:0.2" fill="#383838" d="M 203.5,104.5 C 203.167,104.5 202.833,104.5 202.5,104.5C 201.438,103.425 201.438,102.425 202.5,101.5C 203.386,102.325 203.719,103.325 203.5,104.5 Z"/></g>
<g><path style="opacity:0.722" fill="#404040" d="M 172.5,105.5 C 172.5,105.167 172.5,104.833 172.5,104.5C 173.363,103.537 174.03,103.537 174.5,104.5C 174.043,105.298 173.376,105.631 172.5,105.5 Z"/></g>
<g><path style="opacity:0.453" fill="#383838" d="M 202.5,104.5 C 202.5,104.833 202.5,105.167 202.5,105.5C 201.833,105.5 201.5,105.833 201.5,106.5C 200.624,106.631 199.957,106.298 199.5,105.5C 200.325,104.614 201.325,104.281 202.5,104.5 Z"/></g>
<g><path style="opacity:0.129" fill="#414141" d="M 18.5,101.5 C 19.1667,105.5 19.8333,109.5 20.5,113.5C 20.5,115.5 20.5,117.5 20.5,119.5C 19.8333,122.167 19.1667,124.833 18.5,127.5C 18.5,118.833 18.5,110.167 18.5,101.5 Z"/></g>
<g><path style="opacity:0.09" fill="#444444" d="M 172.5,104.5 C 171.167,104.833 171.167,105.167 172.5,105.5C 172.649,106.552 172.483,107.552 172,108.5C 171.167,107 170,105.833 168.5,105C 169.77,104.1 170.77,102.934 171.5,101.5C 172.386,102.325 172.719,103.325 172.5,104.5 Z"/></g>
<g><path style="opacity:0.024" fill="#3a3a3a" d="M 203.5,105.5 C 203.5,105.167 203.5,104.833 203.5,104.5C 204.675,104.281 205.675,104.614 206.5,105.5C 205.575,106.562 204.575,106.562 203.5,105.5 Z"/></g>
<g><path style="opacity:0.035" fill="#3a3a3a" d="M 202.5,105.5 C 202.833,105.5 203.167,105.5 203.5,105.5C 203.646,110.137 202.979,110.47 201.5,106.5C 202.167,106.5 202.5,106.167 202.5,105.5 Z"/></g>
<g><path style="opacity:0.509" fill="#373737" d="M 199.5,117.5 C 199.167,117.5 198.833,117.5 198.5,117.5C 195.774,112.618 191.44,109.951 185.5,109.5C 178.904,109.779 174.571,112.946 172.5,119C 173.044,120.585 173.711,122.085 174.5,123.5C 174.5,124.167 174.167,124.5 173.5,124.5C 169.184,117.306 171.184,112.14 179.5,109C 187.181,106.999 193.681,108.833 199,114.5C 199.483,115.448 199.649,116.448 199.5,117.5 Z"/></g>
<g><path style="opacity:0.439" fill="#3b3b3b" d="M 42.5,104.5 C 41.8333,104.5 41.5,104.833 41.5,105.5C 40.1667,105.5 38.8333,105.5 37.5,105.5C 37.6658,110.179 37.4992,114.845 37,119.5C 36.5034,117.19 36.3367,114.857 36.5,112.5C 35.1667,112.5 33.8333,112.5 32.5,112.5C 32.6633,114.857 32.4966,117.19 32,119.5C 30.4597,117.045 30.1264,114.379 31,111.5C 32.6995,110.594 34.5328,110.261 36.5,110.5C 36.5,108.167 36.5,105.833 36.5,103.5C 38.7354,103.205 40.7354,103.539 42.5,104.5 Z"/></g>
<g><path style="opacity:0.686" fill="#555555" d="M 116.5,110.5 C 115.833,111.833 115.167,113.167 114.5,114.5C 114.719,113.325 114.386,112.325 113.5,111.5C 112.507,116.12 112.173,120.786 112.5,125.5C 111.833,125.5 111.167,125.5 110.5,125.5C 110.975,122.918 110.308,120.918 108.5,119.5C 108.158,118.662 107.492,118.328 106.5,118.5C 107.568,117.566 108.901,117.232 110.5,117.5C 110.5,114.833 110.5,112.167 110.5,109.5C 112.735,109.205 114.735,109.539 116.5,110.5 Z"/></g>
<g><path style="opacity:0.906" fill="#343435" d="M 59.5,111.5 C 59.3347,115.182 59.5014,118.848 60,122.5C 62.0627,124.734 64.2294,126.734 66.5,128.5C 66.5,129.167 66.1667,129.5 65.5,129.5C 61.8765,127.049 58.3765,124.383 55,121.5C 54.6174,122.056 54.1174,122.389 53.5,122.5C 53.1667,122.5 52.8333,122.5 52.5,122.5C 53.1157,121.202 53.1157,120.202 52.5,119.5C 52.1583,118.662 51.4916,118.328 50.5,118.5C 50.5569,117.391 50.8902,116.391 51.5,115.5C 52.1667,115.5 52.8333,115.5 53.5,115.5C 53.3893,116.117 53.056,116.617 52.5,117C 53.7287,118.529 55.2287,119.696 57,120.5C 57.4828,119.552 57.6495,118.552 57.5,117.5C 58.1667,115.5 58.8333,113.5 59.5,111.5 Z"/></g>
<g><path style="opacity:0.922" fill="#393939" d="M 42.5,104.5 C 42.5,105.5 42.5,106.5 42.5,107.5C 44.1667,107.5 45.8333,107.5 47.5,107.5C 47.6655,111.514 47.4988,115.514 47,119.5C 45.5949,116.381 45.0949,113.048 45.5,109.5C 44.5,109.5 43.5,109.5 42.5,109.5C 42.665,112.85 42.4983,116.183 42,119.5C 40.1767,114.933 40.0101,110.266 41.5,105.5C 41.5,104.833 41.8333,104.5 42.5,104.5 Z"/></g>
<g><path style="opacity:0.69" fill="#555555" d="M 89.5,109.5 C 89.3253,111.621 89.6586,113.621 90.5,115.5C 90.5,116.833 90.5,118.167 90.5,119.5C 90.1667,119.5 89.8333,119.5 89.5,119.5C 88.5655,118.432 88.2322,117.099 88.5,115.5C 77.8333,114.833 77.8333,114.167 88.5,113.5C 88.2322,111.901 88.5655,110.568 89.5,109.5 Z"/></g>
<g><path style="opacity:0.639" fill="#454545" d="M 139.5,113.5 C 139.833,114.833 140.167,114.833 140.5,113.5C 151.167,114.167 151.167,114.833 140.5,115.5C 140.5,117.167 140.5,118.833 140.5,120.5C 139.833,120.5 139.167,120.5 138.5,120.5C 138.286,118.856 138.62,117.356 139.5,116C 135.544,114.886 135.544,114.053 139.5,113.5 Z"/></g>
<g><path style="opacity:0.847" fill="#3e3e3e" d="M 155.5,113.5 C 159.35,113.701 160.35,115.534 158.5,119C 153.676,119.183 152.676,117.35 155.5,113.5 Z M 157.5,115.5 C 158.043,115.56 158.376,115.893 158.5,116.5C 157.635,117.583 156.635,117.749 155.5,117C 156.416,116.722 157.082,116.222 157.5,115.5 Z"/></g>
<g><path style="opacity:0.478" fill="#404040" d="M 125.5,125.5 C 125.167,126.833 124.833,126.833 124.5,125.5C 124.5,119.5 124.5,113.5 124.5,107.5C 123.5,107.5 122.5,107.5 121.5,107.5C 121.5,111.167 121.5,114.833 121.5,118.5C 120.833,118.833 120.167,119.167 119.5,119.5C 119.5,118.167 119.5,116.833 119.5,115.5C 118.5,115.5 117.5,115.5 116.5,115.5C 116.5,114.833 116.5,114.167 116.5,113.5C 117.5,113.5 118.5,113.5 119.5,113.5C 119.5,110.833 119.5,108.167 119.5,105.5C 121.5,105.5 123.5,105.5 125.5,105.5C 125.5,112.167 125.5,118.833 125.5,125.5 Z"/></g>
<g><path style="opacity:0.892" fill="#333333" d="M 178.5,113.5 C 180.402,116.337 181.069,119.671 180.5,123.5C 184.182,123.335 187.848,123.501 191.5,124C 187.5,124.667 183.5,124.667 179.5,124C 178.544,120.606 178.211,117.106 178.5,113.5 Z"/></g>
<g><path style="opacity:0.863" fill="#323232" d="M 183.5,118.5 C 183.369,117.624 183.702,116.957 184.5,116.5C 185.641,118.421 185.808,120.421 185,122.5C 184.79,120.942 184.29,119.609 183.5,118.5 Z"/></g>
<g><path style="opacity:0.267" fill="#444444" d="M 183.5,118.5 C 183.762,119.978 183.429,121.311 182.5,122.5C 182.167,121.833 181.833,121.167 181.5,120.5C 181.747,119.287 182.414,118.62 183.5,118.5 Z"/></g>
<g><path style="opacity:0.429" fill="#414141" d="M 188.5,114.5 C 190.369,116.635 191.036,119.302 190.5,122.5C 189.167,122.5 187.833,122.5 186.5,122.5C 186.693,119.692 187.36,117.025 188.5,114.5 Z"/></g>
<g><path style="opacity:0.881" fill="#393939" d="M 20.5,119.5 C 20.5,125.167 20.5,130.833 20.5,136.5C 20.5,137.167 20.5,137.833 20.5,138.5C 19.8826,138.611 19.3826,138.944 19,139.5C 18.5012,135.514 18.3345,131.514 18.5,127.5C 19.1667,124.833 19.8333,122.167 20.5,119.5 Z"/></g>
<g><path style="opacity:0.322" fill="#3c3c3c" d="M 72.5,117.5 C 74.3716,118.511 76.3716,119.345 78.5,120C 77.1341,121.6 76.1341,123.433 75.5,125.5C 73.7648,124.943 72.0982,124.61 70.5,124.5C 71.4709,123.038 71.1376,121.705 69.5,120.5C 70.9935,119.859 71.9935,118.859 72.5,117.5 Z M 72.5,120.5 C 74.337,120.639 74.6704,121.306 73.5,122.5C 72.7025,122.043 72.3691,121.376 72.5,120.5 Z"/></g>
<g><path style="opacity:0.405" fill="#3a3a3a" d="M 89.5,119.5 C 89.8333,119.5 90.1667,119.5 90.5,119.5C 92.6676,128.333 98.0009,134.333 106.5,137.5C 106.5,138.167 106.167,138.5 105.5,138.5C 96.5372,135.205 91.2039,128.872 89.5,119.5 Z"/></g>
<g><path style="opacity:0.498" fill="#333333" d="M 30.5,101.5 C 31.1667,101.5 31.5,101.833 31.5,102.5C 24.0369,111.797 25.7036,119.13 36.5,124.5C 36.5,125.167 36.1667,125.5 35.5,125.5C 28.8182,123.844 25.1515,119.511 24.5,112.5C 25.2253,108.043 27.2253,104.376 30.5,101.5 Z"/></g>
<g><path style="opacity:0.855" fill="#3b3b3b" d="M 204.5,121.5 C 209.566,123.939 209.732,126.606 205,129.5C 200.578,127.105 200.412,124.438 204.5,121.5 Z M 204.5,123.5 C 207.14,124.794 207.14,126.127 204.5,127.5C 203.374,126.192 203.374,124.858 204.5,123.5 Z"/></g>
<g><path style="opacity:0.827" fill="#3d3d3d" d="M 50.5,118.5 C 51.4916,118.328 52.1583,118.662 52.5,119.5C 50.8333,120.5 49.5,121.833 48.5,123.5C 48.5,123.833 48.5,124.167 48.5,124.5C 45.3669,125.265 42.2003,125.932 39,126.5C 37.6153,126.486 36.4486,126.152 35.5,125.5C 36.1667,125.5 36.5,125.167 36.5,124.5C 42.4081,125.209 47.0747,123.209 50.5,118.5 Z"/></g>
<g><path style="opacity:0.761" fill="#393938" d="M 52.5,122.5 C 52.8333,122.5 53.1667,122.5 53.5,122.5C 53.0472,123.458 52.3805,124.292 51.5,125C 54.8333,127.667 58.1667,130.333 61.5,133C 62.7932,133.49 64.1266,133.657 65.5,133.5C 65.5,132.167 65.5,130.833 65.5,129.5C 66.1667,129.5 66.5,129.167 66.5,128.5C 68.3324,131.954 67.3324,134.287 63.5,135.5C 61.9707,135.471 60.804,134.804 60,133.5C 59.51,134.793 59.3433,136.127 59.5,137.5C 58.8333,136.5 58.1667,135.5 57.5,134.5C 57.6495,133.448 57.4828,132.448 57,131.5C 53.9772,129.302 51.1438,126.969 48.5,124.5C 48.5,124.167 48.5,123.833 48.5,123.5C 49.9587,123.567 51.2921,123.234 52.5,122.5 Z"/></g>
<g><path style="opacity:0.522" fill="#434343" d="M 91.5,133.5 C 90.8333,133.5 90.5,133.833 90.5,134.5C 85.9164,129.681 83.9164,124.015 84.5,117.5C 85.7569,123.343 88.0903,128.677 91.5,133.5 Z"/></g>
<g><path style="opacity:0.718" fill="#424242" d="M 106.5,118.5 C 107.492,118.328 108.158,118.662 108.5,119.5C 107.539,121.265 107.205,123.265 107.5,125.5C 105.833,126.167 104.167,126.833 102.5,127.5C 101.883,127.389 101.383,127.056 101,126.5C 100.168,118.147 100.335,109.813 101.5,101.5C 102.498,109.472 102.831,117.472 102.5,125.5C 103.5,125.5 104.5,125.5 105.5,125.5C 105.198,122.941 105.532,120.607 106.5,118.5 Z"/></g>
<g><path style="opacity:0.475" fill="#464847" d="M 116.5,110.5 C 116.5,111.5 116.5,112.5 116.5,113.5C 116.5,114.167 116.5,114.833 116.5,115.5C 115.931,119.329 116.598,122.663 118.5,125.5C 118.167,126.167 117.833,126.833 117.5,127.5C 112.5,127.5 107.5,127.5 102.5,127.5C 104.167,126.833 105.833,126.167 107.5,125.5C 108.5,125.5 109.5,125.5 110.5,125.5C 111.167,125.5 111.833,125.5 112.5,125.5C 114.414,122.316 115.08,118.649 114.5,114.5C 115.167,113.167 115.833,111.833 116.5,110.5 Z"/></g>
<g><path style="opacity:0.263" fill="#404040" d="M 163.5,122.5 C 169.555,121.942 170.888,124.109 167.5,129C 162.795,129.106 161.462,126.939 163.5,122.5 Z M 164.5,124.5 C 165.5,124.5 166.5,124.5 167.5,124.5C 166.754,128.31 165.754,128.31 164.5,124.5 Z"/></g>
<g><path style="opacity:0.235" fill="#505050" d="M 121.5,118.5 C 121.5,120.833 121.5,123.167 121.5,125.5C 122.5,125.5 123.5,125.5 124.5,125.5C 124.833,126.833 125.167,126.833 125.5,125.5C 126.978,125.238 128.311,125.571 129.5,126.5C 125.555,127.491 121.555,127.824 117.5,127.5C 117.833,126.833 118.167,126.167 118.5,125.5C 119.461,123.735 119.795,121.735 119.5,119.5C 120.167,119.167 120.833,118.833 121.5,118.5 Z"/></g>
<g><path style="opacity:0.357" fill="#3e3e3e" d="M 174.5,123.5 C 175.309,125.013 175.476,126.68 175,128.5C 176.194,127.57 177.527,126.903 179,126.5C 184.007,127.348 188.84,127.681 193.5,127.5C 193.5,127.833 193.5,128.167 193.5,128.5C 188.664,129.734 183.831,129.734 179,128.5C 176.845,129.244 174.845,130.244 173,131.5C 172.5,131.167 172,130.833 171.5,130.5C 172.372,128.55 173.039,126.55 173.5,124.5C 174.167,124.5 174.5,124.167 174.5,123.5 Z"/></g>
<g><path style="opacity:0.772" fill="#333233" d="M 198.5,117.5 C 198.833,117.5 199.167,117.5 199.5,117.5C 200.043,117.56 200.376,117.893 200.5,118.5C 197.399,122.563 197.065,126.73 199.5,131C 197.021,131.362 195.021,130.529 193.5,128.5C 193.5,128.167 193.5,127.833 193.5,127.5C 196.505,129.026 197.172,128.193 195.5,125C 197.193,122.78 198.193,120.28 198.5,117.5 Z"/></g>
<g><path style="opacity:0.776" fill="#3e3e3e" d="M 144.5,118.5 C 145.379,123.422 144.212,128.089 141,132.5C 136.234,138.795 130.068,142.962 122.5,145C 120.741,145.798 119.074,145.631 117.5,144.5C 132.454,141.877 141.454,133.21 144.5,118.5 Z"/></g>
<g><path style="opacity:0.043" fill="#494949" d="M 155.5,129.5 C 157.078,130.066 158.412,131.066 159.5,132.5C 158.354,133.719 157.354,135.052 156.5,136.5C 155.614,135.675 155.281,134.675 155.5,133.5C 154.178,133.33 153.011,133.663 152,134.5C 151.517,133.552 151.351,132.552 151.5,131.5C 153.483,131.843 154.817,131.176 155.5,129.5 Z"/></g>
<g><path style="opacity:0.604" fill="#3d3d3d" d="M 71.5,130.5 C 73.9477,130.085 75.2811,131.085 75.5,133.5C 73.5512,137.466 71.5512,137.466 69.5,133.5C 70.1925,132.482 70.8592,131.482 71.5,130.5 Z M 71.5,132.5 C 73.337,132.639 73.6704,133.306 72.5,134.5C 71.7025,134.043 71.3691,133.376 71.5,132.5 Z"/></g>
<g><path style="opacity:0.383" fill="#393939" d="M 138.5,120.5 C 139.167,120.5 139.833,120.5 140.5,120.5C 138.203,129.795 132.536,135.795 123.5,138.5C 123.5,138.167 123.5,137.833 123.5,137.5C 130.928,134.066 135.928,128.4 138.5,120.5 Z"/></g>
<g><path style="opacity:0.491" fill="#4b4b4b" d="M 169.5,132.5 C 168.833,132.5 168.5,132.833 168.5,133.5C 167.292,132.766 165.959,132.433 164.5,132.5C 164.5,137.167 164.5,141.833 164.5,146.5C 164.167,146.5 163.833,146.5 163.5,146.5C 162.352,142.019 162.185,137.352 163,132.5C 165.226,129.919 167.392,129.919 169.5,132.5 Z"/></g>
<g><path style="opacity:0.8" fill="#3e3d3e" d="M 176.5,136.5 C 183.175,136.334 189.842,136.5 196.5,137C 197.916,138.915 197.582,140.415 195.5,141.5C 195.5,140.833 195.5,140.167 195.5,139.5C 193.052,138.527 190.385,138.194 187.5,138.5C 183.833,137.833 180.167,137.167 176.5,136.5 Z"/></g>
<g><path style="opacity:0.786" fill="#525252" d="M 57.5,134.5 C 58.1667,135.5 58.8333,136.5 59.5,137.5C 48.2652,138.187 36.9318,138.853 25.5,139.5C 24.0813,138.549 22.4147,138.216 20.5,138.5C 20.5,137.833 20.5,137.167 20.5,136.5C 33.212,137.146 45.5453,136.48 57.5,134.5 Z"/></g>
<g><path style="opacity:0.135" fill="#4d4d4b" d="M 176.5,136.5 C 180.167,137.167 183.833,137.833 187.5,138.5C 183.486,138.334 179.486,138.501 175.5,139C 178.226,139.182 180.893,139.682 183.5,140.5C 184.246,141.736 184.579,143.07 184.5,144.5C 183.778,144.082 183.278,143.416 183,142.5C 182.601,142.728 182.435,143.062 182.5,143.5C 179.919,141.996 177.086,140.996 174,140.5C 173.09,138.055 173.924,136.722 176.5,136.5 Z"/></g>
<g><path style="opacity:0.004" fill="#000000" d="M 209.5,137.5 C 210.833,138.167 210.833,138.167 209.5,137.5 Z"/></g>
<g><path style="opacity:0.631" fill="#454545" d="M 123.5,137.5 C 123.5,137.833 123.5,138.167 123.5,138.5C 121.162,140.04 118.495,140.706 115.5,140.5C 114.833,151.167 114.167,151.167 113.5,140.5C 110.505,140.706 107.838,140.04 105.5,138.5C 106.167,138.5 106.5,138.167 106.5,137.5C 112.055,136.612 117.722,136.612 123.5,137.5 Z"/></g>
<g><path style="opacity:0.027" fill="#484948" d="M 25.5,139.5 C 24.8333,140.167 24.8333,140.167 25.5,139.5 Z"/></g>
<g><path style="opacity:0.599" fill="#363636" d="M 91.5,133.5 C 96.96,139.233 103.627,142.899 111.5,144.5C 102.924,144.714 95.9243,141.381 90.5,134.5C 90.5,133.833 90.8333,133.5 91.5,133.5 Z"/></g>
<g><path style="opacity:0.78" fill="#464646" d="M 154.5,144.5 C 153.833,144.167 153.167,143.833 152.5,143.5C 150.901,143.232 149.568,143.566 148.5,144.5C 148.5,144.833 148.5,145.167 148.5,145.5C 147.5,144.167 146.5,142.833 145.5,141.5C 145.906,139.891 145.906,138.557 145.5,137.5C 144.571,138.689 144.238,140.022 144.5,141.5C 143.395,142.6 142.062,143.267 140.5,143.5C 139.833,143.167 139.167,142.833 138.5,142.5C 137.833,142.5 137.167,142.5 136.5,142.5C 135.833,142.5 135.167,142.5 134.5,142.5C 137.028,141.834 139.694,141.168 142.5,140.5C 143.309,138.929 143.643,137.262 143.5,135.5C 145.541,135.854 147.374,135.854 149,135.5C 148.865,137.425 148.698,139.425 148.5,141.5C 150.199,141.34 151.866,141.506 153.5,142C 154.252,142.671 154.586,143.504 154.5,144.5 Z M 145.5,141.5 C 145.167,141.5 144.833,141.5 144.5,141.5C 144.238,140.022 144.571,138.689 145.5,137.5C 145.906,138.557 145.906,139.891 145.5,141.5 Z"/></g>
<g><path style="opacity:0.004" fill="#000000" d="M 149.5,139.5 C 150.833,140.167 150.833,140.167 149.5,139.5 Z"/></g>
<g><path style="opacity:0.796" fill="#3b3b3b" d="M 208.5,134.5 C 207.833,134.5 207.167,134.5 206.5,134.5C 206.179,132.952 205.179,132.285 203.5,132.5C 203.054,135.01 203.72,137.01 205.5,138.5C 203.576,140.09 203.243,141.924 204.5,144C 199.905,144.32 199.571,145.154 203.5,146.5C 204.167,147.167 204.833,147.833 205.5,148.5C 202.833,149.833 200.167,149.833 197.5,148.5C 197.202,151.265 196.202,153.765 194.5,156C 192.393,156.854 191.059,156.188 190.5,154C 191.47,150.756 192.637,147.59 194,144.5C 196.405,143.726 198.905,143.226 201.5,143C 199.071,142.549 198.904,141.715 201,140.5C 201.333,137.5 201.667,134.5 202,131.5C 205.448,129.736 207.615,130.736 208.5,134.5 Z M 196.5,144.5 C 200.335,145.004 200.335,146.004 196.5,147.5C 195.806,150.088 194.64,152.421 193,154.5C 193.26,150.889 194.426,147.556 196.5,144.5 Z"/></g>
<g><path style="opacity:0.635" fill="#3e3e3e" d="M 82.5,141.5 C 81.5028,141.53 80.8361,141.03 80.5,140C 80.8623,138.775 81.3623,137.609 82,136.5C 82.3333,136.833 82.6667,137.167 83,137.5C 83.3076,136.692 83.8076,136.025 84.5,135.5C 85.1023,137.756 86.1023,138.922 87.5,139C 86.7107,139.546 85.7107,140.213 84.5,141C 84.8333,141.333 85.1667,141.667 85.5,142C 84.2506,142.74 83.2506,142.573 82.5,141.5 Z M 83.5,139.5 C 83.6716,140.492 83.3382,141.158 82.5,141.5C 80.9689,140.075 81.3023,139.409 83.5,139.5 Z"/></g>
<g><path style="opacity:0.284" fill="#464646" d="M 206.5,134.5 C 207.167,134.5 207.833,134.5 208.5,134.5C 209.11,135.391 209.443,136.391 209.5,137.5C 208.287,138.952 208.62,140.286 210.5,141.5C 210.154,142.696 209.654,142.696 209,141.5C 208.506,143.134 208.34,144.801 208.5,146.5C 207.778,147.551 206.778,148.218 205.5,148.5C 204.833,147.833 204.167,147.167 203.5,146.5C 204.397,145.402 205.23,145.402 206,146.5C 206.314,143.458 206.147,140.791 205.5,138.5C 206.234,137.292 206.567,135.959 206.5,134.5 Z"/></g>
<g><path style="opacity:0.304" fill="#484848" d="M 44.5,146.5 C 43.8333,145.167 43.1667,145.167 42.5,146.5C 38.5,145.833 38.5,145.167 42.5,144.5C 42.3505,143.448 42.5172,142.448 43,141.5C 44.1667,143.333 45.6667,144.833 47.5,146C 46.552,146.483 45.552,146.649 44.5,146.5 Z"/></g>
<g><path style="opacity:0.93" fill="#343434" d="M 78.5,144.5 C 77.8333,144.167 77.1667,143.833 76.5,143.5C 68.5,143.5 60.5,143.5 52.5,143.5C 52.5,143.167 52.5,142.833 52.5,142.5C 59.5678,141.818 66.7345,141.151 74,140.5C 76.1184,141.283 77.6184,142.616 78.5,144.5 Z"/></g>
<g><path style="opacity:0.837" fill="#403f3f" d="M 152.5,143.5 C 153.167,143.833 153.833,144.167 154.5,144.5C 155.478,144.811 156.145,145.478 156.5,146.5C 156.006,148.026 155.339,149.359 154.5,150.5C 153.833,150.5 153.5,150.167 153.5,149.5C 146.806,147.824 147.14,146.658 154.5,146C 152.527,145.505 150.527,145.338 148.5,145.5C 148.5,145.167 148.5,144.833 148.5,144.5C 150.099,144.768 151.432,144.434 152.5,143.5 Z"/></g>
<g><path style="opacity:0.012" fill="#545554" d="M 208.5,146.5 C 209.833,147.167 209.833,147.167 208.5,146.5 Z"/></g>
<g><path style="opacity:0.453" fill="#474747" d="M 42.5,146.5 C 43.1667,146.5 43.8333,146.5 44.5,146.5C 43.8333,150.5 43.1667,150.5 42.5,146.5 Z"/></g>
<g><path style="opacity:0.332" fill="#4e4e4e" d="M 138.5,142.5 C 139.167,142.833 139.833,143.167 140.5,143.5C 140.5,146.5 140.5,149.5 140.5,152.5C 139.833,152.5 139.5,152.833 139.5,153.5C 139.158,154.338 138.492,154.672 137.5,154.5C 137.5,153.833 137.5,153.167 137.5,152.5C 137.5,152.167 137.5,151.833 137.5,151.5C 138.833,151.167 138.833,150.833 137.5,150.5C 137.5,149.833 137.167,149.5 136.5,149.5C 135.167,149.167 135.167,148.833 136.5,148.5C 137.239,148.631 137.906,148.464 138.5,148C 138.146,146.374 138.146,144.541 138.5,142.5 Z"/></g>
<g><path style="opacity:0.361" fill="#535353" d="M 134.5,142.5 C 135.167,142.5 135.833,142.5 136.5,142.5C 136.5,144.5 136.5,146.5 136.5,148.5C 135.167,148.833 135.167,149.167 136.5,149.5C 137.167,149.5 137.5,149.833 137.5,150.5C 137.5,150.833 137.5,151.167 137.5,151.5C 136.167,151.833 136.167,152.167 137.5,152.5C 137.5,153.167 137.5,153.833 137.5,154.5C 136.833,154.5 136.167,154.5 135.5,154.5C 135.167,153.167 134.833,153.167 134.5,154.5C 134.115,150.707 134.115,146.707 134.5,142.5 Z"/></g>
<g><path style="opacity:0.792" fill="#454545" d="M 75.5,159.5 C 74.8333,159.833 74.1667,160.167 73.5,160.5C 73.5,156.833 73.5,153.167 73.5,149.5C 67.31,149.177 61.31,149.51 55.5,150.5C 54.8333,150.167 54.1667,149.833 53.5,149.5C 60.4238,147.537 67.7572,146.87 75.5,147.5C 75.5,151.5 75.5,155.5 75.5,159.5 Z"/></g>
<g><path style="opacity:0.359" fill="#353535" d="M 169.5,132.5 C 169.5,136.167 169.5,139.833 169.5,143.5C 172.119,143.232 174.619,143.565 177,144.5C 178.363,147.59 179.53,150.756 180.5,154C 179.085,157.086 177.419,157.253 175.5,154.5C 175.5,153.833 175.833,153.5 176.5,153.5C 177.363,154.463 178.03,154.463 178.5,153.5C 177.638,150.401 176.305,147.567 174.5,145C 172.527,144.505 170.527,144.338 168.5,144.5C 168.5,140.833 168.5,137.167 168.5,133.5C 168.5,132.833 168.833,132.5 169.5,132.5 Z"/></g>
<g><path style="opacity:0.482" fill="#454545" d="M 195.5,139.5 C 195.5,140.167 195.5,140.833 195.5,141.5C 193.167,141.5 190.833,141.5 188.5,141.5C 188.5,146.167 188.5,150.833 188.5,155.5C 187.833,154.833 187.167,154.167 186.5,153.5C 186.54,148.807 186.873,144.141 187.5,139.5C 190.167,139.5 192.833,139.5 195.5,139.5 Z"/></g>
<g><path style="opacity:0.24" fill="#515151" d="M 53.5,149.5 C 54.1667,149.833 54.8333,150.167 55.5,150.5C 55.1795,155.695 55.5128,160.695 56.5,165.5C 56.1667,166.5 55.5,167.167 54.5,167.5C 53.5447,161.591 53.2114,155.591 53.5,149.5 Z"/></g>
<g><path style="opacity:0.497" fill="#424141" d="M 105.5,152.5 C 104.833,152.5 104.5,152.833 104.5,153.5C 101.342,153.306 99.6755,151.973 99.5,149.5C 97.9081,151.562 96.0748,151.895 94,150.5C 92.4615,151.546 92.2948,152.879 93.5,154.5C 93.2528,155.713 92.5862,156.38 91.5,156.5C 91.5,156.167 91.5,155.833 91.5,155.5C 89.5459,152.41 90.2126,150.077 93.5,148.5C 95.6511,149.659 97.6511,149.326 99.5,147.5C 101.721,148.116 102.388,149.283 101.5,151C 103.058,151.21 104.391,151.71 105.5,152.5 Z"/></g>
<g><path style="opacity:0.698" fill="#434343" d="M 163.5,146.5 C 163.833,146.5 164.167,146.5 164.5,146.5C 167.898,146.18 171.232,146.513 174.5,147.5C 175.372,149.45 176.039,151.45 176.5,153.5C 175.833,153.5 175.5,153.833 175.5,154.5C 174.262,152.786 173.595,150.786 173.5,148.5C 169.671,149.069 166.337,148.402 163.5,146.5 Z"/></g>
<g><path style="opacity:0.439" fill="#464646" d="M 184.5,144.5 C 184.18,147.898 184.513,151.232 185.5,154.5C 186.107,154.376 186.44,154.043 186.5,153.5C 187.167,154.167 187.833,154.833 188.5,155.5C 186.735,156.461 184.735,156.795 182.5,156.5C 182.5,152.167 182.5,147.833 182.5,143.5C 182.435,143.062 182.601,142.728 183,142.5C 183.278,143.416 183.778,144.082 184.5,144.5 Z"/></g>
<g><path style="opacity:0.253" fill="#423f41" d="M 28.5,148.5 C 30.0145,149.68 31.6812,150.68 33.5,151.5C 31.7299,152.82 31.3966,154.32 32.5,156C 30.6874,155.954 29.0207,156.12 27.5,156.5C 26.5444,155.135 25.8777,153.635 25.5,152C 26.5442,150.826 27.5442,149.659 28.5,148.5 Z"/></g>
<g><path style="opacity:0.055" fill="#454445" d="M 153.5,149.5 C 153.5,150.167 153.833,150.5 154.5,150.5C 154.056,152.113 153.056,153.28 151.5,154C 147.507,154.17 143.507,154.004 139.5,153.5C 139.5,152.833 139.833,152.5 140.5,152.5C 144.182,152.665 147.848,152.499 151.5,152C 150.062,151.781 148.729,151.281 147.5,150.5C 149.396,149.534 151.396,149.201 153.5,149.5 Z"/></g>
<g><path style="opacity:0.043" fill="#5c5d5c" d="M 134.5,154.5 C 134.833,154.5 135.167,154.5 135.5,154.5C 135.5,154.833 135.5,155.167 135.5,155.5C 135.167,155.167 134.833,154.833 134.5,154.5 Z"/></g>
<g><path style="opacity:0.462" fill="#565656" d="M 52.5,142.5 C 52.5,142.833 52.5,143.167 52.5,143.5C 52.5,151.5 52.5,159.5 52.5,167.5C 52.6716,168.492 52.3382,169.158 51.5,169.5C 50.3643,160.912 50.1977,152.245 51,143.5C 51.3826,142.944 51.8826,142.611 52.5,142.5 Z"/></g>
<g><path style="opacity:0.529" fill="#393938" d="M 105.5,152.5 C 106.749,154.829 106.082,156.662 103.5,158C 104.517,159.049 104.684,160.216 104,161.5C 102.081,162.074 100.247,162.407 98.5,162.5C 98.1667,162.5 97.8333,162.5 97.5,162.5C 98.4551,160.29 99.9551,159.957 102,161.5C 102.579,160.072 102.412,158.738 101.5,157.5C 102.878,156.455 103.878,155.122 104.5,153.5C 104.5,152.833 104.833,152.5 105.5,152.5 Z"/></g>
<g><path style="opacity:0.02" fill="#656665" d="M 135.5,155.5 C 136.833,156.167 136.833,156.167 135.5,155.5 Z"/></g>
<g><path style="opacity:0.323" fill="#333333" d="M 76.5,143.5 C 77.1667,143.833 77.8333,144.167 78.5,144.5C 79.3636,150.401 79.3636,156.401 78.5,162.5C 78.1667,162.5 77.8333,162.5 77.5,162.5C 76.5098,156.355 76.1765,150.022 76.5,143.5 Z"/></g>
<g><path style="opacity:0.516" fill="#444241" d="M 101.5,157.5 C 99.8583,159.081 97.8583,159.747 95.5,159.5C 95.5,158.833 95.1667,158.5 94.5,158.5C 93.9421,152.445 96.1088,151.112 101,154.5C 101.483,155.448 101.649,156.448 101.5,157.5 Z M 96.5,154.5 C 97.5,154.5 98.5,154.5 99.5,154.5C 99.5,155.5 99.5,156.5 99.5,157.5C 98.5,157.5 97.5,157.5 96.5,157.5C 96.5,156.5 96.5,155.5 96.5,154.5 Z"/></g>
<g><path style="opacity:0.743" fill="#363636" d="M 79.5,164.5 C 78.4937,164.062 78.4937,163.396 79.5,162.5C 80.29,161.391 80.79,160.058 81,158.5C 82.6667,157.167 84.3333,157.167 86,158.5C 89.8572,164.644 88.5238,165.977 82,162.5C 81.2917,163.381 80.4584,164.047 79.5,164.5 Z M 82.5,159.5 C 85.7973,159.329 86.1306,159.995 83.5,161.5C 82.7025,161.043 82.3691,160.376 82.5,159.5 Z"/></g>
<g><path style="opacity:0.799" fill="#3e3e3e" d="M 148.5,159.5 C 155.982,158.508 163.648,158.175 171.5,158.5C 167.167,159.167 162.833,159.833 158.5,160.5C 155.5,160.5 152.5,160.5 149.5,160.5C 149.5,159.833 149.167,159.5 148.5,159.5 Z"/></g>
<g><path style="opacity:0.816" fill="#3c3c3c" d="M 91.5,155.5 C 91.5,155.833 91.5,156.167 91.5,156.5C 91.8212,158.048 92.8212,158.715 94.5,158.5C 95.1667,158.5 95.5,158.833 95.5,159.5C 95.2852,161.179 95.9519,162.179 97.5,162.5C 97.8333,162.5 98.1667,162.5 98.5,162.5C 98.189,163.478 97.5223,164.145 96.5,164.5C 94.4501,163.923 93.4501,162.59 93.5,160.5C 91.0523,160.915 89.7189,159.915 89.5,157.5C 89.7472,156.287 90.4138,155.62 91.5,155.5 Z"/></g>
<g><path style="opacity:0.29" fill="#3f3f3f" d="M 122.5,153.5 C 123.94,154.363 125.274,154.363 126.5,153.5C 127.23,154.934 128.23,156.1 129.5,157C 128.228,158.307 127.228,159.807 126.5,161.5C 125.28,160.289 124.113,160.289 123,161.5C 122.56,159.924 121.727,158.59 120.5,157.5C 121.63,156.378 122.297,155.044 122.5,153.5 Z M 123.5,155.5 C 126.674,155.952 127.007,156.952 124.5,158.5C 123.614,157.675 123.281,156.675 123.5,155.5 Z"/></g>
<g><path style="opacity:0.516" fill="#424242" d="M 37.5,157.5 C 43.1755,157.86 43.8421,159.86 39.5,163.5C 36.6095,162.163 35.9428,160.163 37.5,157.5 Z M 38.5,159.5 C 40.337,159.639 40.6704,160.306 39.5,161.5C 38.7025,161.043 38.3691,160.376 38.5,159.5 Z"/></g>
<g><path style="opacity:0.551" fill="#474747" d="M 171.5,158.5 C 174.518,158.335 177.518,158.502 180.5,159C 181.056,159.383 181.389,159.883 181.5,160.5C 181.81,163.713 181.477,166.713 180.5,169.5C 180.5,166.5 180.5,163.5 180.5,160.5C 173.167,160.5 165.833,160.5 158.5,160.5C 162.833,159.833 167.167,159.167 171.5,158.5 Z"/></g>
<g><path style="opacity:0.871" fill="#323132" d="M 167.5,176.5 C 167.5,175.833 167.5,175.167 167.5,174.5C 169.685,166.854 167.019,164.021 159.5,166C 158.695,167.113 158.028,168.279 157.5,169.5C 156.662,169.158 156.328,168.492 156.5,167.5C 157.024,164.812 158.691,163.312 161.5,163C 169.171,163.144 171.837,166.978 169.5,174.5C 173.718,181.216 173.051,181.882 167.5,176.5 Z"/></g>
<g><path style="opacity:0.523" fill="#403e3f" d="M 185.5,160.5 C 186.802,161.807 188.135,161.807 189.5,160.5C 192.167,163.167 192.167,165.833 189.5,168.5C 188.28,167.289 187.113,167.289 186,168.5C 185.56,166.924 184.727,165.59 183.5,164.5C 184.853,163.476 185.52,162.143 185.5,160.5 Z M 186.5,163.5 C 188.983,163.73 189.483,164.397 188,165.5C 186.97,165.164 186.47,164.497 186.5,163.5 Z"/></g>
<g><path style="opacity:0.471" fill="#434343" d="M 65.5,166.5 C 64.8333,166.5 64.5,166.833 64.5,167.5C 62.283,166.631 59.9496,166.298 57.5,166.5C 57.5,166.167 57.5,165.833 57.5,165.5C 58.5981,164.603 58.5981,163.77 57.5,163C 59.5161,159.985 61.6828,159.818 64,162.5C 64.6172,163.449 64.4506,164.282 63.5,165C 64.4158,165.278 65.0825,165.778 65.5,166.5 Z M 60.5,162.5 C 62.337,162.639 62.6704,163.306 61.5,164.5C 60.7025,164.043 60.3691,163.376 60.5,162.5 Z"/></g>
<g><path style="opacity:0.974" fill="#1c1c1c" d="M 106.5,163.5 C 106.833,163.5 107.167,163.5 107.5,163.5C 107.5,170.167 107.5,176.833 107.5,183.5C 107.5,184.167 107.5,184.833 107.5,185.5C 106.136,187.191 104.803,188.858 103.5,190.5C 102.833,190.5 102.5,190.167 102.5,189.5C 103.341,188.074 104.341,186.74 105.5,185.5C 106.464,178.254 106.797,170.92 106.5,163.5 Z"/></g>
<g><path style="opacity:0.942" fill="#303131" d="M 148.5,159.5 C 149.167,159.5 149.5,159.833 149.5,160.5C 149.331,165.986 149.331,171.653 149.5,177.5C 147.98,179.588 146.98,181.922 146.5,184.5C 146.334,176.826 146.5,169.159 147,161.5C 147.278,160.584 147.778,159.918 148.5,159.5 Z"/></g>
<g><path style="opacity:0.655" fill="#464646" d="M 138.5,166.5 C 138.5,167.167 138.5,167.833 138.5,168.5C 134.5,167.833 134.5,167.167 138.5,166.5 Z"/></g>
<g><path style="opacity:0.286" fill="#404040" d="M 138.5,168.5 C 139.833,167.833 139.833,167.167 138.5,166.5C 138.351,165.448 138.517,164.448 139,163.5C 139.98,164.981 141.147,166.315 142.5,167.5C 141.5,168.5 140.5,169.5 139.5,170.5C 138.702,170.043 138.369,169.376 138.5,168.5 Z"/></g>
<g><path style="opacity:0.271" fill="#4b4b4b" d="M 54.5,168.5 C 55.4227,172.064 55.756,175.731 55.5,179.5C 56.5,179.5 57.5,179.5 58.5,179.5C 57.8333,180.167 57.1667,180.833 56.5,181.5C 55.5,181.5 54.5,181.5 53.5,181.5C 53.5,177.833 53.5,174.167 53.5,170.5C 53.3284,169.508 53.6618,168.842 54.5,168.5 Z"/></g>
<g><path style="opacity:0.082" fill="#252525" d="M 159.5,169.5 C 160.586,169.62 161.253,170.287 161.5,171.5C 161.167,172.167 160.833,172.833 160.5,173.5C 159.571,172.311 159.238,170.978 159.5,169.5 Z"/></g>
<g><path style="opacity:0.851" fill="#3d3d3d" d="M 56.5,165.5 C 56.8333,165.5 57.1667,165.5 57.5,165.5C 57.5,165.833 57.5,166.167 57.5,166.5C 57.0269,167.906 56.0269,168.573 54.5,168.5C 53.6618,168.842 53.3284,169.508 53.5,170.5C 51.3023,170.409 50.9689,171.075 52.5,172.5C 51.8333,172.5 51.1667,172.5 50.5,172.5C 48.955,173.23 48.1216,174.563 48,176.5C 46.3333,177.833 44.6667,177.833 43,176.5C 42.654,174.782 42.154,173.115 41.5,171.5C 44.9088,172.019 48.2422,171.352 51.5,169.5C 52.3382,169.158 52.6716,168.492 52.5,167.5C 53.1667,167.5 53.8333,167.5 54.5,167.5C 55.5,167.167 56.1667,166.5 56.5,165.5 Z M 44.5,173.5 C 46.337,173.639 46.6704,174.306 45.5,175.5C 44.7025,175.043 44.3691,174.376 44.5,173.5 Z"/></g>
<g><path style="opacity:0.341" fill="#3a3a3a" d="M 89.5,168.5 C 90.8721,170.089 92.5388,171.422 94.5,172.5C 92.9618,174.119 92.1284,175.786 92,177.5C 90.4675,176.305 88.9675,176.305 87.5,177.5C 86.6816,175.892 86.0149,174.225 85.5,172.5C 87.4206,171.676 88.754,170.343 89.5,168.5 Z M 89.5,171.5 C 92.1247,172.466 92.1247,173.466 89.5,174.5C 88.4376,173.575 88.4376,172.575 89.5,171.5 Z"/></g>
<g><path style="opacity:0.443" fill="#424242" d="M 162.5,166.5 C 165.543,167.744 166.876,170.077 166.5,173.5C 165.167,173.5 163.833,173.5 162.5,173.5C 162.5,171.167 162.5,168.833 162.5,166.5 Z"/></g>
<g><path style="opacity:0.924" fill="#383838" d="M 181.5,160.5 C 182.833,169.167 182.833,177.833 181.5,186.5C 181.5,185.833 181.167,185.5 180.5,185.5C 176.285,183.564 171.619,182.897 166.5,183.5C 169.5,182.833 172.5,182.167 175.5,181.5C 177.167,181.5 178.833,181.5 180.5,181.5C 180.5,177.5 180.5,173.5 180.5,169.5C 181.477,166.713 181.81,163.713 181.5,160.5 Z"/></g>
<g><path style="opacity:0.859" fill="#313031" d="M 65.5,166.5 C 66.4584,166.953 67.2917,167.619 68,168.5C 69.7137,168.795 71.547,168.462 73.5,167.5C 73.5,168.167 73.5,168.833 73.5,169.5C 72.4764,171.512 70.9764,173.178 69,174.5C 66.5969,173.521 65.7636,172.021 66.5,170C 65.6195,169.292 64.9528,168.458 64.5,167.5C 64.5,166.833 64.8333,166.5 65.5,166.5 Z M 68.5,169.5 C 70.7602,170.238 70.9269,171.238 69,172.5C 67.2716,171.648 67.105,170.648 68.5,169.5 Z"/></g>
<g><path style="opacity:0.3" fill="#2d2d2d" d="M 77.5,166.5 C 78.8333,173.167 78.8333,179.833 77.5,186.5C 76.8333,186.5 76.5,186.167 76.5,185.5C 76.5756,179.809 76.5756,173.809 76.5,167.5C 77.1667,167.5 77.5,167.167 77.5,166.5 Z"/></g>
<g><path style="opacity:0.841" fill="#353535" d="M 106.5,163.5 C 108.607,162.532 110.941,162.198 113.5,162.5C 113.176,169.354 113.509,176.021 114.5,182.5C 113.652,183.625 112.652,183.625 111.5,182.5C 111.5,176.167 111.5,169.833 111.5,163.5C 110.167,163.5 108.833,163.5 107.5,163.5C 107.167,163.5 106.833,163.5 106.5,163.5 Z"/></g>
<g><path style="opacity:0.361" fill="#2a2a2a" d="M 125.5,170.5 C 126.167,170.5 126.5,170.833 126.5,171.5C 126.5,177.833 126.5,184.167 126.5,190.5C 127.5,190.5 128.5,190.5 129.5,190.5C 128.054,191.613 126.387,191.78 124.5,191C 125.056,190.617 125.389,190.117 125.5,189.5C 124.23,183.037 124.23,176.704 125.5,170.5 Z"/></g>
<g><path style="opacity:0.353" fill="#3f3e3f" d="M 75.5,159.5 C 75.3379,161.527 75.5045,163.527 76,165.5C 77.0386,164.756 77.5386,163.756 77.5,162.5C 77.8333,162.5 78.1667,162.5 78.5,162.5C 78.8333,162.5 79.1667,162.5 79.5,162.5C 78.4937,163.396 78.4937,164.062 79.5,164.5C 78.8333,165.167 78.1667,165.833 77.5,166.5C 76.8333,166.5 76.5,166.833 76.5,167.5C 75.7611,167.369 75.0944,167.536 74.5,168C 75.4637,172.066 75.797,176.233 75.5,180.5C 74.209,180.737 73.209,180.404 72.5,179.5C 73.4794,176.375 73.8128,173.042 73.5,169.5C 73.5,168.833 73.5,168.167 73.5,167.5C 73.8499,165.374 73.8499,163.041 73.5,160.5C 74.1667,160.167 74.8333,159.833 75.5,159.5 Z"/></g>
<g><path style="opacity:0.406" fill="#3f3f3f" d="M 123.5,186.5 C 122.348,185.375 121.348,185.375 120.5,186.5C 116.346,184.274 112.013,183.941 107.5,185.5C 107.5,184.833 107.5,184.167 107.5,183.5C 108.833,183.167 110.167,182.833 111.5,182.5C 112.652,183.625 113.652,183.625 114.5,182.5C 115.477,179.713 115.81,176.713 115.5,173.5C 118.167,173.5 120.833,173.5 123.5,173.5C 123.5,177.833 123.5,182.167 123.5,186.5 Z M 117.5,175.5 C 118.833,175.5 120.167,175.5 121.5,175.5C 121.817,178.572 121.484,181.572 120.5,184.5C 119.833,184.167 119.167,183.833 118.5,183.5C 117.52,180.914 117.187,178.247 117.5,175.5 Z"/></g>
<g><path style="opacity:0.251" fill="#383637" d="M 156.5,167.5 C 156.328,168.492 156.662,169.158 157.5,169.5C 158.575,175.276 161.908,176.943 167.5,174.5C 167.5,175.167 167.5,175.833 167.5,176.5C 162.874,178.483 159.04,177.483 156,173.5C 155.211,171.288 155.378,169.288 156.5,167.5 Z"/></g>
<g><path style="opacity:0.498" fill="#616161" d="M 50.5,172.5 C 51.1667,172.5 51.8333,172.5 52.5,172.5C 52.5,176.833 52.5,181.167 52.5,185.5C 52.5,186.167 52.5,186.833 52.5,187.5C 51.8826,187.389 51.3826,187.056 51,186.5C 50.5008,181.845 50.3342,177.179 50.5,172.5 Z"/></g>
<g><path style="opacity:0.71" fill="#545454" d="M 58.5,179.5 C 63.1667,179.5 67.8333,179.5 72.5,179.5C 73.209,180.404 74.209,180.737 75.5,180.5C 69.3554,181.49 63.0221,181.823 56.5,181.5C 57.1667,180.833 57.8333,180.167 58.5,179.5 Z"/></g>
<g><path style="opacity:0.902" fill="#454243" d="M 152.5,181.5 C 160.167,181.5 167.833,181.5 175.5,181.5C 172.5,182.167 169.5,182.833 166.5,183.5C 166.5,183.833 166.5,184.167 166.5,184.5C 165.5,184.5 164.5,184.5 163.5,184.5C 163.5,183.833 163.167,183.5 162.5,183.5C 159.167,182.833 155.833,182.167 152.5,181.5 Z"/></g>
<g><path style="opacity:0.02" fill="#595959" d="M 62.5,182.5 C 63.9778,182.238 65.3112,182.571 66.5,183.5C 65.8333,183.833 65.1667,184.167 64.5,184.5C 63.2867,184.253 62.62,183.586 62.5,182.5 Z"/></g>
<g><path style="opacity:0.076" fill="#353535" d="M 125.5,170.5 C 127.607,169.532 129.941,169.198 132.5,169.5C 132.334,176.841 132.5,184.174 133,191.5C 133.383,192.056 133.883,192.389 134.5,192.5C 134.932,193.71 135.599,194.71 136.5,195.5C 137.167,195.5 137.5,195.833 137.5,196.5C 136.833,196.5 136.167,196.5 135.5,196.5C 134.684,194.856 133.35,193.69 131.5,193C 128.854,192.503 126.187,192.336 123.5,192.5C 123.385,190.053 122.385,188.053 120.5,186.5C 121.348,185.375 122.348,185.375 123.5,186.5C 123.427,188.027 124.094,189.027 125.5,189.5C 125.389,190.117 125.056,190.617 124.5,191C 126.387,191.78 128.054,191.613 129.5,190.5C 130.49,184.355 130.823,178.022 130.5,171.5C 129.167,171.5 127.833,171.5 126.5,171.5C 126.5,170.833 126.167,170.5 125.5,170.5 Z"/></g>
<g><path style="opacity:0.886" fill="#2d2b2b" d="M 149.5,177.5 C 149.67,178.822 149.337,179.989 148.5,181C 149.793,181.49 151.127,181.657 152.5,181.5C 155.833,182.167 159.167,182.833 162.5,183.5C 158.116,183.174 153.783,183.508 149.5,184.5C 149.667,184.833 149.833,185.167 150,185.5C 154.748,186.635 159.581,186.802 164.5,186C 163.944,185.617 163.611,185.117 163.5,184.5C 164.5,184.5 165.5,184.5 166.5,184.5C 166.389,185.117 166.056,185.617 165.5,186C 170.584,186.778 175.584,186.611 180.5,185.5C 181.167,185.5 181.5,185.833 181.5,186.5C 181.158,187.338 180.492,187.672 179.5,187.5C 174.847,186.999 170.514,187.666 166.5,189.5C 166.5,189.167 166.5,188.833 166.5,188.5C 161.36,187.512 156.026,187.179 150.5,187.5C 148.596,187.262 147.262,186.262 146.5,184.5C 146.98,181.922 147.98,179.588 149.5,177.5 Z"/></g>
<g><path style="opacity:0.718" fill="#6b6b6b" d="M 52.5,185.5 C 60.5,185.5 68.5,185.5 76.5,185.5C 76.5,186.167 76.8333,186.5 77.5,186.5C 69.3501,187.493 61.0168,187.826 52.5,187.5C 52.5,186.833 52.5,186.167 52.5,185.5 Z"/></g>
<g><path style="opacity:0.482" fill="#434343" d="M 105.5,185.5 C 104.341,186.74 103.341,188.074 102.5,189.5C 102.5,186.5 102.5,183.5 102.5,180.5C 101.167,180.5 99.8333,180.5 98.5,180.5C 98.5,184.833 98.5,189.167 98.5,193.5C 97.8333,193.833 97.1667,194.167 96.5,194.5C 96.5,189.5 96.5,184.5 96.5,179.5C 99.1667,179.5 101.833,179.5 104.5,179.5C 104.205,181.735 104.539,183.735 105.5,185.5 Z"/></g>
<g><path style="opacity:0.499" fill="#313131" d="M 112.5,186.5 C 116.715,186.768 119.715,188.768 121.5,192.5C 121.167,192.833 120.833,193.167 120.5,193.5C 118.093,190.667 115.427,188.334 112.5,186.5 Z"/></g>
<g><path style="opacity:0.22" fill="#464544" d="M 141.5,205.5 C 140.391,204.71 139.058,204.21 137.5,204C 138.056,203.617 138.389,203.117 138.5,202.5C 139.117,202.611 139.617,202.944 140,203.5C 140.499,199.179 140.666,194.846 140.5,190.5C 139.167,190.5 137.833,190.5 136.5,190.5C 136.5,192.167 136.5,193.833 136.5,195.5C 135.599,194.71 134.932,193.71 134.5,192.5C 134.5,191.167 134.5,189.833 134.5,188.5C 137.167,188.5 139.833,188.5 142.5,188.5C 142.203,192.767 142.536,196.934 143.5,201C 142.901,202.622 142.234,204.122 141.5,205.5 Z"/></g>
<g><path style="opacity:0.837" fill="#3c3c3c" d="M 96.5,194.5 C 97.1667,194.167 97.8333,193.833 98.5,193.5C 100.384,192.661 101.717,191.328 102.5,189.5C 102.5,190.167 102.833,190.5 103.5,190.5C 103.67,191.822 103.337,192.989 102.5,194C 99.9699,194.379 97.6365,195.213 95.5,196.5C 95.1667,195.5 94.5,194.833 93.5,194.5C 93.5,193.167 93.5,191.833 93.5,190.5C 92.1667,190.5 90.8333,190.5 89.5,190.5C 90.7778,194.451 90.7778,198.118 89.5,201.5C 88.8333,200.5 88.1667,199.5 87.5,198.5C 87.1667,198.5 86.8333,198.5 86.5,198.5C 87.4137,195.272 87.7471,191.939 87.5,188.5C 90.1667,188.5 92.8333,188.5 95.5,188.5C 95.2053,190.735 95.5386,192.735 96.5,194.5 Z"/></g>
<g><path style="opacity:0.578" fill="#474646" d="M 150.5,187.5 C 156.026,187.179 161.36,187.512 166.5,188.5C 165.325,188.281 164.325,188.614 163.5,189.5C 164.614,190.776 165.614,190.776 166.5,189.5C 170.514,187.666 174.847,186.999 179.5,187.5C 175.979,188.166 172.313,188.833 168.5,189.5C 169.167,190.167 169.833,190.833 170.5,191.5C 166.5,192.833 162.5,192.833 158.5,191.5C 159.5,190.833 160.5,190.167 161.5,189.5C 157.687,188.833 154.021,188.166 150.5,187.5 Z M 166.5,188.5 C 166.5,188.833 166.5,189.167 166.5,189.5C 165.614,190.776 164.614,190.776 163.5,189.5C 164.325,188.614 165.325,188.281 166.5,188.5 Z"/></g>
<g><path style="opacity:0.108" fill="#545454" d="M 74.5,193.5 C 73.1667,193.833 73.1667,194.167 74.5,194.5C 74.719,195.675 74.3857,196.675 73.5,197.5C 72.7702,196.066 71.7702,194.9 70.5,194C 71.7702,193.1 72.7702,191.934 73.5,190.5C 74.3857,191.325 74.719,192.325 74.5,193.5 Z"/></g>
<g><path style="opacity:0.816" fill="#3c3c3c" d="M 74.5,194.5 C 74.5,194.167 74.5,193.833 74.5,193.5C 78.5,193.833 78.5,194.167 74.5,194.5 Z"/></g>
<g><path style="opacity:0.304" fill="#4f4f4f" d="M 151.5,193.5 C 153.078,194.066 154.412,195.066 155.5,196.5C 154.354,197.719 153.354,199.052 152.5,200.5C 151.614,199.675 151.281,198.675 151.5,197.5C 150.448,197.649 149.448,197.483 148.5,197C 150.063,196.241 151.063,195.074 151.5,193.5 Z"/></g>
<g><path style="opacity:0.894" fill="#373635" d="M 135.5,196.5 C 136.167,196.5 136.833,196.5 137.5,196.5C 138.15,198.435 138.483,200.435 138.5,202.5C 138.389,203.117 138.056,203.617 137.5,204C 139.058,204.21 140.391,204.71 141.5,205.5C 139.712,205.215 138.045,205.548 136.5,206.5C 135.812,207.855 134.812,208.855 133.5,209.5C 132.833,209.5 132.5,209.167 132.5,208.5C 136.285,205.25 137.285,201.25 135.5,196.5 Z"/></g>
<g><path style="opacity:0.91" fill="#353535" d="M 93.5,194.5 C 94.5,194.833 95.1667,195.5 95.5,196.5C 91.2873,205.075 93.954,209.409 103.5,209.5C 112.167,210.167 120.833,210.833 129.5,211.5C 118.495,211.667 107.495,211.5 96.5,211C 94.1301,207.624 90.9634,205.457 87,204.5C 86.6667,204.833 86.3333,205.167 86,205.5C 86.0685,203.071 86.2351,200.738 86.5,198.5C 86.8333,199.833 87.1667,199.833 87.5,198.5C 88.1667,199.5 88.8333,200.5 89.5,201.5C 90.0736,202.528 90.407,203.528 90.5,204.5C 91.2896,201.075 92.2896,197.742 93.5,194.5 Z"/></g>
<g><path style="opacity:0.393" fill="#434343" d="M 132.5,208.5 C 132.5,209.167 132.833,209.5 133.5,209.5C 132.486,210.674 131.153,211.34 129.5,211.5C 120.833,210.833 112.167,210.167 103.5,209.5C 113.25,209.806 122.916,209.473 132.5,208.5 Z"/></g>
</svg>
