<?xml version="1.0" encoding="UTF-8"?>
<!DOCTYPE svg PUBLIC "-//W3C//DTD SVG 1.1//EN" "http://www.w3.org/Graphics/SVG/1.1/DTD/svg11.dtd">
<svg xmlns="http://www.w3.org/2000/svg" version="1.1" width="662px" height="377px" style="shape-rendering:geometricPrecision; text-rendering:geometricPrecision; image-rendering:optimizeQuality; fill-rule:evenodd; clip-rule:evenodd" xmlns:xlink="http://www.w3.org/1999/xlink">
<g><path style="opacity:0.982" fill="#0d0d0d" d="M 226.5,-0.5 C 230.167,-0.5 233.833,-0.5 237.5,-0.5C 239.181,1.00751 241.181,2.00751 243.5,2.5C 245.404,2.73758 246.738,3.73758 247.5,5.5C 247.427,7.02694 248.094,8.02694 249.5,8.5C 249.804,9.14987 250.137,9.81654 250.5,10.5C 301.829,11.4999 353.162,11.8333 404.5,11.5C 404.263,10.209 404.596,9.20895 405.5,8.5C 407.262,7.73769 408.262,6.40435 408.5,4.5C 410.853,3.65974 412.853,2.3264 414.5,0.5C 414.5,0.166667 414.5,-0.166667 414.5,-0.5C 418.167,-0.5 421.833,-0.5 425.5,-0.5C 427.426,1.29268 429.759,2.29268 432.5,2.5C 440.914,9.47358 442.581,17.8069 437.5,27.5C 436.094,27.9731 435.427,28.9731 435.5,30.5C 426.825,39.1664 417.825,39.4997 408.5,31.5C 408.631,28.6333 407.297,26.9666 404.5,26.5C 395.895,24.5289 386.895,23.8623 377.5,24.5C 376.466,26.817 377.466,27.817 380.5,27.5C 386.849,32.1849 392.516,37.5182 397.5,43.5C 397.427,45.0269 398.094,46.0269 399.5,46.5C 405.917,55.5649 410.917,65.3982 414.5,76C 413.62,77.3561 413.286,78.8561 413.5,80.5C 413.5,81.8333 413.5,83.1667 413.5,84.5C 418.167,84.5 422.833,84.5 427.5,84.5C 427.194,87.3854 427.527,90.0521 428.5,92.5C 429.558,102.155 429.558,111.821 428.5,121.5C 415.833,121.5 403.167,121.5 390.5,121.5C 390.171,108.989 390.505,96.6554 391.5,84.5C 395.167,84.5 398.833,84.5 402.5,84.5C 402.405,82.2143 401.738,80.2143 400.5,78.5C 399.227,73.2954 397.227,68.2954 394.5,63.5C 394.34,61.847 393.674,60.5137 392.5,59.5C 388.55,53.2811 383.883,47.6144 378.5,42.5C 378.027,41.0937 377.027,40.427 375.5,40.5C 374.167,39.8333 373.167,38.8333 372.5,37.5C 371.486,36.3263 370.153,35.6596 368.5,35.5C 366.117,33.6418 363.45,32.3084 360.5,31.5C 359.599,29.2729 357.933,28.2729 355.5,28.5C 330.054,20.8889 306.721,24.8889 285.5,40.5C 283.973,40.427 282.973,41.0937 282.5,42.5C 277.779,47.7151 273.279,53.0484 269,58.5C 268.517,59.448 268.351,60.448 268.5,61.5C 267.167,61.5 266.5,62.1667 266.5,63.5C 264.289,69.9149 261.956,76.2482 259.5,82.5C 258.957,82.56 258.624,82.8933 258.5,83.5C 262.107,84.4892 265.774,84.8226 269.5,84.5C 270.495,96.6554 270.829,108.989 270.5,121.5C 258.167,121.5 245.833,121.5 233.5,121.5C 233.817,117.298 233.483,113.298 232.5,109.5C 232.5,105.833 232.5,102.167 232.5,98.5C 233.72,96.7163 233.72,95.0496 232.5,93.5C 232.5,93.1667 232.5,92.8333 232.5,92.5C 233.473,90.0521 233.806,87.3854 233.5,84.5C 238.167,84.5 242.833,84.5 247.5,84.5C 247.5,83.1667 247.5,81.8333 247.5,80.5C 247.265,75.4541 248.265,70.7874 250.5,66.5C 251.906,66.0269 252.573,65.0269 252.5,63.5C 253.042,60.0878 254.375,57.0878 256.5,54.5C 258.25,53.3406 259.25,51.674 259.5,49.5C 260.167,48.5 260.833,47.5 261.5,46.5C 262.906,46.0269 263.573,45.0269 263.5,43.5C 268.51,37.4902 274.177,32.1569 280.5,27.5C 283.534,27.817 284.534,26.817 283.5,24.5C 272.495,24.3335 261.495,24.5002 250.5,25C 249.733,26.4705 249.067,27.9705 248.5,29.5C 247.167,29.5 246.5,30.1667 246.5,31.5C 244.359,33.1106 242.026,34.6106 239.5,36C 231.876,38.2377 225.209,36.571 219.5,31C 217.68,28.3605 216.346,25.5271 215.5,22.5C 215.323,18.7657 215.656,15.0991 216.5,11.5C 216.755,9.03259 217.755,7.03259 219.5,5.5C 222.117,4.21412 224.45,2.54745 226.5,0.5C 226.5,0.166667 226.5,-0.166667 226.5,-0.5 Z M 237.5,15.5 C 237.414,16.4959 237.748,17.3292 238.5,18C 237.418,19.3297 236.751,20.8297 236.5,22.5C 228.514,23.002 226.514,19.8353 230.5,13C 233.626,11.9836 235.959,12.8169 237.5,15.5 Z M 426.5,15.5 C 426.557,16.609 426.89,17.609 427.5,18.5C 426.07,20.386 424.403,22.0527 422.5,23.5C 421.167,23.1667 419.833,22.8333 418.5,22.5C 416.448,20.0242 416.115,17.3576 417.5,14.5C 420.914,11.6822 423.914,12.0155 426.5,15.5 Z M 257.5,107.5 C 253.833,107.5 250.167,107.5 246.5,107.5C 246.5,104.167 246.5,100.833 246.5,97.5C 249.994,96.6648 253.66,96.6648 257.5,97.5C 257.5,100.833 257.5,104.167 257.5,107.5 Z M 414.5,96.5 C 414.5,100.167 414.5,103.833 414.5,107.5C 410.629,107.815 406.962,107.482 403.5,106.5C 403.5,103.167 403.5,99.8333 403.5,96.5C 407.167,96.5 410.833,96.5 414.5,96.5 Z M 328.5,103.5 C 336.698,104.786 338.031,108.286 332.5,114C 329.211,114.746 326.711,113.58 325,110.5C 324.333,109.5 324.333,108.5 325,107.5C 326.376,106.295 327.542,104.962 328.5,103.5 Z"/></g>
<g><path style="opacity:0.176" fill="#aeaeae" d="M 237.5,-0.5 C 238.5,-0.5 239.5,-0.5 240.5,-0.5C 241.694,0.271873 242.694,1.27187 243.5,2.5C 241.181,2.00751 239.181,1.00751 237.5,-0.5 Z"/></g>
<g><path style="opacity:0.125" fill="#b6b6b6" d="M 425.5,-0.5 C 426.5,-0.5 427.5,-0.5 428.5,-0.5C 429.833,0.5 431.167,1.5 432.5,2.5C 429.759,2.29268 427.426,1.29268 425.5,-0.5 Z"/></g>
<g><path style="opacity:0.651" fill="#636363" d="M 226.5,0.5 C 224.45,2.54745 222.117,4.21412 219.5,5.5C 220.992,2.67686 223.326,1.01019 226.5,0.5 Z"/></g>
<g><path style="opacity:0.675" fill="#606060" d="M 414.5,0.5 C 412.853,2.3264 410.853,3.65974 408.5,4.5C 409.802,2.17823 411.802,0.844897 414.5,0.5 Z"/></g>
<g><path style="opacity:0.412" fill="#ababab" d="M 408.5,4.5 C 408.262,6.40435 407.262,7.73769 405.5,8.5C 405.738,6.59565 406.738,5.26231 408.5,4.5 Z"/></g>
<g><path style="opacity:0.322" fill="#b2b2b2" d="M 247.5,5.5 C 248.906,5.97306 249.573,6.97306 249.5,8.5C 248.094,8.02694 247.427,7.02694 247.5,5.5 Z"/></g>
<g><path style="opacity:0.374" fill="#868686" d="M 216.5,11.5 C 215.656,15.0991 215.323,18.7657 215.5,22.5C 214.359,19.3601 214.192,16.0267 215,12.5C 215.383,11.944 215.883,11.6107 216.5,11.5 Z"/></g>
<g><path style="opacity:0.216" fill="#a7a7a7" d="M 417.5,14.5 C 416.115,17.3576 416.448,20.0242 418.5,22.5C 416.414,21.8515 415.414,20.3515 415.5,18C 415.387,16.3009 416.053,15.1342 417.5,14.5 Z"/></g>
<g><path style="opacity:0.353" fill="#ababab" d="M 237.5,15.5 C 240.014,18.0321 239.68,20.3654 236.5,22.5C 236.751,20.8297 237.418,19.3297 238.5,18C 237.748,17.3292 237.414,16.4959 237.5,15.5 Z"/></g>
<g><path style="opacity:0.58" fill="#787878" d="M 426.5,15.5 C 428.382,16.221 428.715,17.221 427.5,18.5C 426.89,17.609 426.557,16.609 426.5,15.5 Z"/></g>
<g><path style="opacity:0.545" fill="#7e7e7e" d="M 427.5,18.5 C 427.463,21.7016 425.797,23.3683 422.5,23.5C 424.403,22.0527 426.07,20.386 427.5,18.5 Z"/></g>
<g><path style="opacity:0.486" fill="#919191" d="M 283.5,24.5 C 284.534,26.817 283.534,27.817 280.5,27.5C 281.694,26.7281 282.694,25.7281 283.5,24.5 Z"/></g>
<g><path style="opacity:0.561" fill="#8c8c8c" d="M 377.5,24.5 C 378.306,25.7281 379.306,26.7281 380.5,27.5C 377.466,27.817 376.466,26.817 377.5,24.5 Z"/></g>
<g><path style="opacity:0.639" fill="#8e8e8e" d="M 404.5,26.5 C 407.297,26.9666 408.631,28.6333 408.5,31.5C 407.197,29.8577 405.864,28.1911 404.5,26.5 Z"/></g>
<g><path style="opacity:0.059" fill="#b6b6b6" d="M 248.5,29.5 C 248.167,30.5 247.5,31.1667 246.5,31.5C 246.5,30.1667 247.167,29.5 248.5,29.5 Z"/></g>
<g><path style="opacity:0.333" fill="#8b8b8b" d="M 355.5,28.5 C 357.933,28.2729 359.599,29.2729 360.5,31.5C 358.566,30.8897 356.899,29.8897 355.5,28.5 Z"/></g>
<g><path style="opacity:0.039" fill="#bdbdbd" d="M 437.5,27.5 C 437.573,29.0269 436.906,30.0269 435.5,30.5C 435.427,28.9731 436.094,27.9731 437.5,27.5 Z"/></g>
<g><path style="opacity:0.145" fill="#bebebe" d="M 368.5,35.5 C 370.153,35.6596 371.486,36.3263 372.5,37.5C 370.62,37.7709 369.287,37.1042 368.5,35.5 Z"/></g>
<g><path style="opacity:0.988" fill="#0f0f0f" d="M 334.5,42.5 C 334.427,44.0269 335.094,45.0269 336.5,45.5C 338.201,46.2114 339.201,47.5447 339.5,49.5C 340.326,51.2644 341.659,52.5977 343.5,53.5C 343.427,55.0269 344.094,56.0269 345.5,56.5C 346.11,58.4341 347.11,60.1007 348.5,61.5C 351.891,64.6094 355.057,67.9428 358,71.5C 361.498,77.664 365.665,83.3306 370.5,88.5C 370.5,89.8333 371.167,90.5 372.5,90.5C 372.229,92.3797 372.896,93.713 374.5,94.5C 375.5,94.8333 376.167,95.5 376.5,96.5C 376.427,98.0269 377.094,99.0269 378.5,99.5C 379.391,100.261 380.058,101.261 380.5,102.5C 379.137,107.461 378.137,112.461 377.5,117.5C 375.518,120.373 375.185,123.373 376.5,126.5C 407.835,126.333 439.168,126.5 470.5,127C 472.91,127.6 474.91,128.766 476.5,130.5C 477.29,131.401 478.29,132.068 479.5,132.5C 480.167,132.833 480.833,133.167 481.5,133.5C 481.427,135.027 482.094,136.027 483.5,136.5C 483.427,138.027 484.094,139.027 485.5,139.5C 486.793,140.842 487.626,142.509 488,144.5C 488.667,202.167 488.667,259.833 488,317.5C 487.243,319.315 486.41,320.981 485.5,322.5C 483.952,322.821 483.285,323.821 483.5,325.5C 480.772,328.709 477.439,331.209 473.5,333C 467.243,334.317 460.909,334.817 454.5,334.5C 452.087,333.889 449.587,333.555 447,333.5C 444.39,333.533 442.223,334.2 440.5,335.5C 436.344,334.879 432.677,334.545 429.5,334.5C 425.167,333.167 420.833,333.167 416.5,334.5C 406.393,334.629 396.56,334.629 387,334.5C 386.5,344.161 386.334,353.828 386.5,363.5C 394.174,363.334 401.841,363.5 409.5,364C 410.464,368.066 410.797,372.233 410.5,376.5C 357.5,376.5 304.5,376.5 251.5,376.5C 251.5,372.5 251.5,368.5 251.5,364.5C 259.5,364.5 267.5,364.5 275.5,364.5C 275.827,354.319 275.494,344.319 274.5,334.5C 267.761,335.239 261.094,335.239 254.5,334.5C 250.5,333.167 246.5,333.167 242.5,334.5C 238.772,334.568 235.105,334.568 231.5,334.5C 218.344,333.504 205.01,333.171 191.5,333.5C 189.102,333.741 187.102,333.074 185.5,331.5C 184.713,329.896 183.38,329.229 181.5,329.5C 180.512,328.205 179.512,326.872 178.5,325.5C 177.855,323.174 176.522,321.507 174.5,320.5C 173.91,319.234 173.41,317.901 173,316.5C 172.333,259.167 172.333,201.833 173,144.5C 173.374,142.509 174.207,140.842 175.5,139.5C 177.262,138.738 178.262,137.404 178.5,135.5C 178.5,134.167 179.167,133.5 180.5,133.5C 182.122,132.878 183.455,131.878 184.5,130.5C 186.09,128.766 188.09,127.6 190.5,127C 222.167,126.667 253.833,126.333 285.5,126C 283.471,118.07 281.805,110.07 280.5,102C 282.279,98.3929 284.612,95.2263 287.5,92.5C 289.532,91.9522 290.532,90.6188 290.5,88.5C 291.5,88.1667 292.167,87.5 292.5,86.5C 293.906,86.0269 294.573,85.0269 294.5,83.5C 296.134,82.0451 297.468,80.3784 298.5,78.5C 299.833,77.8333 300.833,76.8333 301.5,75.5C 301.859,72.7633 303.193,70.7633 305.5,69.5C 308.086,68.3615 309.753,66.3615 310.5,63.5C 310.833,62.5 311.5,61.8333 312.5,61.5C 313.803,59.8577 315.136,58.1911 316.5,56.5C 317.11,55.609 317.443,54.609 317.5,53.5C 319.341,52.5977 320.674,51.2644 321.5,49.5C 322.238,47.0598 323.571,45.0598 325.5,43.5C 327.997,42.8707 329.33,41.204 329.5,38.5C 329.897,37.475 330.563,37.3083 331.5,38C 332.883,39.2708 333.883,40.7708 334.5,42.5 Z M 313.5,116.5 C 313.75,118.674 314.75,120.341 316.5,121.5C 317.167,121.5 317.5,121.833 317.5,122.5C 318.262,124.262 319.596,125.262 321.5,125.5C 322.209,126.404 323.209,126.737 324.5,126.5C 325.568,127.434 326.901,127.768 328.5,127.5C 345.385,126.754 351.885,118.088 348,101.5C 346,96.8333 342.667,93.5 338,91.5C 337.333,84.1667 337.333,76.8333 338,69.5C 342.291,74.3957 346.457,79.3957 350.5,84.5C 351.46,86.4607 352.793,88.1274 354.5,89.5C 356.131,93.1212 358.465,96.1212 361.5,98.5C 361.554,100.632 362.554,101.965 364.5,102.5C 365.167,103.5 365.833,104.5 366.5,105.5C 365.232,107.905 364.565,110.572 364.5,113.5C 364.5,113.833 364.5,114.167 364.5,114.5C 363.388,116.599 362.721,118.933 362.5,121.5C 361.913,132.436 359.913,143.103 356.5,153.5C 356.987,154.446 357.32,155.446 357.5,156.5C 356.314,160.761 355.647,165.094 355.5,169.5C 338.833,169.5 322.167,169.5 305.5,169.5C 305.625,165.209 304.958,161.043 303.5,157C 303.645,156.228 303.978,155.561 304.5,155C 300.922,138.372 297.589,121.705 294.5,105C 295.381,104.292 296.047,103.458 296.5,102.5C 297.833,102.5 298.5,101.833 298.5,100.5C 299.143,98.9236 300.143,97.5903 301.5,96.5C 302.974,95.5637 303.974,94.2303 304.5,92.5C 310.661,84.8536 316.828,77.187 323,69.5C 323.667,76.8333 323.667,84.1667 323,91.5C 312.661,97.2288 309.494,105.562 313.5,116.5 Z M 328.5,103.5 C 327.542,104.962 326.376,106.295 325,107.5C 324.333,108.5 324.333,109.5 325,110.5C 326.711,113.58 329.211,114.746 332.5,114C 338.031,108.286 336.698,104.786 328.5,103.5 Z M 288.5,147.5 C 288.5,148.5 288.5,149.5 288.5,150.5C 257.833,150.5 227.167,150.5 196.5,150.5C 196.5,203.833 196.5,257.167 196.5,310.5C 218.167,310.5 239.833,310.5 261.5,310.5C 305.664,310.534 349.331,310.534 392.5,310.5C 398.803,310.543 405.136,310.543 411.5,310.5C 426.5,310.5 441.5,310.5 456.5,310.5C 459.167,310.5 461.833,310.5 464.5,310.5C 464.5,257.167 464.5,203.833 464.5,150.5C 433.833,150.5 403.167,150.5 372.5,150.5C 372.5,149.167 372.5,147.833 372.5,146.5C 373.167,144.5 373.833,142.5 374.5,140.5C 405.502,140.333 436.502,140.5 467.5,141C 472.4,141.661 474.9,144.494 475,149.5C 475.5,203.499 475.667,257.499 475.5,311.5C 474.326,312.514 473.66,313.847 473.5,315.5C 473.573,317.027 472.906,318.027 471.5,318.5C 469.897,318.312 468.563,318.812 467.5,320C 375.46,320.828 283.46,320.662 191.5,319.5C 190.737,318.732 189.737,318.232 188.5,318C 187.748,317.329 187.414,316.496 187.5,315.5C 187.34,313.847 186.674,312.514 185.5,311.5C 185.333,257.499 185.5,203.499 186,149.5C 186.1,144.494 188.6,141.661 193.5,141C 224.832,140.5 256.165,140.333 287.5,140.5C 287.298,142.95 287.631,145.283 288.5,147.5 Z M 228.5,164.5 C 249.503,164.333 270.503,164.5 291.5,165C 292.811,167.274 292.811,169.44 291.5,171.5C 288.593,172.073 286.593,173.739 285.5,176.5C 284.662,176.842 284.328,177.508 284.5,178.5C 282.896,179.287 282.229,180.62 282.5,182.5C 281.167,185.833 281.167,189.167 282.5,192.5C 282.12,194.698 282.787,196.365 284.5,197.5C 284.328,198.492 284.662,199.158 285.5,199.5C 286.402,201.341 287.736,202.674 289.5,203.5C 290.209,204.404 291.209,204.737 292.5,204.5C 292.17,220.009 292.504,235.342 293.5,250.5C 292.916,253.285 293.916,254.952 296.5,255.5C 297.353,258.518 299.353,260.351 302.5,261C 321.167,261.667 339.833,261.667 358.5,261C 362.266,261.066 364.266,259.233 364.5,255.5C 366.912,255.306 367.912,253.973 367.5,251.5C 368.496,236.009 368.83,220.342 368.5,204.5C 369.791,204.737 370.791,204.404 371.5,203.5C 373.264,202.674 374.598,201.341 375.5,199.5C 379.328,194.431 380.328,188.764 378.5,182.5C 378.771,180.62 378.104,179.287 376.5,178.5C 376.262,176.596 375.262,175.262 373.5,174.5C 373.19,172.856 372.19,171.856 370.5,171.5C 368.234,169.807 367.9,167.64 369.5,165C 396.498,164.5 423.498,164.333 450.5,164.5C 451.499,207.997 451.832,251.663 451.5,295.5C 451.5,295.833 451.5,296.167 451.5,296.5C 370.833,296.5 290.167,296.5 209.5,296.5C 209.5,293.167 209.5,289.833 209.5,286.5C 209.5,247.833 209.5,209.167 209.5,170.5C 209.5,168.5 209.5,166.5 209.5,164.5C 215.833,164.5 222.167,164.5 228.5,164.5 Z M 366.5,185.5 C 366.5,187.167 366.5,188.833 366.5,190.5C 364.804,190.685 363.471,191.519 362.5,193C 341.167,193.667 319.833,193.667 298.5,193C 297.627,191.955 296.627,191.122 295.5,190.5C 294.861,189.903 294.528,189.07 294.5,188C 295.008,186.107 296.008,184.607 297.5,183.5C 319.094,182.345 340.761,182.179 362.5,183C 363.471,184.481 364.804,185.315 366.5,185.5 Z M 306.5,206.5 C 322.5,206.5 338.5,206.5 354.5,206.5C 354.5,220.5 354.5,234.5 354.5,248.5C 338.5,248.5 322.5,248.5 306.5,248.5C 306.5,234.5 306.5,220.5 306.5,206.5 Z M 308.5,334.5 C 316.003,335.306 323.336,335.306 330.5,334.5C 336.796,334.628 342.796,334.961 348.5,335.5C 354.348,334.673 360.014,334.34 365.5,334.5C 367.565,334.517 369.565,334.85 371.5,335.5C 372.542,344.77 372.542,354.104 371.5,363.5C 343.833,363.5 316.167,363.5 288.5,363.5C 289.668,353.826 289.668,344.16 288.5,334.5C 295.458,335.457 302.125,335.457 308.5,334.5 Z"/></g>
<g><path style="opacity:0.008" fill="#bcbcbc" d="M 285.5,40.5 C 285.027,41.9063 284.027,42.573 282.5,42.5C 282.973,41.0937 283.973,40.427 285.5,40.5 Z"/></g>
<g><path style="opacity:0.231" fill="#939393" d="M 375.5,40.5 C 377.027,40.427 378.027,41.0937 378.5,42.5C 376.973,42.573 375.973,41.9063 375.5,40.5 Z"/></g>
<g><path style="opacity:0.455" fill="#636363" d="M 329.5,38.5 C 329.33,41.204 327.997,42.8707 325.5,43.5C 326.604,41.6115 327.937,39.9448 329.5,38.5 Z"/></g>
<g><path style="opacity:0.302" fill="#bcbcbc" d="M 334.5,42.5 C 335.906,42.9731 336.573,43.9731 336.5,45.5C 335.094,45.0269 334.427,44.0269 334.5,42.5 Z"/></g>
<g><path style="opacity:0.325" fill="#b7b7b7" d="M 263.5,43.5 C 263.573,45.0269 262.906,46.0269 261.5,46.5C 261.427,44.9731 262.094,43.9731 263.5,43.5 Z"/></g>
<g><path style="opacity:0.345" fill="#b8b8b8" d="M 397.5,43.5 C 398.906,43.9731 399.573,44.9731 399.5,46.5C 398.094,46.0269 397.427,45.0269 397.5,43.5 Z"/></g>
<g><path style="opacity:0.012" fill="#c3c3c3" d="M 339.5,49.5 C 341.773,49.9568 343.106,51.2901 343.5,53.5C 341.659,52.5977 340.326,51.2644 339.5,49.5 Z"/></g>
<g><path style="opacity:0.341" fill="#999999" d="M 259.5,49.5 C 259.25,51.674 258.25,53.3406 256.5,54.5C 256.75,52.326 257.75,50.6594 259.5,49.5 Z"/></g>
<g><path style="opacity:0.035" fill="#c7c7c7" d="M 321.5,49.5 C 320.674,51.2644 319.341,52.5977 317.5,53.5C 317.894,51.2901 319.227,49.9568 321.5,49.5 Z"/></g>
<g><path style="opacity:0.475" fill="#959595" d="M 316.5,56.5 C 315.136,58.1911 313.803,59.8577 312.5,61.5C 312.369,58.6333 313.703,56.9666 316.5,56.5 Z"/></g>
<g><path style="opacity:0.549" fill="#ababab" d="M 345.5,56.5 C 347.727,57.4006 348.727,59.0672 348.5,61.5C 347.11,60.1007 346.11,58.4341 345.5,56.5 Z"/></g>
<g><path style="opacity:0.031" fill="#b6b6b6" d="M 268.5,61.5 C 268.167,62.5 267.5,63.1667 266.5,63.5C 266.5,62.1667 267.167,61.5 268.5,61.5 Z"/></g>
<g><path style="opacity:0.4" fill="#a4a4a4" d="M 392.5,59.5 C 393.674,60.5137 394.34,61.847 394.5,63.5C 392.896,62.713 392.229,61.3797 392.5,59.5 Z"/></g>
<g><path style="opacity:0.141" fill="#aaaaaa" d="M 252.5,63.5 C 252.573,65.0269 251.906,66.0269 250.5,66.5C 250.427,64.9731 251.094,63.9731 252.5,63.5 Z"/></g>
<g><path style="opacity:0.529" fill="#676767" d="M 310.5,63.5 C 309.753,66.3615 308.086,68.3615 305.5,69.5C 306.701,67.0905 308.367,65.0905 310.5,63.5 Z"/></g>
<g><path style="opacity:0.18" fill="#c5c5c5" d="M 301.5,75.5 C 300.833,76.8333 299.833,77.8333 298.5,78.5C 298.5,76.5 299.5,75.5 301.5,75.5 Z"/></g>
<g><path style="opacity:0.051" fill="#a7a7a7" d="M 247.5,80.5 C 247.5,81.8333 247.5,83.1667 247.5,84.5C 242.833,84.5 238.167,84.5 233.5,84.5C 233.806,87.3854 233.473,90.0521 232.5,92.5C 232.5,89.5 232.5,86.5 232.5,83.5C 237.167,83.5 241.833,83.5 246.5,83.5C 246.263,82.209 246.596,81.209 247.5,80.5 Z"/></g>
<g><path style="opacity:0.043" fill="#b6b6b6" d="M 259.5,82.5 C 262.833,83.1667 266.167,83.8333 269.5,84.5C 265.774,84.8226 262.107,84.4892 258.5,83.5C 258.624,82.8933 258.957,82.56 259.5,82.5 Z"/></g>
<g><path style="opacity:0.039" fill="#b1b1b1" d="M 400.5,78.5 C 401.738,80.2143 402.405,82.2143 402.5,84.5C 398.833,84.5 395.167,84.5 391.5,84.5C 394.641,83.6787 397.975,83.1787 401.5,83C 400.62,81.6439 400.286,80.1439 400.5,78.5 Z"/></g>
<g><path style="opacity:0.043" fill="#a4a4a4" d="M 413.5,80.5 C 414.404,81.209 414.737,82.209 414.5,83.5C 419.167,83.5 423.833,83.5 428.5,83.5C 428.5,86.5 428.5,89.5 428.5,92.5C 427.527,90.0521 427.194,87.3854 427.5,84.5C 422.833,84.5 418.167,84.5 413.5,84.5C 413.5,83.1667 413.5,81.8333 413.5,80.5 Z"/></g>
<g><path style="opacity:0.388" fill="#a5a5a5" d="M 294.5,83.5 C 294.573,85.0269 293.906,86.0269 292.5,86.5C 292.427,84.9731 293.094,83.9731 294.5,83.5 Z"/></g>
<g><path style="opacity:0.765" fill="#7e7e7e" d="M 350.5,84.5 C 352.935,85.2702 354.269,86.9368 354.5,89.5C 352.793,88.1274 351.46,86.4607 350.5,84.5 Z"/></g>
<g><path style="opacity:0.212" fill="#b5b5b5" d="M 370.5,88.5 C 371.5,88.8333 372.167,89.5 372.5,90.5C 371.167,90.5 370.5,89.8333 370.5,88.5 Z"/></g>
<g><path style="opacity:0.149" fill="#aeaeae" d="M 290.5,88.5 C 290.532,90.6188 289.532,91.9522 287.5,92.5C 288.122,90.8784 289.122,89.5451 290.5,88.5 Z"/></g>
<g><path style="opacity:0.176" fill="#787878" d="M 372.5,90.5 C 373.674,91.5137 374.34,92.847 374.5,94.5C 372.896,93.713 372.229,92.3797 372.5,90.5 Z"/></g>
<g><path style="opacity:0.384" fill="#999999" d="M 304.5,92.5 C 303.974,94.2303 302.974,95.5637 301.5,96.5C 301.554,94.368 302.554,93.0347 304.5,92.5 Z"/></g>
<g><path style="opacity:0.404" fill="#7c7c7c" d="M 232.5,93.5 C 233.72,95.0496 233.72,96.7163 232.5,98.5C 232.446,96.8604 232.446,95.1937 232.5,93.5 Z"/></g>
<g><path style="opacity:0.325" fill="#959595" d="M 376.5,96.5 C 377.906,96.9731 378.573,97.9731 378.5,99.5C 377.094,99.0269 376.427,98.0269 376.5,96.5 Z"/></g>
<g><path style="opacity:0.22" fill="#c0c0c0" d="M 361.5,98.5 C 362.974,99.4363 363.974,100.77 364.5,102.5C 362.554,101.965 361.554,100.632 361.5,98.5 Z"/></g>
<g><path style="opacity:0.004" fill="#cdcdcd" d="M 298.5,100.5 C 298.5,101.833 297.833,102.5 296.5,102.5C 296.833,101.5 297.5,100.833 298.5,100.5 Z"/></g>
<g><path style="opacity:0.008" fill="#cbcbcb" d="M 246.5,97.5 C 246.5,100.833 246.5,104.167 246.5,107.5C 250.167,107.5 253.833,107.5 257.5,107.5C 253.702,108.483 249.702,108.817 245.5,108.5C 245.185,104.629 245.518,100.962 246.5,97.5 Z"/></g>
<g><path style="opacity:0.007" fill="#c7c7c7" d="M 414.5,96.5 C 415.483,100.298 415.817,104.298 415.5,108.5C 411.116,108.826 406.783,108.492 402.5,107.5C 402.624,106.893 402.957,106.56 403.5,106.5C 406.962,107.482 410.629,107.815 414.5,107.5C 414.5,103.833 414.5,100.167 414.5,96.5 Z"/></g>
<g><path style="opacity:0.404" fill="#747474" d="M 366.5,105.5 C 366.706,108.495 366.04,111.162 364.5,113.5C 364.565,110.572 365.232,107.905 366.5,105.5 Z"/></g>
<g><path style="opacity:0.396" fill="#808080" d="M 232.5,109.5 C 233.483,113.298 233.817,117.298 233.5,121.5C 232.802,118.103 232.135,114.603 231.5,111C 232.056,110.617 232.389,110.117 232.5,109.5 Z"/></g>
<g><path style="opacity:0.271" fill="#999999" d="M 313.5,116.5 C 315.25,117.659 316.25,119.326 316.5,121.5C 314.75,120.341 313.75,118.674 313.5,116.5 Z"/></g>
<g><path style="opacity:0.447" fill="#535353" d="M 364.5,114.5 C 364.662,116.527 364.495,118.527 364,120.5C 363.617,121.056 363.117,121.389 362.5,121.5C 362.721,118.933 363.388,116.599 364.5,114.5 Z"/></g>
<g><path style="opacity:0.651" fill="#8f8f8f" d="M 317.5,122.5 C 319.404,122.738 320.738,123.738 321.5,125.5C 319.596,125.262 318.262,124.262 317.5,122.5 Z"/></g>
<g><path style="opacity:0.243" fill="#727272" d="M 377.5,117.5 C 377.037,120.482 376.704,123.482 376.5,126.5C 375.185,123.373 375.518,120.373 377.5,117.5 Z"/></g>
<g><path style="opacity:0.102" fill="#e2e2e2" d="M 328.5,127.5 C 326.901,127.768 325.568,127.434 324.5,126.5C 324.435,126.062 324.601,125.728 325,125.5C 326.302,126.085 327.469,126.751 328.5,127.5 Z"/></g>
<g><path style="opacity:0.188" fill="#909090" d="M 184.5,130.5 C 183.455,131.878 182.122,132.878 180.5,133.5C 181.048,131.468 182.381,130.468 184.5,130.5 Z"/></g>
<g><path style="opacity:0.227" fill="#ababab" d="M 476.5,130.5 C 478.179,130.285 479.179,130.952 479.5,132.5C 478.29,132.068 477.29,131.401 476.5,130.5 Z"/></g>
<g><path style="opacity:0.286" fill="#7e7e7e" d="M 481.5,133.5 C 482.906,133.973 483.573,134.973 483.5,136.5C 482.094,136.027 481.427,135.027 481.5,133.5 Z"/></g>
<g><path style="opacity:0.647" fill="#7b7b7b" d="M 178.5,135.5 C 178.262,137.404 177.262,138.738 175.5,139.5C 175.738,137.596 176.738,136.262 178.5,135.5 Z"/></g>
<g><path style="opacity:0.235" fill="#9c9c9c" d="M 483.5,136.5 C 484.906,136.973 485.573,137.973 485.5,139.5C 484.094,139.027 483.427,138.027 483.5,136.5 Z"/></g>
<g><path style="opacity:0.231" fill="#c1c1c1" d="M 374.5,140.5 C 373.833,142.5 373.167,144.5 372.5,146.5C 372.192,144.076 372.526,141.743 373.5,139.5C 374.107,139.624 374.44,139.957 374.5,140.5 Z"/></g>
<g><path style="opacity:0.282" fill="#afafaf" d="M 228.5,164.5 C 222.167,164.5 215.833,164.5 209.5,164.5C 209.5,166.5 209.5,168.5 209.5,170.5C 208.532,168.393 208.198,166.059 208.5,163.5C 215.354,163.176 222.021,163.509 228.5,164.5 Z"/></g>
<g><path style="opacity:0.012" fill="#cacaca" d="M 370.5,171.5 C 372.19,171.856 373.19,172.856 373.5,174.5C 371.81,174.144 370.81,173.144 370.5,171.5 Z"/></g>
<g><path style="opacity:0.588" fill="#8c8c8c" d="M 291.5,171.5 C 289.773,173.567 287.773,175.233 285.5,176.5C 286.593,173.739 288.593,172.073 291.5,171.5 Z"/></g>
<g><path style="opacity:0.353" fill="#888888" d="M 284.5,178.5 C 284.34,180.153 283.674,181.486 282.5,182.5C 282.229,180.62 282.896,179.287 284.5,178.5 Z"/></g>
<g><path style="opacity:0.373" fill="#8e8e8e" d="M 376.5,178.5 C 378.104,179.287 378.771,180.62 378.5,182.5C 377.326,181.486 376.66,180.153 376.5,178.5 Z"/></g>
<g><path style="opacity:0.267" fill="#8e8e8e" d="M 366.5,185.5 C 364.804,185.315 363.471,184.481 362.5,183C 340.761,182.179 319.094,182.345 297.5,183.5C 308.146,182.168 319.146,181.501 330.5,181.5C 341.5,181.667 352.5,181.833 363.5,182C 364.71,183.039 365.71,184.206 366.5,185.5 Z"/></g>
<g><path style="opacity:0.34" fill="#5f5f5f" d="M 372.5,146.5 C 372.5,147.833 372.5,149.167 372.5,150.5C 403.167,150.5 433.833,150.5 464.5,150.5C 464.5,203.833 464.5,257.167 464.5,310.5C 461.833,310.5 459.167,310.5 456.5,310.5C 458.607,309.532 460.941,309.198 463.5,309.5C 463.5,256.833 463.5,204.167 463.5,151.5C 432.833,151.5 402.167,151.5 371.5,151.5C 371.216,149.585 371.549,147.919 372.5,146.5 Z"/></g>
<g><path style="opacity:0.392" fill="#949494" d="M 282.5,192.5 C 283.537,193.93 284.204,195.597 284.5,197.5C 282.787,196.365 282.12,194.698 282.5,192.5 Z"/></g>
<g><path style="opacity:0.271" fill="#8d8d8d" d="M 295.5,190.5 C 296.627,191.122 297.627,191.955 298.5,193C 319.833,193.667 341.167,193.667 362.5,193C 363.471,191.519 364.804,190.685 366.5,190.5C 365.71,191.794 364.71,192.961 363.5,194C 341.5,194.667 319.5,194.667 297.5,194C 296.177,193.184 295.511,192.017 295.5,190.5 Z"/></g>
<g><path style="opacity:0.569" fill="#9c9c9c" d="M 285.5,199.5 C 287.71,199.894 289.043,201.227 289.5,203.5C 287.736,202.674 286.402,201.341 285.5,199.5 Z"/></g>
<g><path style="opacity:0.114" fill="#adadad" d="M 375.5,199.5 C 374.598,201.341 373.264,202.674 371.5,203.5C 371.957,201.227 373.29,199.894 375.5,199.5 Z"/></g>
<g><path style="opacity:0.369" fill="#666666" d="M 288.5,147.5 C 289.434,148.568 289.768,149.901 289.5,151.5C 258.833,151.5 228.167,151.5 197.5,151.5C 197.5,204.167 197.5,256.833 197.5,309.5C 219.007,309.169 240.34,309.503 261.5,310.5C 239.833,310.5 218.167,310.5 196.5,310.5C 196.5,257.167 196.5,203.833 196.5,150.5C 227.167,150.5 257.833,150.5 288.5,150.5C 288.5,149.5 288.5,148.5 288.5,147.5 Z"/></g>
<g><path style="opacity:0.451" fill="#888888" d="M 450.5,164.5 C 450.56,163.957 450.893,163.624 451.5,163.5C 452.831,207.665 452.831,251.665 451.5,295.5C 451.832,251.663 451.499,207.997 450.5,164.5 Z"/></g>
<g><path style="opacity:0.966" fill="#060606" d="M 232.5,242.5 C 228.833,243.833 225.167,243.833 221.5,242.5C 221.5,238.5 221.5,234.5 221.5,230.5C 225.167,230.5 228.833,230.5 232.5,230.5C 232.5,234.5 232.5,238.5 232.5,242.5 Z"/></g>
<g><path style="opacity:0.965" fill="#000000" d="M 258.5,230.5 C 258.5,230.833 258.5,231.167 258.5,231.5C 257.518,234.962 257.185,238.629 257.5,242.5C 253.833,242.5 250.167,242.5 246.5,242.5C 246.167,242.5 245.833,242.5 245.5,242.5C 245.5,238.5 245.5,234.5 245.5,230.5C 249.833,230.5 254.167,230.5 258.5,230.5 Z"/></g>
<g><path style="opacity:0.937" fill="#0c0c0c" d="M 282.5,230.5 C 282.824,234.555 282.491,238.555 281.5,242.5C 277.369,243.796 273.369,243.796 269.5,242.5C 269.5,238.5 269.5,234.5 269.5,230.5C 273.833,230.5 278.167,230.5 282.5,230.5 Z"/></g>
<g><path style="opacity:0.956" fill="#0b0b0b" d="M 378.5,230.5 C 382.833,230.5 387.167,230.5 391.5,230.5C 391.5,234.5 391.5,238.5 391.5,242.5C 387.366,243.485 383.032,243.818 378.5,243.5C 378.5,239.167 378.5,234.833 378.5,230.5 Z"/></g>
<g><path style="opacity:0.97" fill="#000000" d="M 403.5,230.5 C 407.5,230.5 411.5,230.5 415.5,230.5C 415.5,234.5 415.5,238.5 415.5,242.5C 415.5,238.5 415.5,234.5 415.5,230.5C 411.5,230.5 407.5,230.5 403.5,230.5 Z"/></g>
<g><path style="opacity:0.975" fill="#050505" d="M 439.5,242.5 C 435.833,243.833 432.167,243.833 428.5,242.5C 428.5,238.5 428.5,234.5 428.5,230.5C 432.167,230.5 435.833,230.5 439.5,230.5C 439.5,234.5 439.5,238.5 439.5,242.5 Z"/></g>
<g><path style="opacity:0.249" fill="#909090" d="M 439.5,242.5 C 439.5,238.5 439.5,234.5 439.5,230.5C 435.833,230.5 432.167,230.5 428.5,230.5C 428.5,234.5 428.5,238.5 428.5,242.5C 427.515,238.366 427.182,234.032 427.5,229.5C 431.833,229.5 436.167,229.5 440.5,229.5C 440.818,234.032 440.485,238.366 439.5,242.5 Z"/></g>
<g><path style="opacity:0.238" fill="#939393" d="M 232.5,242.5 C 232.5,238.5 232.5,234.5 232.5,230.5C 228.833,230.5 225.167,230.5 221.5,230.5C 221.5,234.5 221.5,238.5 221.5,242.5C 220.515,238.366 220.182,234.032 220.5,229.5C 224.833,229.5 229.167,229.5 233.5,229.5C 233.818,234.032 233.485,238.366 232.5,242.5 Z"/></g>
<g><path style="opacity:0.075" fill="#cecece" d="M 282.5,230.5 C 278.167,230.5 273.833,230.5 269.5,230.5C 269.5,234.5 269.5,238.5 269.5,242.5C 268.515,238.366 268.182,234.032 268.5,229.5C 273.363,229.181 278.03,229.514 282.5,230.5 Z"/></g>
<g><path style="opacity:0.078" fill="#d0d0d0" d="M 378.5,230.5 C 382.97,229.514 387.637,229.181 392.5,229.5C 392.818,234.032 392.485,238.366 391.5,242.5C 391.5,238.5 391.5,234.5 391.5,230.5C 387.167,230.5 382.833,230.5 378.5,230.5 Z"/></g>
<g><path style="opacity:0.188" fill="#bababa" d="M 258.5,230.5 C 254.167,230.5 249.833,230.5 245.5,230.5C 245.5,234.5 245.5,238.5 245.5,242.5C 244.515,238.366 244.182,234.032 244.5,229.5C 249.363,229.181 254.03,229.514 258.5,230.5 Z"/></g>
<g><path style="opacity:0.161" fill="#b8b8b8" d="M 402.5,230.5 C 406.97,229.514 411.637,229.181 416.5,229.5C 416.818,234.032 416.485,238.366 415.5,242.5C 415.5,238.5 415.5,234.5 415.5,230.5C 411.5,230.5 407.5,230.5 403.5,230.5C 403.167,230.5 402.833,230.5 402.5,230.5 Z"/></g>
<g><path style="opacity:0.086" fill="#454545" d="M 258.5,231.5 C 258.5,235.5 258.5,239.5 258.5,243.5C 254.298,243.817 250.298,243.483 246.5,242.5C 250.167,242.5 253.833,242.5 257.5,242.5C 257.185,238.629 257.518,234.962 258.5,231.5 Z"/></g>
<g><path style="opacity:0.114" fill="#3d3d3d" d="M 402.5,230.5 C 402.833,230.5 403.167,230.5 403.5,230.5C 403.5,234.5 403.5,238.5 403.5,242.5C 407.5,242.5 411.5,242.5 415.5,242.5C 411.366,243.485 407.032,243.818 402.5,243.5C 402.5,239.167 402.5,234.833 402.5,230.5 Z"/></g>
<g><path style="opacity:0.171" fill="#c5c5c5" d="M 293.5,250.5 C 294.308,252.22 295.308,253.887 296.5,255.5C 293.916,254.952 292.916,253.285 293.5,250.5 Z"/></g>
<g><path style="opacity:0.012" fill="#d2d2d2" d="M 367.5,251.5 C 367.912,253.973 366.912,255.306 364.5,255.5C 365.512,254.128 366.512,252.795 367.5,251.5 Z"/></g>
<g><path style="opacity:0.137" fill="#7b7a7b" d="M 209.5,286.5 C 209.5,289.833 209.5,293.167 209.5,296.5C 290.167,296.5 370.833,296.5 451.5,296.5C 370.668,297.499 289.668,297.833 208.5,297.5C 208.185,293.629 208.518,289.962 209.5,286.5 Z"/></g>
<g><path style="opacity:0.415" fill="#858585" d="M 392.5,310.5 C 398.833,309.167 405.167,309.167 411.5,310.5C 405.136,310.543 398.803,310.543 392.5,310.5 Z"/></g>
<g><path style="opacity:0.016" fill="#eaeaea" d="M 185.5,311.5 C 186.674,312.514 187.34,313.847 187.5,315.5C 185.896,314.713 185.229,313.38 185.5,311.5 Z"/></g>
<g><path style="opacity:0.031" fill="#dddddd" d="M 475.5,311.5 C 475.771,313.38 475.104,314.713 473.5,315.5C 473.66,313.847 474.326,312.514 475.5,311.5 Z"/></g>
<g><path style="opacity:0.059" fill="#ababab" d="M 471.5,318.5 C 470.571,319.315 469.571,320.148 468.5,321C 376.5,321.667 284.5,321.667 192.5,321C 191.944,320.617 191.611,320.117 191.5,319.5C 283.46,320.662 375.46,320.828 467.5,320C 468.563,318.812 469.897,318.312 471.5,318.5 Z"/></g>
<g><path style="opacity:0.165" fill="#989898" d="M 174.5,320.5 C 176.522,321.507 177.855,323.174 178.5,325.5C 176.478,324.493 175.145,322.826 174.5,320.5 Z"/></g>
<g><path style="opacity:0.153" fill="#aaaaaa" d="M 485.5,322.5 C 485.068,323.71 484.401,324.71 483.5,325.5C 483.285,323.821 483.952,322.821 485.5,322.5 Z"/></g>
<g><path style="opacity:0.129" fill="#b7b7b7" d="M 181.5,329.5 C 183.38,329.229 184.713,329.896 185.5,331.5C 183.847,331.34 182.514,330.674 181.5,329.5 Z"/></g>
<g><path style="opacity:0.616" fill="#5b5b5b" d="M 191.5,333.5 C 205.01,333.171 218.344,333.504 231.5,334.5C 227.563,334.207 223.73,334.54 220,335.5C 210.402,334.845 200.902,334.178 191.5,333.5 Z"/></g>
<g><path style="opacity:0.62" fill="#5a5a5a" d="M 242.5,334.5 C 246.5,333.167 250.5,333.167 254.5,334.5C 250.711,334.676 246.711,334.676 242.5,334.5 Z"/></g>
<g><path style="opacity:0.624" fill="#646464" d="M 365.5,334.5 C 360.014,334.34 354.348,334.673 348.5,335.5C 351.718,334.046 355.218,333.379 359,333.5C 361.361,333.504 363.527,333.837 365.5,334.5 Z"/></g>
<g><path style="opacity:0.624" fill="#5b5b5b" d="M 416.5,334.5 C 420.833,333.167 425.167,333.167 429.5,334.5C 424.956,334.66 420.622,334.66 416.5,334.5 Z"/></g>
<g><path style="opacity:0.621" fill="#747474" d="M 454.5,334.5 C 449.964,334.341 445.298,334.674 440.5,335.5C 442.223,334.2 444.39,333.533 447,333.5C 449.587,333.555 452.087,333.889 454.5,334.5 Z"/></g>
<g><path style="opacity:0.008" fill="#7f7f7f" d="M 308.5,334.5 C 315.659,333.802 322.993,333.802 330.5,334.5C 323.336,335.306 316.003,335.306 308.5,334.5 Z"/></g>
<g><path style="opacity:0.102" fill="#d2d2d2" d="M 274.5,334.5 C 275.494,344.319 275.827,354.319 275.5,364.5C 267.5,364.5 259.5,364.5 251.5,364.5C 251.5,368.5 251.5,372.5 251.5,376.5C 251.167,376.5 250.833,376.5 250.5,376.5C 250.5,372.167 250.5,367.833 250.5,363.5C 258.5,363.5 266.5,363.5 274.5,363.5C 274.5,353.833 274.5,344.167 274.5,334.5 Z"/></g>
</svg>
