<?xml version="1.0" encoding="UTF-8"?>
<!DOCTYPE svg PUBLIC "-//W3C//DTD SVG 1.1//EN" "http://www.w3.org/Graphics/SVG/1.1/DTD/svg11.dtd">
<svg xmlns="http://www.w3.org/2000/svg" version="1.1" width="225px" height="224px" style="shape-rendering:geometricPrecision; text-rendering:geometricPrecision; image-rendering:optimizeQuality; fill-rule:evenodd; clip-rule:evenodd" xmlns:xlink="http://www.w3.org/1999/xlink">
<g><path style="opacity:1" fill="#2bb079" d="M 140.5,14.5 C 140.5,14.1667 140.5,13.8333 140.5,13.5C 166.502,13.3334 192.502,13.5 218.5,14C 221.442,15.4361 223.442,17.6028 224.5,20.5C 224.5,34.1667 224.5,47.8333 224.5,61.5C 224.167,61.5 223.833,61.5 223.5,61.5C 223.667,48.1625 223.5,34.8292 223,21.5C 222.654,19.1523 221.487,17.3189 219.5,16C 193.256,14.518 166.922,14.018 140.5,14.5 Z"/></g>
<g><path style="opacity:1" fill="#20a365" d="M 140.5,14.5 C 140.5,30.5 140.5,46.5 140.5,62.5C 135.833,62.5 131.167,62.5 126.5,62.5C 126.699,59.059 126.199,55.7256 125,52.5C 123.681,50.5125 121.848,49.3459 119.5,49C 100.593,48.8266 81.76,48.3266 63,47.5C 61.6439,48.3802 60.1439,48.7135 58.5,48.5C 58.3335,39.1607 58.5002,29.8274 59,20.5C 59.6853,17.9427 61.1853,16.1094 63.5,15C 89.1645,14.5 114.831,14.3334 140.5,14.5 Z"/></g>
<g><path style="opacity:1" fill="#32c481" d="M 140.5,14.5 C 166.922,14.018 193.256,14.518 219.5,16C 221.487,17.3189 222.654,19.1523 223,21.5C 223.5,34.8292 223.667,48.1625 223.5,61.5C 196.005,62.4979 168.338,62.8313 140.5,62.5C 140.5,46.5 140.5,30.5 140.5,14.5 Z"/></g>
<g><path style="opacity:1" fill="#20915d" d="M 140.5,13.5 C 140.5,13.8333 140.5,14.1667 140.5,14.5C 114.831,14.3334 89.1645,14.5 63.5,15C 61.1853,16.1094 59.6853,17.9427 59,20.5C 58.5002,29.8274 58.3335,39.1607 58.5,48.5C 60.1439,48.7135 61.6439,48.3802 63,47.5C 81.76,48.3266 100.593,48.8266 119.5,49C 121.848,49.3459 123.681,50.5125 125,52.5C 126.199,55.7256 126.699,59.059 126.5,62.5C 124.167,62.5 121.833,62.5 119.5,62.5C 116.714,56.7703 112.047,54.4369 105.5,55.5C 89.1667,55.5 72.8333,55.5 56.5,55.5C 56.3335,43.4954 56.5001,31.4954 57,19.5C 58.1217,17.3762 59.6217,15.5429 61.5,14C 87.8312,13.5 114.165,13.3334 140.5,13.5 Z"/></g>
<g><path style="opacity:1" fill="#107b41" d="M 55.5,55.5 C 55.8333,55.5 56.1667,55.5 56.5,55.5C 72.8333,55.5 89.1667,55.5 105.5,55.5C 107.349,56.593 109.016,57.9263 110.5,59.5C 110.5,93.8333 110.5,128.167 110.5,162.5C 107.412,162.197 105.746,163.53 105.5,166.5C 72.8316,166.667 40.165,166.5 7.5,166C 6.43659,164.812 5.10326,164.312 3.5,164.5C 3.10767,162.821 2.60767,161.154 2,159.5C 1.33333,127.167 1.33333,94.8333 2,62.5C 3.16667,60 5,58.1667 7.5,57C 23.6719,56.8314 39.6719,56.3314 55.5,55.5 Z M 79.5,89.5 C 75.7487,93.9946 72.7487,98.9946 70.5,104.5C 68.6969,106.481 67.0303,108.648 65.5,111C 71.0297,120.008 76.6964,128.841 82.5,137.5C 82.5,137.833 82.5,138.167 82.5,138.5C 83.8056,140.816 85.1389,143.15 86.5,145.5C 81.5,146.833 76.5,146.833 71.5,145.5C 68.1389,139.438 64.8055,133.438 61.5,127.5C 60.2611,124.411 58.7611,121.411 57,118.5C 52.8378,124.826 49.3378,131.493 46.5,138.5C 44.4848,140.676 42.8181,143.176 41.5,146C 36.467,146.829 31.467,146.662 26.5,145.5C 29.0938,141.974 31.4271,138.308 33.5,134.5C 36.4285,130.306 39.0952,125.973 41.5,121.5C 43.8111,118.233 46.1444,114.9 48.5,111.5C 41.8333,100.167 35.1667,88.8333 28.5,77.5C 33.467,76.3377 38.467,76.1711 43.5,77C 48.0393,85.9124 52.7059,94.7458 57.5,103.5C 62.6266,94.7478 67.6266,85.9145 72.5,77C 77.1667,76.3333 81.8333,76.3333 86.5,77C 83.7624,80.9788 81.429,85.1454 79.5,89.5 Z"/></g>
<g><path style="opacity:1" fill="#197543" d="M 110.5,59.5 C 111.222,59.9175 111.722,60.5842 112,61.5C 112.5,78.1633 112.667,94.83 112.5,111.5C 112.972,128.928 112.472,146.261 111,163.5C 109.786,165.049 108.286,166.215 106.5,167C 89.8367,167.5 73.17,167.667 56.5,167.5C 39.83,167.667 23.1633,167.5 6.5,167C 5.05773,166.623 4.05773,165.79 3.5,164.5C 5.10326,164.312 6.43659,164.812 7.5,166C 40.165,166.5 72.8316,166.667 105.5,166.5C 105.746,163.53 107.412,162.197 110.5,162.5C 110.5,128.167 110.5,93.8333 110.5,59.5 Z"/></g>
<g><path style="opacity:1" fill="#064f26" d="M 105.5,55.5 C 112.047,54.4369 116.714,56.7703 119.5,62.5C 119.5,78.8333 119.5,95.1667 119.5,111.5C 119.167,111.5 118.833,111.5 118.5,111.5C 118.667,95.8298 118.5,80.1631 118,64.5C 116.667,63.1667 115.333,63.1667 114,64.5C 113.5,80.1631 113.333,95.8298 113.5,111.5C 113.167,111.5 112.833,111.5 112.5,111.5C 112.667,94.83 112.5,78.1633 112,61.5C 111.722,60.5842 111.222,59.9175 110.5,59.5C 109.016,57.9263 107.349,56.593 105.5,55.5 Z"/></g>
<g><path style="opacity:1" fill="#094725" d="M 118.5,111.5 C 116.833,111.5 115.167,111.5 113.5,111.5C 113.333,95.8298 113.5,80.1631 114,64.5C 115.333,63.1667 116.667,63.1667 118,64.5C 118.5,80.1631 118.667,95.8298 118.5,111.5 Z"/></g>
<g><path style="opacity:1" fill="#0e6f3a" d="M 119.5,62.5 C 121.833,62.5 124.167,62.5 126.5,62.5C 126.5,78.8333 126.5,95.1667 126.5,111.5C 124.5,111.5 122.5,111.5 120.5,111.5C 120.167,111.5 119.833,111.5 119.5,111.5C 119.5,95.1667 119.5,78.8333 119.5,62.5 Z"/></g>
<g><path style="opacity:1" fill="#107c42" d="M 126.5,62.5 C 131.167,62.5 135.833,62.5 140.5,62.5C 140.5,78.8333 140.5,95.1667 140.5,111.5C 139.833,111.5 139.167,111.5 138.5,111.5C 134.5,111.5 130.5,111.5 126.5,111.5C 126.5,95.1667 126.5,78.8333 126.5,62.5 Z"/></g>
<g><path style="opacity:1" fill="#20a264" d="M 223.5,61.5 C 223.833,61.5 224.167,61.5 224.5,61.5C 224.5,77.8333 224.5,94.1667 224.5,110.5C 223.833,110.833 223.167,111.167 222.5,111.5C 195.5,111.5 168.5,111.5 141.5,111.5C 141.167,111.5 140.833,111.5 140.5,111.5C 140.5,95.1667 140.5,78.8333 140.5,62.5C 168.338,62.8313 196.005,62.4979 223.5,61.5 Z"/></g>
<g><path style="opacity:0.549" fill="#22623f" d="M 55.5,55.5 C 39.6719,56.3314 23.6719,56.8314 7.5,57C 5,58.1667 3.16667,60 2,62.5C 1.33333,94.8333 1.33333,127.167 2,159.5C 2.60767,161.154 3.10767,162.821 3.5,164.5C 2.21009,163.942 1.37675,162.942 1,161.5C 0.333333,128.167 0.333333,94.8333 1,61.5C 2.16667,59 4,57.1667 6.5,56C 22.8299,55.5001 39.1633,55.3334 55.5,55.5 Z"/></g>
<g><path style="opacity:1" fill="#146f3d" d="M 79.5,89.5 C 81.429,85.1454 83.7624,80.9788 86.5,77C 81.8333,76.3333 77.1667,76.3333 72.5,77C 67.6266,85.9145 62.6266,94.7478 57.5,103.5C 52.7059,94.7458 48.0393,85.9124 43.5,77C 38.467,76.1711 33.467,76.3377 28.5,77.5C 35.1667,88.8333 41.8333,100.167 48.5,111.5C 46.1444,114.9 43.8111,118.233 41.5,121.5C 42.8973,117.134 43.8973,112.634 44.5,108C 42.5899,106.299 41.4232,104.133 41,101.5C 40.2588,102.641 39.4255,102.641 38.5,101.5C 37.6858,99.2338 37.1858,96.9005 37,94.5C 33.3492,88.6883 29.8492,82.855 26.5,77C 27.0085,75.8315 27.8419,74.9981 29,74.5C 34.083,75.3071 39.2497,75.8071 44.5,76C 47.6667,81.8333 50.8333,87.6667 54,93.5C 54.8333,92.5 55.6667,91.5 56.5,90.5C 57.7701,91.5622 58.9367,92.5622 60,93.5C 65.6791,87.1421 69.5124,79.8088 71.5,71.5C 76.9659,71.9274 82.2993,72.0941 87.5,72C 87.6566,78.9953 84.9899,84.8286 79.5,89.5 Z"/></g>
<g><path style="opacity:1" fill="#175b36" d="M 120.5,111.5 C 122.5,111.5 124.5,111.5 126.5,111.5C 130.5,111.5 134.5,111.5 138.5,111.5C 138.5,128.833 138.5,146.167 138.5,163.5C 166.939,162.288 194.939,162.288 222.5,163.5C 222.5,162.5 222.5,161.5 222.5,160.5C 222.833,160.5 223.167,160.5 223.5,160.5C 223.667,174.171 223.5,187.837 223,201.5C 222.214,204.583 220.381,206.749 217.5,208C 166.168,208.5 114.834,208.667 63.5,208.5C 60.7716,206.931 58.9383,204.598 58,201.5C 57.1864,196.98 57.353,192.646 58.5,188.5C 76.8364,188.667 95.1697,188.5 113.5,188C 115.362,186.634 117.028,185.134 118.5,183.5C 121.838,181.661 124.338,178.994 126,175.5C 126.5,154.503 126.667,133.503 126.5,112.5C 124.265,112.795 122.265,112.461 120.5,111.5 Z"/></g>
<g><path style="opacity:1" fill="#106034" d="M 138.5,111.5 C 139.167,111.5 139.833,111.5 140.5,111.5C 140.5,127.833 140.5,144.167 140.5,160.5C 167.833,160.5 195.167,160.5 222.5,160.5C 222.5,161.5 222.5,162.5 222.5,163.5C 194.939,162.288 166.939,162.288 138.5,163.5C 138.5,146.167 138.5,128.833 138.5,111.5 Z"/></g>
<g><path style="opacity:1" fill="#16653b" d="M 70.5,104.5 C 69.2626,107.162 68.4293,109.829 68,112.5C 71.2516,117.334 74.2516,122.334 77,127.5C 78.0113,128.337 79.1779,128.67 80.5,128.5C 80.3601,130.124 81.0267,131.29 82.5,132C 81.8333,132.333 81.1667,132.667 80.5,133C 81.5822,134.33 82.2488,135.83 82.5,137.5C 76.6964,128.841 71.0297,120.008 65.5,111C 67.0303,108.648 68.6969,106.481 70.5,104.5 Z"/></g>
<g><path style="opacity:1" fill="#12663b" d="M 33.5,134.5 C 31.4271,138.308 29.0938,141.974 26.5,145.5C 31.467,146.662 36.467,146.829 41.5,146C 42.8181,143.176 44.4848,140.676 46.5,138.5C 45.5798,141.508 44.2465,144.341 42.5,147C 36.8333,147.667 31.1667,147.667 25.5,147C 24.7203,145.927 24.887,144.76 26,143.5C 28.0608,139.988 30.5608,136.988 33.5,134.5 Z"/></g>
<g><path style="opacity:1" fill="#12683b" d="M 61.5,127.5 C 64.8055,133.438 68.1389,139.438 71.5,145.5C 76.5,146.833 81.5,146.833 86.5,145.5C 85.1389,143.15 83.8056,140.816 82.5,138.5C 85.9308,140.348 87.5975,143.348 87.5,147.5C 81.1318,147.83 74.7985,147.496 68.5,146.5C 66.4109,140.005 64.0776,133.672 61.5,127.5 Z"/></g>
<g><path style="opacity:1" fill="#167544" d="M 224.5,110.5 C 224.5,126.833 224.5,143.167 224.5,159.5C 223.833,159.5 223.5,159.833 223.5,160.5C 223.167,160.5 222.833,160.5 222.5,160.5C 195.167,160.5 167.833,160.5 140.5,160.5C 140.5,144.167 140.5,127.833 140.5,111.5C 140.833,111.5 141.167,111.5 141.5,111.5C 141.5,127.5 141.5,143.5 141.5,159.5C 168.5,159.5 195.5,159.5 222.5,159.5C 222.5,143.5 222.5,127.5 222.5,111.5C 223.167,111.167 223.833,110.833 224.5,110.5 Z"/></g>
<g><path style="opacity:1" fill="#0f7b42" d="M 141.5,111.5 C 168.5,111.5 195.5,111.5 222.5,111.5C 222.5,127.5 222.5,143.5 222.5,159.5C 195.5,159.5 168.5,159.5 141.5,159.5C 141.5,143.5 141.5,127.5 141.5,111.5 Z"/></g>
<g><path style="opacity:1" fill="#0a341c" d="M 112.5,111.5 C 112.833,111.5 113.167,111.5 113.5,111.5C 115.167,111.5 116.833,111.5 118.5,111.5C 118.833,111.5 119.167,111.5 119.5,111.5C 119.5,130.167 119.5,148.833 119.5,167.5C 118.601,170.99 116.268,173.157 112.5,174C 109.183,174.498 105.85,174.665 102.5,174.5C 104.631,173.686 106.964,173.186 109.5,173C 111.515,171.445 111.848,169.611 110.5,167.5C 92.5469,168.487 74.5469,168.82 56.5,168.5C 56.5,168.167 56.5,167.833 56.5,167.5C 73.17,167.667 89.8367,167.5 106.5,167C 108.286,166.215 109.786,165.049 111,163.5C 112.472,146.261 112.972,128.928 112.5,111.5 Z"/></g>
<g><path style="opacity:1" fill="#165331" d="M 119.5,111.5 C 119.833,111.5 120.167,111.5 120.5,111.5C 122.265,112.461 124.265,112.795 126.5,112.5C 126.667,133.503 126.5,154.503 126,175.5C 124.338,178.994 121.838,181.661 118.5,183.5C 119.038,181.883 119.371,180.216 119.5,178.5C 119.5,174.833 119.5,171.167 119.5,167.5C 119.5,148.833 119.5,130.167 119.5,111.5 Z"/></g>
<g><path style="opacity:1" fill="#0b2a19" d="M 102.5,174.5 C 87.1667,174.5 71.8333,174.5 56.5,174.5C 56.5,172.5 56.5,170.5 56.5,168.5C 74.5469,168.82 92.5469,168.487 110.5,167.5C 111.848,169.611 111.515,171.445 109.5,173C 106.964,173.186 104.631,173.686 102.5,174.5 Z"/></g>
<g><path style="opacity:1" fill="#154229" d="M 119.5,167.5 C 119.5,171.167 119.5,174.833 119.5,178.5C 118.359,180.229 116.693,181.229 114.5,181.5C 105.742,180.254 96.9085,179.587 88,179.5C 80.1667,179.667 72.3333,179.833 64.5,180C 62.7373,181.602 60.904,182.102 59,181.5C 58.5034,183.81 58.3367,186.143 58.5,188.5C 57.353,192.646 57.1864,196.98 58,201.5C 58.9383,204.598 60.7716,206.931 63.5,208.5C 63.5,208.833 63.5,209.167 63.5,209.5C 60.5722,208.409 58.4055,206.409 57,203.5C 56.5002,193.839 56.3335,184.172 56.5,174.5C 71.8333,174.5 87.1667,174.5 102.5,174.5C 105.85,174.665 109.183,174.498 112.5,174C 116.268,173.157 118.601,170.99 119.5,167.5 Z"/></g>
<g><path style="opacity:1" fill="#124829" d="M 119.5,178.5 C 119.371,180.216 119.038,181.883 118.5,183.5C 117.028,185.134 115.362,186.634 113.5,188C 95.1697,188.5 76.8364,188.667 58.5,188.5C 58.3367,186.143 58.5034,183.81 59,181.5C 60.904,182.102 62.7373,181.602 64.5,180C 72.3333,179.833 80.1667,179.667 88,179.5C 96.9085,179.587 105.742,180.254 114.5,181.5C 116.693,181.229 118.359,180.229 119.5,178.5 Z"/></g>
<g><path style="opacity:1" fill="#0d4322" d="M 224.5,159.5 C 224.5,174.167 224.5,188.833 224.5,203.5C 223.023,205.807 221.023,207.64 218.5,209C 166.834,209.5 115.168,209.667 63.5,209.5C 63.5,209.167 63.5,208.833 63.5,208.5C 114.834,208.667 166.168,208.5 217.5,208C 220.381,206.749 222.214,204.583 223,201.5C 223.5,187.837 223.667,174.171 223.5,160.5C 223.5,159.833 223.833,159.5 224.5,159.5 Z"/></g>
</svg>
