<?xml version="1.0" encoding="UTF-8"?>
<!DOCTYPE svg PUBLIC "-//W3C//DTD SVG 1.1//EN" "http://www.w3.org/Graphics/SVG/1.1/DTD/svg11.dtd">
<svg xmlns="http://www.w3.org/2000/svg" version="1.1" width="1920px" height="1054px" style="shape-rendering:geometricPrecision; text-rendering:geometricPrecision; image-rendering:optimizeQuality; fill-rule:evenodd; clip-rule:evenodd" xmlns:xlink="http://www.w3.org/1999/xlink">
<g><path style="opacity:0.999" fill="#fefefe" d="M -0.5,-0.5 C 639.5,-0.5 1279.5,-0.5 1919.5,-0.5C 1919.5,350.833 1919.5,702.167 1919.5,1053.5C 1279.5,1053.5 639.5,1053.5 -0.5,1053.5C -0.5,702.167 -0.5,350.833 -0.5,-0.5 Z"/></g>
<g><path style="opacity:1" fill="#fe3737" d="M 959.5,198.5 C 959.5,272.833 959.5,347.167 959.5,421.5C 919.833,421.5 880.167,421.5 840.5,421.5C 790.763,415.026 757.596,388.026 741,340.5C 728.979,285.061 746.813,242.228 794.5,212C 807.401,205.255 821.068,200.922 835.5,199C 876.832,198.5 918.165,198.333 959.5,198.5 Z"/></g>
<g><path style="opacity:1" fill="#ff7237" d="M 959.5,198.5 C 999.501,198.333 1039.5,198.5 1079.5,199C 1120.78,203.638 1151.28,224.138 1171,260.5C 1181.41,283.169 1184.41,306.836 1180,331.5C 1169.49,374.343 1143.33,402.843 1101.5,417C 1094.32,418.301 1087.32,419.801 1080.5,421.5C 1071.5,421.5 1062.5,421.5 1053.5,421.5C 1022.17,421.5 990.833,421.5 959.5,421.5C 959.5,347.167 959.5,272.833 959.5,198.5 Z"/></g>
<g><path style="opacity:1" fill="#874fff" d="M 840.5,421.5 C 880.167,421.5 919.833,421.5 959.5,421.5C 959.5,451.833 959.5,482.167 959.5,512.5C 959.5,525.5 959.5,538.5 959.5,551.5C 959.5,582.167 959.5,612.833 959.5,643.5C 918.165,643.667 876.832,643.5 835.5,643C 787.461,635.631 755.961,608.797 741,562.5C 729.455,509.446 745.955,467.613 790.5,437C 805.939,427.91 822.606,422.743 840.5,421.5 Z"/></g>
<g><path style="opacity:1" fill="#fefeff" d="M 959.5,421.5 C 990.833,421.5 1022.17,421.5 1053.5,421.5C 1003.14,432.192 971.808,462.525 959.5,512.5C 959.5,482.167 959.5,451.833 959.5,421.5 Z"/></g>
<g><path style="opacity:1" fill="#03b6ff" d="M 1053.5,421.5 C 1062.5,421.5 1071.5,421.5 1080.5,421.5C 1122.81,427.23 1153.31,449.23 1172,487.5C 1188.07,528.612 1183.07,566.945 1157,602.5C 1122.26,640.789 1080.09,652.289 1030.5,637C 992.061,620.731 968.395,592.231 959.5,551.5C 959.5,538.5 959.5,525.5 959.5,512.5C 971.808,462.525 1003.14,432.192 1053.5,421.5 Z"/></g>
<g><path style="opacity:1" fill="#24cb71" d="M 830.5,644.5 C 873.5,644.5 916.5,644.5 959.5,644.5C 959.667,685.168 959.5,725.835 959,766.5C 952.087,814.159 925.92,845.992 880.5,862C 832.173,874.054 792.007,861.221 760,823.5C 728.344,777.273 728.678,731.273 761,685.5C 779.215,663.474 802.382,649.808 830.5,644.5 Z"/></g>
</svg>
