<?xml version="1.0" encoding="UTF-8"?>
<!DOCTYPE svg PUBLIC "-//W3C//DTD SVG 1.1//EN" "http://www.w3.org/Graphics/SVG/1.1/DTD/svg11.dtd">
<svg xmlns="http://www.w3.org/2000/svg" version="1.1" width="662px" height="377px" style="shape-rendering:geometricPrecision; text-rendering:geometricPrecision; image-rendering:optimizeQuality; fill-rule:evenodd; clip-rule:evenodd" xmlns:xlink="http://www.w3.org/1999/xlink">
<g><path style="opacity:0.055" fill="#d0d0d0" d="M 489.5,24.5 C 494.536,24.3022 499.203,25.3022 503.5,27.5C 498.64,26.8669 493.973,25.8669 489.5,24.5 Z"/></g>
<g><path style="opacity:0.997" fill="#080808" d="M 489.5,24.5 C 493.973,25.8669 498.64,26.8669 503.5,27.5C 505.191,28.8637 506.858,30.197 508.5,31.5C 509.167,32.8333 510.167,33.8333 511.5,34.5C 512.401,35.2905 513.068,36.2905 513.5,37.5C 513.427,39.0269 514.094,40.0269 515.5,40.5C 515.427,42.0269 516.094,43.0269 517.5,43.5C 518.666,139.666 518.832,235.999 518,332.5C 517.623,333.942 516.79,334.942 515.5,335.5C 514.094,335.973 513.427,336.973 513.5,338.5C 513.068,339.71 512.401,340.71 511.5,341.5C 510.167,342.167 509.167,343.167 508.5,344.5C 506.777,346.218 504.777,347.551 502.5,348.5C 498.015,349.34 493.681,350.34 489.5,351.5C 383.5,351.5 277.5,351.5 171.5,351.5C 167.319,350.34 162.985,349.34 158.5,348.5C 157.738,346.738 156.404,345.738 154.5,345.5C 153.508,345.672 152.842,345.338 152.5,344.5C 151.833,343.167 150.833,342.167 149.5,341.5C 148.599,340.71 147.932,339.71 147.5,338.5C 147.446,336.368 146.446,335.035 144.5,334.5C 143.778,334.082 143.278,333.416 143,332.5C 142.168,235.999 142.334,139.666 143.5,43.5C 145.822,42.1979 147.155,40.1979 147.5,37.5C 147.932,36.2905 148.599,35.2905 149.5,34.5C 150.833,33.8333 151.833,32.8333 152.5,31.5C 152.842,30.6618 153.508,30.3284 154.5,30.5C 157.714,28.5357 161.047,26.869 164.5,25.5C 272.665,24.5005 380.999,24.1672 489.5,24.5 Z M 492.5,51.5 C 492.5,63.1667 492.5,74.8333 492.5,86.5C 384.5,86.5 276.5,86.5 168.5,86.5C 168.5,83.1667 168.5,79.8333 168.5,76.5C 168.5,68.1667 168.5,59.8333 168.5,51.5C 276.5,51.5 384.5,51.5 492.5,51.5 Z M 492.5,324.5 C 384.5,324.5 276.5,324.5 168.5,324.5C 168.5,256.167 168.5,187.833 168.5,119.5C 168.5,117.5 168.5,115.5 168.5,113.5C 276.5,113.5 384.5,113.5 492.5,113.5C 492.5,183.833 492.5,254.167 492.5,324.5 Z"/></g>
<g><path style="opacity:0.345" fill="#a1a1a1" d="M 164.5,25.5 C 161.047,26.869 157.714,28.5357 154.5,30.5C 156.836,27.0628 160.17,25.3962 164.5,25.5 Z"/></g>
<g><path style="opacity:0.008" fill="#bdbdbd" d="M 508.5,31.5 C 510.5,31.5 511.5,32.5 511.5,34.5C 510.167,33.8333 509.167,32.8333 508.5,31.5 Z"/></g>
<g><path style="opacity:0.161" fill="#a9a9a9" d="M 152.5,31.5 C 151.833,32.8333 150.833,33.8333 149.5,34.5C 149.5,32.5 150.5,31.5 152.5,31.5 Z"/></g>
<g><path style="opacity:0.216" fill="#8a8a8a" d="M 147.5,37.5 C 147.155,40.1979 145.822,42.1979 143.5,43.5C 144.34,41.1475 145.674,39.1475 147.5,37.5 Z"/></g>
<g><path style="opacity:0.235" fill="#868686" d="M 513.5,37.5 C 514.906,37.9731 515.573,38.9731 515.5,40.5C 514.094,40.0269 513.427,39.0269 513.5,37.5 Z"/></g>
<g><path style="opacity:0.157" fill="#aeaeae" d="M 515.5,40.5 C 516.906,40.9731 517.573,41.9731 517.5,43.5C 516.094,43.0269 515.427,42.0269 515.5,40.5 Z"/></g>
<g><path style="opacity:0.084" fill="#a4a4a4" d="M 258.5,59.5 C 256.097,59.448 253.764,59.7814 251.5,60.5C 252.312,59.0069 253.645,58.3402 255.5,58.5C 256.726,58.5195 257.726,58.8529 258.5,59.5 Z"/></g>
<g><path style="opacity:0.986" fill="#0b0b0b" d="M 192.5,59.5 C 195.167,60.1667 197.833,60.8333 200.5,61.5C 202.5,61.5 203.5,62.5 203.5,64.5C 204.219,66.7638 204.552,69.0971 204.5,71.5C 202.787,72.6354 202.12,74.302 202.5,76.5C 200.09,77.3886 197.59,78.0552 195,78.5C 192.558,78.5177 190.392,77.851 188.5,76.5C 188.011,75.0048 187.345,73.6715 186.5,72.5C 185.167,69.8333 185.167,67.1667 186.5,64.5C 188.781,63.1815 190.781,61.5148 192.5,59.5 Z"/></g>
<g><path style="opacity:0.535" fill="#595959" d="M 192.5,59.5 C 195.618,57.9932 198.285,58.6599 200.5,61.5C 197.833,60.8333 195.167,60.1667 192.5,59.5 Z"/></g>
<g><path style="opacity:0.989" fill="#191919" d="M 229.5,77.5 C 226.43,77.6323 223.43,77.299 220.5,76.5C 219.5,76.5 218.5,76.5 217.5,76.5C 215.915,72.9892 215.415,69.3225 216,65.5C 222.313,56.1716 228.647,56.1716 235,65.5C 235.585,69.3225 235.085,72.9892 233.5,76.5C 232.041,76.4326 230.708,76.7659 229.5,77.5 Z"/></g>
<g><path style="opacity:0.987" fill="#151515" d="M 258.5,59.5 C 260.404,59.7376 261.738,60.7376 262.5,62.5C 262.427,64.0269 263.094,65.0269 264.5,65.5C 266.277,72.9093 263.277,77.2426 255.5,78.5C 252.822,77.8246 250.156,77.158 247.5,76.5C 246.842,73.8445 246.175,71.1778 245.5,68.5C 245.52,67.2739 245.853,66.2739 246.5,65.5C 248.167,63.8333 249.833,62.1667 251.5,60.5C 253.764,59.7814 256.097,59.448 258.5,59.5 Z"/></g>
<g><path style="opacity:0.62" fill="#7a7a7a" d="M 192.5,59.5 C 190.781,61.5148 188.781,63.1815 186.5,64.5C 186.5,63.5 186.5,62.5 186.5,61.5C 188.685,61.2964 190.685,60.6298 192.5,59.5 Z"/></g>
<g><path style="opacity:0.502" fill="#5e5e5e" d="M 251.5,60.5 C 249.833,62.1667 248.167,63.8333 246.5,65.5C 246.833,62.5 248.5,60.8333 251.5,60.5 Z"/></g>
<g><path style="opacity:0.722" fill="#808080" d="M 262.5,62.5 C 263.906,62.9731 264.573,63.9731 264.5,65.5C 263.094,65.0269 262.427,64.0269 262.5,62.5 Z"/></g>
<g><path style="opacity:0.035" fill="#cecece" d="M 203.5,64.5 C 204.993,65.3121 205.66,66.6455 205.5,68.5C 205.48,69.7261 205.147,70.7261 204.5,71.5C 204.552,69.0971 204.219,66.7638 203.5,64.5 Z"/></g>
<g><path style="opacity:0.078" fill="#cacaca" d="M 186.5,72.5 C 187.345,73.6715 188.011,75.0048 188.5,76.5C 186.824,75.8166 186.157,74.4832 186.5,72.5 Z"/></g>
<g><path style="opacity:0.353" fill="#a6a6a6" d="M 204.5,71.5 C 204.204,73.403 203.537,75.0697 202.5,76.5C 202.12,74.302 202.787,72.6354 204.5,71.5 Z"/></g>
<g><path style="opacity:0.055" fill="#696869" d="M 492.5,51.5 C 493.495,63.3217 493.828,75.3217 493.5,87.5C 384.833,87.5 276.167,87.5 167.5,87.5C 167.185,83.6286 167.518,79.9619 168.5,76.5C 168.5,79.8333 168.5,83.1667 168.5,86.5C 276.5,86.5 384.5,86.5 492.5,86.5C 492.5,74.8333 492.5,63.1667 492.5,51.5 Z"/></g>
<g><path style="opacity:0.612" fill="#5d5d5d" d="M 220.5,76.5 C 223.43,77.299 226.43,77.6323 229.5,77.5C 227.034,78.6341 224.367,78.8007 221.5,78C 220.944,77.6174 220.611,77.1174 220.5,76.5 Z"/></g>
<g><path style="opacity:0.267" fill="#c3c3c3" d="M 492.5,324.5 C 492.5,254.167 492.5,183.833 492.5,113.5C 384.5,113.5 276.5,113.5 168.5,113.5C 168.5,115.5 168.5,117.5 168.5,119.5C 167.532,117.393 167.198,115.059 167.5,112.5C 276.167,112.5 384.833,112.5 493.5,112.5C 493.833,183.335 493.499,254.002 492.5,324.5 Z"/></g>
<g><path style="opacity:0.995" fill="#0a0a0a" d="M 377.5,146.5 C 377.738,148.404 378.738,149.738 380.5,150.5C 383.228,155.684 382.895,160.684 379.5,165.5C 377.634,167.001 376.301,169.001 375.5,171.5C 375.011,172.995 374.345,174.329 373.5,175.5C 372.326,176.514 371.66,177.847 371.5,179.5C 369.884,181.738 368.551,184.071 367.5,186.5C 366.094,186.973 365.427,187.973 365.5,189.5C 360.233,199.426 354.567,209.092 348.5,218.5C 347.326,219.514 346.66,220.847 346.5,222.5C 344.378,228.298 341.378,233.632 337.5,238.5C 336.094,238.973 335.427,239.973 335.5,241.5C 333.988,245.201 331.988,248.534 329.5,251.5C 327.896,252.287 327.229,253.62 327.5,255.5C 325.125,260.392 322.458,265.059 319.5,269.5C 317.824,270.183 317.157,271.517 317.5,273.5C 315.485,276.869 313.485,280.202 311.5,283.5C 309.738,284.262 308.738,285.596 308.5,287.5C 307.599,288.29 306.932,289.29 306.5,290.5C 306.5,291.167 306.167,291.5 305.5,291.5C 304.29,291.932 303.29,292.599 302.5,293.5C 301.036,294.16 299.369,294.493 297.5,294.5C 294.795,294.684 292.462,294.017 290.5,292.5C 289.738,290.738 288.404,289.738 286.5,289.5C 283.84,284.531 283.84,279.531 286.5,274.5C 288.88,272.418 290.546,269.751 291.5,266.5C 292.024,264.694 292.691,263.028 293.5,261.5C 296.776,260.878 298.109,258.878 297.5,255.5C 297.989,254.005 298.655,252.671 299.5,251.5C 301.262,250.738 302.262,249.404 302.5,247.5C 302.615,245.053 303.615,243.053 305.5,241.5C 307.897,239.338 309.564,236.671 310.5,233.5C 310.328,232.508 310.662,231.842 311.5,231.5C 313.104,230.713 313.771,229.38 313.5,227.5C 315.653,224.703 317.319,221.703 318.5,218.5C 319.906,218.027 320.573,217.027 320.5,215.5C 321.839,213.127 323.172,210.793 324.5,208.5C 325.974,207.564 326.974,206.23 327.5,204.5C 327.794,201.246 329.127,198.579 331.5,196.5C 333.366,194.999 334.699,192.999 335.5,190.5C 335.833,189.833 336.167,189.167 336.5,188.5C 337.674,187.486 338.34,186.153 338.5,184.5C 339.807,181.22 341.473,178.22 343.5,175.5C 345.25,174.341 346.25,172.674 346.5,170.5C 347.104,167.782 348.437,165.449 350.5,163.5C 351.906,163.027 352.573,162.027 352.5,160.5C 353.079,157.669 354.412,155.336 356.5,153.5C 358.408,152.514 359.408,150.848 359.5,148.5C 361.854,145.54 365.02,144.207 369,144.5C 372.03,144.481 374.863,145.147 377.5,146.5 Z"/></g>
<g><path style="opacity:0.345" fill="#b6b6b6" d="M 377.5,146.5 C 379.262,147.262 380.262,148.596 380.5,150.5C 378.738,149.738 377.738,148.404 377.5,146.5 Z"/></g>
<g><path style="opacity:0.898" fill="#595959" d="M 359.5,148.5 C 359.408,150.848 358.408,152.514 356.5,153.5C 356.75,151.326 357.75,149.659 359.5,148.5 Z"/></g>
<g><path style="opacity:0.996" fill="#090909" d="M 265.5,162.5 C 265.427,164.027 266.094,165.027 267.5,165.5C 267.946,170.071 267.28,174.404 265.5,178.5C 264.833,179.833 263.833,180.833 262.5,181.5C 260.833,182.5 259.5,183.833 258.5,185.5C 257.833,186.833 256.833,187.833 255.5,188.5C 253.738,189.262 252.738,190.596 252.5,192.5C 251.5,193.167 250.5,193.833 249.5,194.5C 247.738,195.262 246.738,196.596 246.5,198.5C 243.833,201.833 240.833,204.833 237.5,207.5C 236.167,207.5 235.5,208.167 235.5,209.5C 233.5,210.833 231.833,212.5 230.5,214.5C 228.5,214.5 227.5,215.5 227.5,217.5C 226.833,217.5 226.5,217.833 226.5,218.5C 225.611,220.025 226.278,221.025 228.5,221.5C 229.833,222.167 230.833,223.167 231.5,224.5C 231.856,226.19 232.856,227.19 234.5,227.5C 240.194,232.527 245.527,237.86 250.5,243.5C 250.81,245.144 251.81,246.144 253.5,246.5C 254.833,247.167 255.833,248.167 256.5,249.5C 256.957,251.773 258.29,253.106 260.5,253.5C 267.498,257.502 270.165,263.502 268.5,271.5C 267.167,272.167 266.167,273.167 265.5,274.5C 264.833,275.833 263.833,276.833 262.5,277.5C 258.742,279.254 254.742,279.921 250.5,279.5C 248.304,278.162 246.304,276.495 244.5,274.5C 244.167,273.5 243.5,272.833 242.5,272.5C 240.861,271.527 239.527,270.194 238.5,268.5C 238.167,267.5 237.5,266.833 236.5,266.5C 228.175,258.675 220.008,250.675 212,242.5C 211.536,241.906 211.369,241.239 211.5,240.5C 211.027,239.094 210.027,238.427 208.5,238.5C 204.139,233.807 199.805,229.141 195.5,224.5C 195.167,221.833 194.833,219.167 194.5,216.5C 195.674,215.486 196.34,214.153 196.5,212.5C 196.427,210.973 197.094,209.973 198.5,209.5C 201.5,208.5 203.5,206.5 204.5,203.5C 206.174,200.493 208.507,198.159 211.5,196.5C 214.5,195.5 216.5,193.5 217.5,190.5C 218.239,190.631 218.906,190.464 219.5,190C 220.748,188.6 221.748,187.1 222.5,185.5C 222.833,184.5 223.5,183.833 224.5,183.5C 225.931,182.918 227.264,182.085 228.5,181C 229.252,180.329 229.586,179.496 229.5,178.5C 229.5,177.833 229.833,177.5 230.5,177.5C 233.167,176.833 234.833,175.167 235.5,172.5C 235.5,171.833 235.833,171.5 236.5,171.5C 238.452,170.215 240.118,168.549 241.5,166.5C 241.833,165.5 242.5,164.833 243.5,164.5C 245.549,163.118 247.215,161.452 248.5,159.5C 254.885,156.287 260.551,157.287 265.5,162.5 Z"/></g>
<g><path style="opacity:0.995" fill="#080808" d="M 426.5,172.5 C 426.731,175.063 428.065,176.73 430.5,177.5C 431.167,177.833 431.833,178.167 432.5,178.5C 432.833,180.833 434.167,182.167 436.5,182.5C 436.833,183.5 437.5,184.167 438.5,184.5C 438.731,187.063 440.065,188.73 442.5,189.5C 443.5,190.167 444.5,190.833 445.5,191.5C 445.738,193.404 446.738,194.738 448.5,195.5C 450.191,196.864 451.858,198.197 453.5,199.5C 453.427,201.027 454.094,202.027 455.5,202.5C 456.833,203.5 458.167,204.5 459.5,205.5C 459.427,207.027 460.094,208.027 461.5,208.5C 462.167,208.5 462.5,208.833 462.5,209.5C 462.738,211.404 463.738,212.738 465.5,213.5C 466.404,214.209 466.737,215.209 466.5,216.5C 466.167,219.167 465.833,221.833 465.5,224.5C 463.183,228.482 460.183,231.815 456.5,234.5C 454.5,234.5 453.5,235.5 453.5,237.5C 446.5,245.167 439.167,252.5 431.5,259.5C 430.167,259.5 429.5,260.167 429.5,261.5C 428.647,263.893 426.981,265.226 424.5,265.5C 423.599,266.29 422.932,267.29 422.5,268.5C 421.167,269.833 419.833,271.167 418.5,272.5C 417.5,272.833 416.833,273.5 416.5,274.5C 415.306,275.272 414.306,276.272 413.5,277.5C 408.466,280.091 403.466,280.091 398.5,277.5C 397.167,276.5 395.833,275.5 394.5,274.5C 394.125,272.302 393.458,270.302 392.5,268.5C 392.337,266.143 392.503,263.81 393,261.5C 395.174,259.134 397.34,256.801 399.5,254.5C 402.386,253.404 404.386,251.404 405.5,248.5C 406.239,248.631 406.906,248.464 407.5,248C 409.21,246.349 410.544,244.516 411.5,242.5C 414.404,241.386 416.404,239.386 417.5,236.5C 421.479,231.854 425.812,227.521 430.5,223.5C 432.56,222.785 434.226,221.451 435.5,219.5C 435.376,218.893 435.043,218.56 434.5,218.5C 434.5,218.167 434.5,217.833 434.5,217.5C 433.415,215.413 431.749,214.08 429.5,213.5C 428.833,212.5 428.167,211.5 427.5,210.5C 426.5,208.833 425.167,207.5 423.5,206.5C 422.833,205.833 422.167,205.167 421.5,204.5C 420.5,202.833 419.167,201.5 417.5,200.5C 416.5,200.167 415.833,199.5 415.5,198.5C 414.5,196.833 413.167,195.5 411.5,194.5C 410.167,193.833 409.167,192.833 408.5,191.5C 407.833,190.167 406.833,189.167 405.5,188.5C 404.167,187.833 403.167,186.833 402.5,185.5C 401.5,183.833 400.167,182.5 398.5,181.5C 397.306,180.728 396.306,179.728 395.5,178.5C 393.72,174.404 393.054,170.071 393.5,165.5C 394.906,165.027 395.573,164.027 395.5,162.5C 400.242,157.483 405.909,156.316 412.5,159C 417.035,163.703 421.702,168.203 426.5,172.5 Z"/></g>
<g><path style="opacity:0.212" fill="#8f8f8f" d="M 248.5,159.5 C 247.215,161.452 245.549,163.118 243.5,164.5C 244.144,161.856 245.811,160.189 248.5,159.5 Z"/></g>
<g><path style="opacity:0.169" fill="#9e9e9e" d="M 352.5,160.5 C 352.573,162.027 351.906,163.027 350.5,163.5C 350.427,161.973 351.094,160.973 352.5,160.5 Z"/></g>
<g><path style="opacity:0.161" fill="#adadad" d="M 265.5,162.5 C 266.906,162.973 267.573,163.973 267.5,165.5C 266.094,165.027 265.427,164.027 265.5,162.5 Z"/></g>
<g><path style="opacity:0.173" fill="#a9a9a9" d="M 395.5,162.5 C 395.573,164.027 394.906,165.027 393.5,165.5C 393.427,163.973 394.094,162.973 395.5,162.5 Z"/></g>
<g><path style="opacity:0.31" fill="#a8a8a8" d="M 379.5,165.5 C 379.063,168.225 377.73,170.225 375.5,171.5C 376.301,169.001 377.634,167.001 379.5,165.5 Z"/></g>
<g><path style="opacity:0.208" fill="#909090" d="M 241.5,166.5 C 240.118,168.549 238.452,170.215 236.5,171.5C 237.189,168.811 238.856,167.144 241.5,166.5 Z"/></g>
<g><path style="opacity:0.07" fill="#e0e0e0" d="M 393.5,165.5 C 393.054,170.071 393.72,174.404 395.5,178.5C 394.25,178.423 393.417,177.756 393,176.5C 392.19,172.642 392.357,168.976 393.5,165.5 Z"/></g>
<g><path style="opacity:0.07" fill="#e0e0e0" d="M 267.5,165.5 C 268.643,168.976 268.81,172.642 268,176.5C 267.583,177.756 266.75,178.423 265.5,178.5C 267.28,174.404 267.946,170.071 267.5,165.5 Z"/></g>
<g><path style="opacity:0.118" fill="#adadad" d="M 346.5,170.5 C 346.25,172.674 345.25,174.341 343.5,175.5C 343.75,173.326 344.75,171.659 346.5,170.5 Z"/></g>
<g><path style="opacity:0.729" fill="#808080" d="M 235.5,172.5 C 234.833,175.167 233.167,176.833 230.5,177.5C 231.833,175.5 233.5,173.833 235.5,172.5 Z"/></g>
<g><path style="opacity:0.169" fill="#878787" d="M 426.5,172.5 C 428.207,173.873 429.54,175.539 430.5,177.5C 428.065,176.73 426.731,175.063 426.5,172.5 Z"/></g>
<g><path style="opacity:0.051" fill="#b0b0b0" d="M 373.5,175.5 C 373.771,177.38 373.104,178.713 371.5,179.5C 371.66,177.847 372.326,176.514 373.5,175.5 Z"/></g>
<g><path style="opacity:0.773" fill="#6a6a6a" d="M 229.5,178.5 C 229.586,179.496 229.252,180.329 228.5,181C 227.264,182.085 225.931,182.918 224.5,183.5C 225.5,181.167 227.167,179.5 229.5,178.5 Z"/></g>
<g><path style="opacity:0.176" fill="#a7a7a7" d="M 432.5,178.5 C 434.167,179.5 435.5,180.833 436.5,182.5C 434.167,182.167 432.833,180.833 432.5,178.5 Z"/></g>
<g><path style="opacity:0.008" fill="#c6c6c6" d="M 398.5,181.5 C 400.167,182.5 401.5,183.833 402.5,185.5C 400.167,185.167 398.833,183.833 398.5,181.5 Z"/></g>
<g><path style="opacity:0.027" fill="#cdcdcd" d="M 262.5,181.5 C 262.167,183.833 260.833,185.167 258.5,185.5C 259.5,183.833 260.833,182.5 262.5,181.5 Z"/></g>
<g><path style="opacity:0.047" fill="#c5c5c5" d="M 338.5,184.5 C 338.34,186.153 337.674,187.486 336.5,188.5C 336.229,186.62 336.896,185.287 338.5,184.5 Z"/></g>
<g><path style="opacity:0.188" fill="#898989" d="M 438.5,184.5 C 440.207,185.873 441.54,187.539 442.5,189.5C 440.065,188.73 438.731,187.063 438.5,184.5 Z"/></g>
<g><path style="opacity:0.102" fill="#a5a5a5" d="M 367.5,186.5 C 367.573,188.027 366.906,189.027 365.5,189.5C 365.427,187.973 366.094,186.973 367.5,186.5 Z"/></g>
<g><path style="opacity:0.788" fill="#7d7d7d" d="M 222.5,185.5 C 221.748,187.1 220.748,188.6 219.5,190C 218.906,190.464 218.239,190.631 217.5,190.5C 218.5,188.167 220.167,186.5 222.5,185.5 Z"/></g>
<g><path style="opacity:0.027" fill="#b5b5b5" d="M 405.5,188.5 C 406.833,189.167 407.833,190.167 408.5,191.5C 406.5,191.5 405.5,190.5 405.5,188.5 Z"/></g>
<g><path style="opacity:0.024" fill="#d5d5d5" d="M 255.5,188.5 C 255.262,190.404 254.262,191.738 252.5,192.5C 252.738,190.596 253.738,189.262 255.5,188.5 Z"/></g>
<g><path style="opacity:0.22" fill="#7f7f7f" d="M 335.5,190.5 C 334.699,192.999 333.366,194.999 331.5,196.5C 331.937,193.775 333.27,191.775 335.5,190.5 Z"/></g>
<g><path style="opacity:0.192" fill="#9f9f9f" d="M 445.5,191.5 C 447.262,192.262 448.262,193.596 448.5,195.5C 446.738,194.738 445.738,193.404 445.5,191.5 Z"/></g>
<g><path style="opacity:0.749" fill="#6d6d6d" d="M 217.5,190.5 C 216.5,193.5 214.5,195.5 211.5,196.5C 213.167,194.167 215.167,192.167 217.5,190.5 Z"/></g>
<g><path style="opacity:0.027" fill="#a8a8a8" d="M 249.5,194.5 C 249.262,196.404 248.262,197.738 246.5,198.5C 246.738,196.596 247.738,195.262 249.5,194.5 Z"/></g>
<g><path style="opacity:0.027" fill="#c0c0c0" d="M 411.5,194.5 C 413.167,195.5 414.5,196.833 415.5,198.5C 413.167,198.167 411.833,196.833 411.5,194.5 Z"/></g>
<g><path style="opacity:0.251" fill="#929292" d="M 453.5,199.5 C 454.906,199.973 455.573,200.973 455.5,202.5C 454.094,202.027 453.427,201.027 453.5,199.5 Z"/></g>
<g><path style="opacity:0.024" fill="#bebebe" d="M 417.5,200.5 C 419.167,201.5 420.5,202.833 421.5,204.5C 419.167,204.167 417.833,202.833 417.5,200.5 Z"/></g>
<g><path style="opacity:0.129" fill="#aeaeae" d="M 327.5,204.5 C 326.974,206.23 325.974,207.564 324.5,208.5C 324.554,206.368 325.554,205.035 327.5,204.5 Z"/></g>
<g><path style="opacity:0.161" fill="#a3a3a3" d="M 459.5,205.5 C 460.906,205.973 461.573,206.973 461.5,208.5C 460.094,208.027 459.427,207.027 459.5,205.5 Z"/></g>
<g><path style="opacity:0.016" fill="#bbbbbb" d="M 423.5,206.5 C 425.167,207.5 426.5,208.833 427.5,210.5C 425.167,210.167 423.833,208.833 423.5,206.5 Z"/></g>
<g><path style="opacity:0.733" fill="#747474" d="M 204.5,203.5 C 203.5,206.5 201.5,208.5 198.5,209.5C 200.167,207.167 202.167,205.167 204.5,203.5 Z"/></g>
<g><path style="opacity:0.039" fill="#c2c2c2" d="M 237.5,207.5 C 237.167,208.5 236.5,209.167 235.5,209.5C 235.5,208.167 236.167,207.5 237.5,207.5 Z"/></g>
<g><path style="opacity:0.678" fill="#868686" d="M 462.5,209.5 C 464.262,210.262 465.262,211.596 465.5,213.5C 463.738,212.738 462.738,211.404 462.5,209.5 Z"/></g>
<g><path style="opacity:0.494" fill="#adadad" d="M 429.5,213.5 C 431.749,214.08 433.415,215.413 434.5,217.5C 432.251,216.92 430.585,215.587 429.5,213.5 Z"/></g>
<g><path style="opacity:0.086" fill="#999999" d="M 196.5,212.5 C 196.34,214.153 195.674,215.486 194.5,216.5C 194.229,214.62 194.896,213.287 196.5,212.5 Z"/></g>
<g><path style="opacity:0.043" fill="#cacaca" d="M 230.5,214.5 C 229.833,215.833 228.833,216.833 227.5,217.5C 227.5,215.5 228.5,214.5 230.5,214.5 Z"/></g>
<g><path style="opacity:0.314" fill="#b2b2b2" d="M 320.5,215.5 C 320.573,217.027 319.906,218.027 318.5,218.5C 318.427,216.973 319.094,215.973 320.5,215.5 Z"/></g>
<g><path style="opacity:0.227" fill="#8b8b8b" d="M 226.5,218.5 C 227.551,219.222 228.218,220.222 228.5,221.5C 226.278,221.025 225.611,220.025 226.5,218.5 Z"/></g>
<g><path style="opacity:0.11" fill="#a5a5a5" d="M 348.5,218.5 C 348.771,220.38 348.104,221.713 346.5,222.5C 346.66,220.847 347.326,219.514 348.5,218.5 Z"/></g>
<g><path style="opacity:0.306" fill="#bcbcbc" d="M 466.5,216.5 C 467.746,219.293 467.413,221.96 465.5,224.5C 465.833,221.833 466.167,219.167 466.5,216.5 Z"/></g>
<g><path style="opacity:0.333" fill="#676767" d="M 434.5,218.5 C 435.043,218.56 435.376,218.893 435.5,219.5C 434.226,221.451 432.56,222.785 430.5,223.5C 431.604,221.611 432.937,219.945 434.5,218.5 Z"/></g>
<g><path style="opacity:0.012" fill="#b4b4b4" d="M 194.5,216.5 C 194.833,219.167 195.167,221.833 195.5,224.5C 193.587,221.96 193.254,219.293 194.5,216.5 Z"/></g>
<g><path style="opacity:0.541" fill="#858585" d="M 231.5,224.5 C 233.144,224.81 234.144,225.81 234.5,227.5C 232.856,227.19 231.856,226.19 231.5,224.5 Z"/></g>
<g><path style="opacity:0.176" fill="#bdbdbd" d="M 313.5,227.5 C 313.771,229.38 313.104,230.713 311.5,231.5C 311.66,229.847 312.326,228.514 313.5,227.5 Z"/></g>
<g><path style="opacity:0.188" fill="#cbcbcb" d="M 456.5,234.5 C 455.833,235.833 454.833,236.833 453.5,237.5C 453.5,235.5 454.5,234.5 456.5,234.5 Z"/></g>
<g><path style="opacity:0.459" fill="#888888" d="M 310.5,233.5 C 309.564,236.671 307.897,239.338 305.5,241.5C 306.436,238.329 308.103,235.662 310.5,233.5 Z"/></g>
<g><path style="opacity:0.388" fill="#737172" d="M 417.5,236.5 C 416.404,239.386 414.404,241.386 411.5,242.5C 413.027,240.061 415.027,238.061 417.5,236.5 Z"/></g>
<g><path style="opacity:0.361" fill="#868686" d="M 208.5,238.5 C 210.027,238.427 211.027,239.094 211.5,240.5C 209.973,240.573 208.973,239.906 208.5,238.5 Z"/></g>
<g><path style="opacity:0.008" fill="#c4c4c4" d="M 337.5,238.5 C 337.573,240.027 336.906,241.027 335.5,241.5C 335.427,239.973 336.094,238.973 337.5,238.5 Z"/></g>
<g><path style="opacity:0.012" fill="#8d8d8d" d="M 250.5,243.5 C 252.19,243.856 253.19,244.856 253.5,246.5C 251.81,246.144 250.81,245.144 250.5,243.5 Z"/></g>
<g><path style="opacity:0.325" fill="#737273" d="M 411.5,242.5 C 410.544,244.516 409.21,246.349 407.5,248C 406.906,248.464 406.239,248.631 405.5,248.5C 406.833,245.833 408.833,243.833 411.5,242.5 Z"/></g>
<g><path style="opacity:0.204" fill="#aeaeae" d="M 302.5,247.5 C 302.262,249.404 301.262,250.738 299.5,251.5C 299.738,249.596 300.738,248.262 302.5,247.5 Z"/></g>
<g><path style="opacity:0.58" fill="#8a8a8a" d="M 256.5,249.5 C 258.264,250.326 259.598,251.659 260.5,253.5C 258.29,253.106 256.957,251.773 256.5,249.5 Z"/></g>
<g><path style="opacity:0.353" fill="#757475" d="M 405.5,248.5 C 404.386,251.404 402.386,253.404 399.5,254.5C 401.061,252.027 403.061,250.027 405.5,248.5 Z"/></g>
<g><path style="opacity:0.373" fill="#959595" d="M 329.5,251.5 C 329.34,253.153 328.674,254.486 327.5,255.5C 327.229,253.62 327.896,252.287 329.5,251.5 Z"/></g>
<g><path style="opacity:0.788" fill="#585858" d="M 297.5,255.5 C 298.109,258.878 296.776,260.878 293.5,261.5C 294.846,259.463 296.18,257.463 297.5,255.5 Z"/></g>
<g><path style="opacity:0.016" fill="#bababa" d="M 431.5,259.5 C 431.167,260.5 430.5,261.167 429.5,261.5C 429.5,260.167 430.167,259.5 431.5,259.5 Z"/></g>
<g><path style="opacity:0.004" fill="#dedede" d="M 236.5,266.5 C 237.5,266.833 238.167,267.5 238.5,268.5C 237.167,268.5 236.5,267.833 236.5,266.5 Z"/></g>
<g><path style="opacity:0.004" fill="#dfdfdf" d="M 424.5,265.5 C 424.715,267.179 424.048,268.179 422.5,268.5C 422.932,267.29 423.599,266.29 424.5,265.5 Z"/></g>
<g><path style="opacity:0.235" fill="#888888" d="M 291.5,266.5 C 290.546,269.751 288.88,272.418 286.5,274.5C 287.379,271.299 289.045,268.632 291.5,266.5 Z"/></g>
<g><path style="opacity:0.065" fill="#cecece" d="M 319.5,269.5 C 319.011,270.995 318.345,272.329 317.5,273.5C 317.157,271.517 317.824,270.183 319.5,269.5 Z"/></g>
<g><path style="opacity:0.039" fill="#d5d5d5" d="M 392.5,268.5 C 393.458,270.302 394.125,272.302 394.5,274.5C 392.72,273.01 392.054,271.01 392.5,268.5 Z"/></g>
<g><path style="opacity:0.004" fill="#dedede" d="M 242.5,272.5 C 243.5,272.833 244.167,273.5 244.5,274.5C 243.167,274.5 242.5,273.833 242.5,272.5 Z"/></g>
<g><path style="opacity:0.02" fill="#dbdbdb" d="M 268.5,271.5 C 268.5,273.5 267.5,274.5 265.5,274.5C 266.167,273.167 267.167,272.167 268.5,271.5 Z"/></g>
<g><path style="opacity:0.004" fill="#d1d1d1" d="M 418.5,272.5 C 418.5,273.833 417.833,274.5 416.5,274.5C 416.833,273.5 417.5,272.833 418.5,272.5 Z"/></g>
<g><path style="opacity:0.148" fill="#d1d1d1" d="M 262.5,277.5 C 262.423,278.75 261.756,279.583 260.5,280C 256.973,280.808 253.64,280.641 250.5,279.5C 254.742,279.921 258.742,279.254 262.5,277.5 Z"/></g>
<g><path style="opacity:0.14" fill="#cccccc" d="M 398.5,277.5 C 403.466,280.091 408.466,280.091 413.5,277.5C 411.492,279.927 408.826,280.927 405.5,280.5C 403.833,280.333 402.167,280.167 400.5,280C 399.244,279.583 398.577,278.75 398.5,277.5 Z"/></g>
<g><path style="opacity:0.031" fill="#a7a7a7" d="M 311.5,283.5 C 311.262,285.404 310.262,286.738 308.5,287.5C 308.738,285.596 309.738,284.262 311.5,283.5 Z"/></g>
<g><path style="opacity:0.302" fill="#a4a4a4" d="M 286.5,289.5 C 288.404,289.738 289.738,290.738 290.5,292.5C 288.596,292.262 287.262,291.262 286.5,289.5 Z"/></g>
<g><path style="opacity:0.075" fill="#8b8b8b" d="M 308.5,287.5 C 308.715,289.179 308.048,290.179 306.5,290.5C 306.932,289.29 307.599,288.29 308.5,287.5 Z"/></g>
<g><path style="opacity:0.008" fill="#d2d2d2" d="M 305.5,291.5 C 305.179,293.048 304.179,293.715 302.5,293.5C 303.29,292.599 304.29,291.932 305.5,291.5 Z"/></g>
<g><path style="opacity:0.565" fill="#7c7c7c" d="M 144.5,334.5 C 146.446,335.035 147.446,336.368 147.5,338.5C 146.026,337.564 145.026,336.23 144.5,334.5 Z"/></g>
<g><path style="opacity:0.165" fill="#7e7e7e" d="M 515.5,335.5 C 515.573,337.027 514.906,338.027 513.5,338.5C 513.427,336.973 514.094,335.973 515.5,335.5 Z"/></g>
<g><path style="opacity:0.008" fill="#bebebe" d="M 149.5,341.5 C 150.833,342.167 151.833,343.167 152.5,344.5C 150.5,344.5 149.5,343.5 149.5,341.5 Z"/></g>
<g><path style="opacity:0.004" fill="#cacaca" d="M 511.5,341.5 C 511.5,343.5 510.5,344.5 508.5,344.5C 509.167,343.167 510.167,342.167 511.5,341.5 Z"/></g>
<g><path style="opacity:0.427" fill="#747474" d="M 154.5,345.5 C 156.404,345.738 157.738,346.738 158.5,348.5C 156.596,348.262 155.262,347.262 154.5,345.5 Z"/></g>
<g><path style="opacity:0.102" fill="#c5c5c5" d="M 158.5,348.5 C 162.985,349.34 167.319,350.34 171.5,351.5C 166.739,351.876 162.405,350.876 158.5,348.5 Z"/></g>
<g><path style="opacity:0.184" fill="#c8c7c7" d="M 502.5,348.5 C 498.595,350.876 494.261,351.876 489.5,351.5C 493.681,350.34 498.015,349.34 502.5,348.5 Z"/></g>
</svg>
