<?xml version="1.0" encoding="UTF-8"?>
<!DOCTYPE svg PUBLIC "-//W3C//DTD SVG 1.1//EN" "http://www.w3.org/Graphics/SVG/1.1/DTD/svg11.dtd">
<svg xmlns="http://www.w3.org/2000/svg" version="1.1" width="500px" height="500px" style="shape-rendering:geometricPrecision; text-rendering:geometricPrecision; image-rendering:optimizeQuality; fill-rule:evenodd; clip-rule:evenodd" xmlns:xlink="http://www.w3.org/1999/xlink">
<g><path style="opacity:0.997" fill="#000000" d="M 105.5,-0.5 C 113.167,-0.5 120.833,-0.5 128.5,-0.5C 128.5,6.83333 128.5,14.1667 128.5,21.5C 135.167,21.5 141.833,21.5 148.5,21.5C 148.5,14.1667 148.5,6.83333 148.5,-0.5C 155.833,-0.5 163.167,-0.5 170.5,-0.5C 170.5,21.8333 170.5,44.1667 170.5,66.5C 163.167,66.5 155.833,66.5 148.5,66.5C 148.5,59.1667 148.5,51.8333 148.5,44.5C 141.833,44.5 135.167,44.5 128.5,44.5C 128.5,51.8333 128.5,59.1667 128.5,66.5C 120.833,66.5 113.167,66.5 105.5,66.5C 105.5,44.1667 105.5,21.8333 105.5,-0.5 Z"/></g>
<g><path style="opacity:0.991" fill="#030303" d="M 180.5,-0.5 C 201.5,-0.5 222.5,-0.5 243.5,-0.5C 243.5,7.16667 243.5,14.8333 243.5,22.5C 236.833,22.5 230.167,22.5 223.5,22.5C 223.5,37.5 223.5,52.5 223.5,67.5C 215.833,67.5 208.167,67.5 200.5,67.5C 200.5,52.5 200.5,37.5 200.5,22.5C 193.833,22.5 187.167,22.5 180.5,22.5C 180.5,14.8333 180.5,7.16667 180.5,-0.5 Z"/></g>
<g><path style="opacity:0.502" fill="#464646" d="M 252.5,-0.5 C 252.833,-0.5 253.167,-0.5 253.5,-0.5C 253.5,21.8333 253.5,44.1667 253.5,66.5C 260.833,66.5 268.167,66.5 275.5,66.5C 268.018,67.492 260.352,67.8254 252.5,67.5C 252.5,44.8333 252.5,22.1667 252.5,-0.5 Z"/></g>
<g><path style="opacity:0.98" fill="#020202" d="M 253.5,-0.5 C 261.5,-0.5 269.5,-0.5 277.5,-0.5C 281.738,6.9725 286.238,14.3058 291,21.5C 295.725,14.2814 300.225,6.94803 304.5,-0.5C 312.833,-0.5 321.167,-0.5 329.5,-0.5C 329.5,22.1667 329.5,44.8333 329.5,67.5C 321.833,67.5 314.167,67.5 306.5,67.5C 306.667,56.8281 306.5,46.1615 306,35.5C 301,43.1667 296,50.8333 291,58.5C 286,51.1667 281,43.8333 276,36.5C 275.5,46.4944 275.334,56.4944 275.5,66.5C 268.167,66.5 260.833,66.5 253.5,66.5C 253.5,44.1667 253.5,21.8333 253.5,-0.5 Z"/></g>
<g><path style="opacity:0.978" fill="#020202" d="M 339.5,-0.5 C 347.167,-0.5 354.833,-0.5 362.5,-0.5C 362.5,14.5 362.5,29.5 362.5,44.5C 373.167,44.5 383.833,44.5 394.5,44.5C 394.5,52.1667 394.5,59.8333 394.5,67.5C 376.167,67.5 357.833,67.5 339.5,67.5C 339.5,44.8333 339.5,22.1667 339.5,-0.5 Z"/></g>
<g><path style="opacity:0.102" fill="#6e6e6e" d="M 104.5,-0.5 C 104.833,-0.5 105.167,-0.5 105.5,-0.5C 105.5,21.8333 105.5,44.1667 105.5,66.5C 113.167,66.5 120.833,66.5 128.5,66.5C 120.684,67.4924 112.684,67.8257 104.5,67.5C 104.5,44.8333 104.5,22.1667 104.5,-0.5 Z"/></g>
<g><path style="opacity:0.478" fill="#282828" d="M 170.5,-0.5 C 170.833,-0.5 171.167,-0.5 171.5,-0.5C 171.5,22.1667 171.5,44.8333 171.5,67.5C 163.648,67.8254 155.982,67.492 148.5,66.5C 155.833,66.5 163.167,66.5 170.5,66.5C 170.5,44.1667 170.5,21.8333 170.5,-0.5 Z"/></g>
<g><path style="opacity:0.722" fill="#d05739" d="M 422.5,143.5 C 423.461,128.516 424.128,113.516 424.5,98.5C 307.5,98.5 190.5,98.5 73.5,98.5C 73.5,102.5 73.5,106.5 73.5,110.5C 72.7757,106.635 72.1091,102.635 71.5,98.5C 190.167,97.1667 308.833,97.1667 427.5,98.5C 425.884,113.632 424.218,128.632 422.5,143.5 Z"/></g>
<g><path style="opacity:1" fill="#e44d26" d="M 422.5,143.5 C 421.077,151.018 419.911,158.685 419,166.5C 418.5,174.493 418.334,182.493 418.5,190.5C 418.5,190.833 418.5,191.167 418.5,191.5C 417.732,192.263 417.232,193.263 417,194.5C 415.574,207.462 414.741,220.462 414.5,233.5C 413.778,233.918 413.278,234.584 413,235.5C 412.5,242.158 412.334,248.825 412.5,255.5C 412.5,257.5 412.5,259.5 412.5,261.5C 411.883,261.611 411.383,261.944 411,262.5C 409.666,274.524 408.333,286.524 407,298.5C 406.5,307.16 406.334,315.827 406.5,324.5C 404.683,336.643 402.85,348.977 401,361.5C 400.571,379.193 399.737,396.86 398.5,414.5C 398.5,414.833 398.5,415.167 398.5,415.5C 397.916,421.872 396.249,428.039 393.5,434C 394.423,442.135 394.756,450.302 394.5,458.5C 394.5,458.833 394.5,459.167 394.5,459.5C 389.491,460.725 384.491,460.725 379.5,459.5C 379.5,460.5 379.5,461.5 379.5,462.5C 376.509,462.166 374.176,463.166 372.5,465.5C 364.435,468.405 356.101,470.739 347.5,472.5C 343.774,472.177 340.107,472.511 336.5,473.5C 335.286,475.069 333.619,475.902 331.5,476C 328.183,476.498 324.85,476.665 321.5,476.5C 321.5,477.5 321.5,478.5 321.5,479.5C 314.622,481.265 307.622,482.432 300.5,483C 298.456,483.498 297.122,484.665 296.5,486.5C 293.428,486.183 290.428,486.516 287.5,487.5C 277.616,490.655 267.616,493.322 257.5,495.5C 254.573,496.111 252.24,497.444 250.5,499.5C 248.833,499.5 247.167,499.5 245.5,499.5C 243.112,498.651 240.779,497.651 238.5,496.5C 232.691,493.762 227.025,490.762 221.5,487.5C 218.897,488.562 216.23,488.728 213.5,488C 214.624,487.751 215.624,487.251 216.5,486.5C 213.45,483.04 209.783,481.707 205.5,482.5C 206.167,483.5 206.833,484.5 207.5,485.5C 206.833,485.833 206.167,486.167 205.5,486.5C 202.092,484.779 198.425,484.112 194.5,484.5C 192.432,483.625 190.432,482.459 188.5,481C 179.986,479.56 171.653,477.393 163.5,474.5C 163.5,473.5 163.5,472.5 163.5,471.5C 158.167,472.833 152.833,472.833 147.5,471.5C 146.158,470.207 144.491,469.374 142.5,469C 137.3,467.26 131.966,466.093 126.5,465.5C 125.833,465.5 125.167,465.5 124.5,465.5C 124.389,464.883 124.056,464.383 123.5,464C 119.151,462.897 114.818,461.73 110.5,460.5C 108.528,459.695 107.028,458.361 106,456.5C 104.803,448.562 104.136,440.562 104,432.5C 103.217,426.579 102.05,420.912 100.5,415.5C 100.5,415.167 100.5,414.833 100.5,414.5C 99.2576,391.133 97.7576,367.8 96,344.5C 92.8241,314.574 89.6574,284.907 86.5,255.5C 86.8575,241.732 86.0241,228.066 84,214.5C 83.6174,213.944 83.1174,213.611 82.5,213.5C 82.5,213.167 82.5,212.833 82.5,212.5C 82.1584,196.812 81.325,181.145 80,165.5C 79.4199,157.791 78.2532,150.458 76.5,143.5C 76.6662,137.158 76.4995,130.825 76,124.5C 75.8923,120.535 75.059,116.868 73.5,113.5C 73.5,112.5 73.5,111.5 73.5,110.5C 73.5,106.5 73.5,102.5 73.5,98.5C 190.5,98.5 307.5,98.5 424.5,98.5C 424.128,113.516 423.461,128.516 422.5,143.5 Z M 250.5,172.5 C 286.833,172.5 323.167,172.5 359.5,172.5C 358.668,181.153 358.002,189.82 357.5,198.5C 357.5,199.5 357.5,200.5 357.5,201.5C 356.356,205.964 355.69,210.63 355.5,215.5C 320.167,215.5 284.833,215.5 249.5,215.5C 250.482,201.245 250.816,186.912 250.5,172.5 Z M 250.5,262.5 C 284.167,262.5 317.833,262.5 351.5,262.5C 351.5,264.167 351.5,265.833 351.5,267.5C 349.961,273.937 349.294,280.604 349.5,287.5C 349.5,287.833 349.5,288.167 349.5,288.5C 348.125,295.289 347.458,302.289 347.5,309.5C 347.5,309.833 347.5,310.167 347.5,310.5C 344.589,339.02 341.756,367.687 339,396.5C 337.698,397.085 336.531,397.751 335.5,398.5C 324.343,401.039 313.343,404.039 302.5,407.5C 297.562,408.231 292.895,409.565 288.5,411.5C 283.562,412.231 278.895,413.565 274.5,415.5C 266.58,417.01 258.913,419.01 251.5,421.5C 249.448,407.656 249.448,393.656 251.5,379.5C 250.873,378.583 250.539,377.583 250.5,376.5C 254.733,376.027 258.733,375.027 262.5,373.5C 272.492,371.608 282.159,368.941 291.5,365.5C 294.228,365.829 296.562,365.163 298.5,363.5C 299.268,362.737 299.768,361.737 300,360.5C 300.526,353.829 301.026,347.163 301.5,340.5C 301.5,339.833 301.5,339.167 301.5,338.5C 302.593,329.495 303.593,320.328 304.5,311C 304.494,308.967 304.161,307.134 303.5,305.5C 286.008,304.503 268.341,304.17 250.5,304.5C 250.231,290.542 250.231,276.542 250.5,262.5 Z"/></g>
<g><path style="opacity:1" fill="#f06428" d="M 244.5,422.5 C 247.059,422.802 249.393,422.468 251.5,421.5C 258.913,419.01 266.58,417.01 274.5,415.5C 278.86,414.41 283.193,414.41 287.5,415.5C 288.429,414.311 288.762,412.978 288.5,411.5C 292.319,411.586 295.985,410.919 299.5,409.5C 306.359,409.752 313.025,408.752 319.5,406.5C 321.155,407.228 322.821,407.395 324.5,407C 322.377,405.806 320.043,405.14 317.5,405C 324.072,404.037 330.072,401.87 335.5,398.5C 340.677,398.477 342.844,395.81 342,390.5C 344.329,363.867 346.163,337.2 347.5,310.5C 347.5,310.167 347.5,309.833 347.5,309.5C 348.117,309.389 348.617,309.056 349,308.5C 349.5,301.842 349.666,295.175 349.5,288.5C 349.5,288.167 349.5,287.833 349.5,287.5C 350.813,281.041 351.479,274.374 351.5,267.5C 351.5,265.833 351.5,264.167 351.5,262.5C 351.5,262.167 351.5,261.833 351.5,261.5C 317.671,260.502 283.671,260.168 249.5,260.5C 249.5,246.167 249.5,231.833 249.5,217.5C 284.833,216.833 320.167,216.167 355.5,215.5C 357.436,211.285 358.103,206.619 357.5,201.5C 357.5,200.5 357.5,199.5 357.5,198.5C 358.79,197.942 359.623,196.942 360,195.5C 360.823,187.323 360.656,179.323 359.5,171.5C 285.833,171.5 212.167,171.5 138.5,171.5C 175.33,170.502 212.33,170.168 249.5,170.5C 249.5,156.167 249.5,141.833 249.5,127.5C 297.5,127.5 345.5,127.5 393.5,127.5C 384.791,230.5 375.958,333.5 367,436.5C 360.308,438.478 353.475,439.978 346.5,441C 314.403,450.944 282.07,460.111 249.5,468.5C 249.5,453.5 249.5,438.5 249.5,423.5C 247.585,423.784 245.919,423.451 244.5,422.5 Z"/></g>
<g><path style="opacity:0.868" fill="#d76549" d="M 73.5,113.5 C 75.059,116.868 75.8923,120.535 76,124.5C 76.4995,130.825 76.6662,137.158 76.5,143.5C 75.0312,133.691 74.0312,123.691 73.5,113.5 Z"/></g>
<g><path style="opacity:0.91" fill="#d56344" d="M 76.5,143.5 C 78.2532,150.458 79.4199,157.791 80,165.5C 81.325,181.145 82.1584,196.812 82.5,212.5C 79.6718,189.717 77.6718,166.717 76.5,143.5 Z"/></g>
<g><path style="opacity:0.855" fill="#d46346" d="M 422.5,143.5 C 421.963,159.381 420.63,175.047 418.5,190.5C 418.334,182.493 418.5,174.493 419,166.5C 419.911,158.685 421.077,151.018 422.5,143.5 Z"/></g>
<g><path style="opacity:1" fill="#f3bead" d="M 138.5,171.5 C 212.167,171.5 285.833,171.5 359.5,171.5C 359.5,171.833 359.5,172.167 359.5,172.5C 323.167,172.5 286.833,172.5 250.5,172.5C 213.5,172.5 176.5,172.5 139.5,172.5C 139.5,176.167 139.5,179.833 139.5,183.5C 139.167,183.5 138.833,183.5 138.5,183.5C 138.5,179.5 138.5,175.5 138.5,171.5 Z"/></g>
<g><path style="opacity:0.999" fill="#ebebea" d="M 250.5,172.5 C 250.816,186.912 250.482,201.245 249.5,215.5C 249.167,215.5 248.833,215.5 248.5,215.5C 227.833,215.5 207.167,215.5 186.5,215.5C 186.194,218.385 186.527,221.052 187.5,223.5C 187.5,224.833 187.5,226.167 187.5,227.5C 188.028,239.189 188.695,250.855 189.5,262.5C 209.833,262.5 230.167,262.5 250.5,262.5C 250.231,276.542 250.231,290.542 250.5,304.5C 268.341,304.17 286.008,304.503 303.5,305.5C 285.5,305.5 267.5,305.5 249.5,305.5C 217.336,304.668 185.003,304.168 152.5,304C 151.76,300.338 150.76,296.838 149.5,293.5C 149.5,291.833 149.5,290.167 149.5,288.5C 148.546,264.105 146.712,239.771 144,215.5C 143.768,214.263 143.268,213.263 142.5,212.5C 141.897,208.727 141.23,205.061 140.5,201.5C 140.575,195.471 140.241,189.471 139.5,183.5C 139.5,179.833 139.5,176.167 139.5,172.5C 176.5,172.5 213.5,172.5 250.5,172.5 Z"/></g>
<g><path style="opacity:0.997" fill="#e17647" d="M 359.5,171.5 C 360.656,179.323 360.823,187.323 360,195.5C 359.623,196.942 358.79,197.942 357.5,198.5C 358.002,189.82 358.668,181.153 359.5,172.5C 359.5,172.167 359.5,171.833 359.5,171.5 Z"/></g>
<g><path style="opacity:1" fill="#d26447" d="M 138.5,183.5 C 138.833,183.5 139.167,183.5 139.5,183.5C 140.241,189.471 140.575,195.471 140.5,201.5C 139.732,200.737 139.232,199.737 139,198.5C 138.501,193.511 138.334,188.511 138.5,183.5 Z"/></g>
<g><path style="opacity:0.669" fill="#e3916a" d="M 357.5,201.5 C 358.103,206.619 357.436,211.285 355.5,215.5C 355.69,210.63 356.356,205.964 357.5,201.5 Z"/></g>
<g><path style="opacity:0.69" fill="#d16849" d="M 418.5,191.5 C 417.815,205.706 416.482,219.706 414.5,233.5C 414.741,220.462 415.574,207.462 417,194.5C 417.232,193.263 417.732,192.263 418.5,191.5 Z"/></g>
<g><path style="opacity:1" fill="#eea08b" d="M 248.5,215.5 C 228.34,216.497 208.007,216.83 187.5,216.5C 187.5,218.833 187.5,221.167 187.5,223.5C 186.527,221.052 186.194,218.385 186.5,215.5C 207.167,215.5 227.833,215.5 248.5,215.5 Z"/></g>
<g><path style="opacity:1" fill="#d56843" d="M 248.5,215.5 C 248.833,215.5 249.167,215.5 249.5,215.5C 284.833,215.5 320.167,215.5 355.5,215.5C 320.167,216.167 284.833,216.833 249.5,217.5C 229.167,217.5 208.833,217.5 188.5,217.5C 188.5,220.833 188.5,224.167 188.5,227.5C 188.167,227.5 187.833,227.5 187.5,227.5C 187.5,226.167 187.5,224.833 187.5,223.5C 187.5,221.167 187.5,218.833 187.5,216.5C 208.007,216.83 228.34,216.497 248.5,215.5 Z"/></g>
<g><path style="opacity:1" fill="#d66648" d="M 140.5,201.5 C 141.23,205.061 141.897,208.727 142.5,212.5C 142.5,215.833 142.5,219.167 142.5,222.5C 141.883,222.389 141.383,222.056 141,221.5C 140.5,214.842 140.334,208.175 140.5,201.5 Z"/></g>
<g><path style="opacity:1" fill="#e44d26" d="M 249.5,217.5 C 249.5,231.833 249.5,246.167 249.5,260.5C 230.167,260.5 210.833,260.5 191.5,260.5C 191.784,258.585 191.451,256.919 190.5,255.5C 189.833,246.167 189.167,236.833 188.5,227.5C 188.5,224.167 188.5,220.833 188.5,217.5C 208.833,217.5 229.167,217.5 249.5,217.5 Z"/></g>
<g><path style="opacity:0.992" fill="#d25b3e" d="M 414.5,233.5 C 414.482,241.037 413.815,248.371 412.5,255.5C 412.334,248.825 412.5,242.158 413,235.5C 413.278,234.584 413.778,233.918 414.5,233.5 Z"/></g>
<g><path style="opacity:1" fill="#f8d6cc" d="M 142.5,212.5 C 143.268,213.263 143.768,214.263 144,215.5C 146.712,239.771 148.546,264.105 149.5,288.5C 147.39,272.174 145.39,255.841 143.5,239.5C 143.786,233.741 143.452,228.075 142.5,222.5C 142.5,219.167 142.5,215.833 142.5,212.5 Z"/></g>
<g><path style="opacity:0.962" fill="#d05b3a" d="M 82.5,213.5 C 83.1174,213.611 83.6174,213.944 84,214.5C 86.0241,228.066 86.8575,241.732 86.5,255.5C 84.5212,241.706 83.1879,227.706 82.5,213.5 Z"/></g>
<g><path style="opacity:1" fill="#db6f4e" d="M 190.5,255.5 C 191.451,256.919 191.784,258.585 191.5,260.5C 210.833,260.5 230.167,260.5 249.5,260.5C 283.671,260.168 317.671,260.502 351.5,261.5C 297.833,261.5 244.167,261.5 190.5,261.5C 190.5,259.5 190.5,257.5 190.5,255.5 Z"/></g>
<g><path style="opacity:1" fill="#fbcdbd" d="M 187.5,227.5 C 187.833,227.5 188.167,227.5 188.5,227.5C 189.167,236.833 189.833,246.167 190.5,255.5C 190.5,257.5 190.5,259.5 190.5,261.5C 244.167,261.5 297.833,261.5 351.5,261.5C 351.5,261.833 351.5,262.167 351.5,262.5C 317.833,262.5 284.167,262.5 250.5,262.5C 230.167,262.5 209.833,262.5 189.5,262.5C 188.695,250.855 188.028,239.189 187.5,227.5 Z"/></g>
<g><path style="opacity:0.463" fill="#e49f7d" d="M 351.5,267.5 C 351.479,274.374 350.813,281.041 349.5,287.5C 349.294,280.604 349.961,273.937 351.5,267.5 Z"/></g>
<g><path style="opacity:1" fill="#d46346" d="M 143.5,239.5 C 145.39,255.841 147.39,272.174 149.5,288.5C 149.5,290.167 149.5,291.833 149.5,293.5C 149.5,297.5 149.5,301.5 149.5,305.5C 146.925,283.706 144.925,261.706 143.5,239.5 Z"/></g>
<g><path style="opacity:1" fill="#fddcd3" d="M 149.5,293.5 C 150.76,296.838 151.76,300.338 152.5,304C 185.003,304.168 217.336,304.668 249.5,305.5C 216.5,305.5 183.5,305.5 150.5,305.5C 150.167,305.5 149.833,305.5 149.5,305.5C 149.5,301.5 149.5,297.5 149.5,293.5 Z"/></g>
<g><path style="opacity:0.7" fill="#db7652" d="M 150.5,305.5 C 183.5,305.5 216.5,305.5 249.5,305.5C 267.5,305.5 285.5,305.5 303.5,305.5C 304.161,307.134 304.494,308.967 304.5,311C 303.593,320.328 302.593,329.495 301.5,338.5C 301.623,327.825 301.957,317.159 302.5,306.5C 284.833,306.5 267.167,306.5 249.5,306.5C 216.329,306.832 183.329,306.498 150.5,305.5 Z"/></g>
<g><path style="opacity:1" fill="#e4845f" d="M 349.5,288.5 C 349.666,295.175 349.5,301.842 349,308.5C 348.617,309.056 348.117,309.389 347.5,309.5C 347.458,302.289 348.125,295.289 349.5,288.5 Z"/></g>
<g><path style="opacity:0.987" fill="#d65f41" d="M 412.5,261.5 C 410.968,282.687 408.968,303.687 406.5,324.5C 406.334,315.827 406.5,307.16 407,298.5C 408.333,286.524 409.666,274.524 411,262.5C 411.383,261.944 411.883,261.611 412.5,261.5 Z"/></g>
<g><path style="opacity:1" fill="#f06528" d="M 249.5,306.5 C 267.167,306.5 284.833,306.5 302.5,306.5C 301.957,317.159 301.623,327.825 301.5,338.5C 301.5,339.167 301.5,339.833 301.5,340.5C 300.778,340.918 300.278,341.584 300,342.5C 299.566,349.512 299.066,356.512 298.5,363.5C 296.562,365.163 294.228,365.829 291.5,365.5C 284.135,366.414 276.802,367.581 269.5,369C 266.813,370.049 264.48,371.549 262.5,373.5C 258.176,373.927 253.842,374.261 249.5,374.5C 249.5,351.833 249.5,329.167 249.5,306.5 Z"/></g>
<g><path style="opacity:1" fill="#eaae9f" d="M 152.5,328.5 C 152.5,328.167 152.5,327.833 152.5,327.5C 167.5,327.5 182.5,327.5 197.5,327.5C 197.5,330.5 197.5,333.5 197.5,336.5C 196.662,336.158 196.328,335.492 196.5,334.5C 196.5,332.5 196.5,330.5 196.5,328.5C 181.833,328.5 167.167,328.5 152.5,328.5 Z"/></g>
<g><path style="opacity:1" fill="#f9ddd5" d="M 152.5,328.5 C 167.167,328.5 181.833,328.5 196.5,328.5C 196.5,330.5 196.5,332.5 196.5,334.5C 195.661,333.359 194.994,332.026 194.5,330.5C 181.076,329.603 167.742,329.27 154.5,329.5C 156.009,342.002 156.675,354.669 156.5,367.5C 155.762,362.125 154.762,356.791 153.5,351.5C 153.691,343.799 153.358,336.132 152.5,328.5 Z"/></g>
<g><path style="opacity:0.999" fill="#ebeae9" d="M 196.5,334.5 C 196.328,335.492 196.662,336.158 197.5,336.5C 197.5,336.833 197.5,337.167 197.5,337.5C 197.197,346.389 197.863,355.056 199.5,363.5C 201.806,363.993 204.139,364.326 206.5,364.5C 207.391,365.11 208.391,365.443 209.5,365.5C 215.142,368.08 221.142,369.747 227.5,370.5C 231.2,372.281 235.2,373.281 239.5,373.5C 242.888,375.118 246.554,376.118 250.5,376.5C 250.539,377.583 250.873,378.583 251.5,379.5C 249.448,393.656 249.448,407.656 251.5,421.5C 249.393,422.468 247.059,422.802 244.5,422.5C 229.722,417.719 214.722,413.386 199.5,409.5C 189.538,406.716 179.538,403.716 169.5,400.5C 166.492,398.765 163.492,396.931 160.5,395C 159.102,385.716 157.769,376.549 156.5,367.5C 156.675,354.669 156.009,342.002 154.5,329.5C 167.742,329.27 181.076,329.603 194.5,330.5C 194.994,332.026 195.661,333.359 196.5,334.5 Z"/></g>
<g><path style="opacity:1" fill="#d25e40" d="M 86.5,255.5 C 89.6574,284.907 92.8241,314.574 96,344.5C 97.7576,367.8 99.2576,391.133 100.5,414.5C 95.1253,361.708 90.4587,308.708 86.5,255.5 Z"/></g>
<g><path style="opacity:0.804" fill="#e7916b" d="M 301.5,340.5 C 301.026,347.163 300.526,353.829 300,360.5C 299.768,361.737 299.268,362.737 298.5,363.5C 299.066,356.512 299.566,349.512 300,342.5C 300.278,341.584 300.778,340.918 301.5,340.5 Z"/></g>
<g><path style="opacity:1" fill="#d66140" d="M 152.5,327.5 C 152.5,327.833 152.5,328.167 152.5,328.5C 153.358,336.132 153.691,343.799 153.5,351.5C 152.842,344.929 151.842,338.262 150.5,331.5C 150.585,329.667 151.252,328.334 152.5,327.5 Z"/></g>
<g><path style="opacity:1" fill="#f5bdb1" d="M 197.5,337.5 C 199.194,345.939 199.861,354.605 199.5,363.5C 197.863,355.056 197.197,346.389 197.5,337.5 Z"/></g>
<g><path style="opacity:1" fill="#d75537" d="M 197.5,327.5 C 198.319,330.305 198.819,333.305 199,336.5C 200.608,335.567 201.441,336.233 201.5,338.5C 200.081,346.203 200.247,353.87 202,361.5C 204.026,361.915 205.526,362.915 206.5,364.5C 204.139,364.326 201.806,363.993 199.5,363.5C 199.861,354.605 199.194,345.939 197.5,337.5C 197.5,337.167 197.5,336.833 197.5,336.5C 197.5,333.5 197.5,330.5 197.5,327.5 Z"/></g>
<g><path style="opacity:1" fill="#d55939" d="M 406.5,324.5 C 404.361,354.692 401.694,384.692 398.5,414.5C 399.737,396.86 400.571,379.193 401,361.5C 402.85,348.977 404.683,336.643 406.5,324.5 Z"/></g>
<g><path style="opacity:1" fill="#d66143" d="M 209.5,365.5 C 213.819,366.035 218.152,366.535 222.5,367C 224.596,367.737 226.263,368.903 227.5,370.5C 221.142,369.747 215.142,368.08 209.5,365.5 Z"/></g>
<g><path style="opacity:1" fill="#e88456" d="M 291.5,365.5 C 282.159,368.941 272.492,371.608 262.5,373.5C 264.48,371.549 266.813,370.049 269.5,369C 276.802,367.581 284.135,366.414 291.5,365.5 Z"/></g>
<g><path style="opacity:0.949" fill="#da7753" d="M 239.5,373.5 C 242.807,374.051 246.14,374.384 249.5,374.5C 253.842,374.261 258.176,373.927 262.5,373.5C 258.733,375.027 254.733,376.027 250.5,376.5C 246.554,376.118 242.888,375.118 239.5,373.5 Z"/></g>
<g><path style="opacity:1" fill="#d46446" d="M 153.5,351.5 C 154.762,356.791 155.762,362.125 156.5,367.5C 157.218,376.482 157.552,385.482 157.5,394.5C 154.929,380.535 153.596,366.202 153.5,351.5 Z"/></g>
<g><path style="opacity:1" fill="#e07c51" d="M 347.5,310.5 C 346.163,337.2 344.329,363.867 342,390.5C 342.844,395.81 340.677,398.477 335.5,398.5C 336.531,397.751 337.698,397.085 339,396.5C 341.756,367.687 344.589,339.02 347.5,310.5 Z"/></g>
<g><path style="opacity:1" fill="#fad5c9" d="M 156.5,367.5 C 157.769,376.549 159.102,385.716 160.5,395C 163.492,396.931 166.492,398.765 169.5,400.5C 165.951,399.321 162.284,398.321 158.5,397.5C 158.737,396.209 158.404,395.209 157.5,394.5C 157.552,385.482 157.218,376.482 156.5,367.5 Z"/></g>
<g><path style="opacity:1" fill="#d55d3e" d="M 157.5,394.5 C 158.404,395.209 158.737,396.209 158.5,397.5C 162.284,398.321 165.951,399.321 169.5,400.5C 179.538,403.716 189.538,406.716 199.5,409.5C 185.354,406.797 171.354,403.464 157.5,399.5C 157.5,397.833 157.5,396.167 157.5,394.5 Z"/></g>
<g><path style="opacity:1" fill="#e76f38" d="M 335.5,398.5 C 330.072,401.87 324.072,404.037 317.5,405C 320.043,405.14 322.377,405.806 324.5,407C 322.821,407.395 321.155,407.228 319.5,406.5C 313.025,408.752 306.359,409.752 299.5,409.5C 300.5,408.833 301.5,408.167 302.5,407.5C 313.343,404.039 324.343,401.039 335.5,398.5 Z"/></g>
<g><path style="opacity:0.969" fill="#e28962" d="M 302.5,407.5 C 301.5,408.167 300.5,408.833 299.5,409.5C 295.985,410.919 292.319,411.586 288.5,411.5C 292.895,409.565 297.562,408.231 302.5,407.5 Z"/></g>
<g><path style="opacity:1" fill="#e87a48" d="M 288.5,411.5 C 288.762,412.978 288.429,414.311 287.5,415.5C 283.193,414.41 278.86,414.41 274.5,415.5C 278.895,413.565 283.562,412.231 288.5,411.5 Z"/></g>
<g><path style="opacity:1" fill="#d6593a" d="M 398.5,415.5 C 397.755,430.033 396.422,444.366 394.5,458.5C 394.756,450.302 394.423,442.135 393.5,434C 396.249,428.039 397.916,421.872 398.5,415.5 Z"/></g>
<g><path style="opacity:0.998" fill="#d45d3f" d="M 100.5,415.5 C 102.05,420.912 103.217,426.579 104,432.5C 104.136,440.562 104.803,448.562 106,456.5C 107.028,458.361 108.528,459.695 110.5,460.5C 114.818,461.73 119.151,462.897 123.5,464C 124.056,464.383 124.389,464.883 124.5,465.5C 118.303,464.026 112.136,462.359 106,460.5C 105.055,460.095 104.388,459.428 104,458.5C 102.562,444.183 101.395,429.85 100.5,415.5 Z"/></g>
<g><path style="opacity:1" fill="#da6441" d="M 394.5,459.5 C 387.44,462.101 380.107,464.101 372.5,465.5C 374.176,463.166 376.509,462.166 379.5,462.5C 379.5,461.5 379.5,460.5 379.5,459.5C 384.491,460.725 389.491,460.725 394.5,459.5 Z"/></g>
<g><path style="opacity:1" fill="#d36449" d="M 126.5,465.5 C 131.966,466.093 137.3,467.26 142.5,469C 144.491,469.374 146.158,470.207 147.5,471.5C 140.183,470.258 133.183,468.258 126.5,465.5 Z"/></g>
<g><path style="opacity:1" fill="#da6345" d="M 347.5,472.5 C 339.1,475.435 330.433,477.769 321.5,479.5C 321.5,478.5 321.5,477.5 321.5,476.5C 324.85,476.665 328.183,476.498 331.5,476C 333.619,475.902 335.286,475.069 336.5,473.5C 340.107,472.511 343.774,472.177 347.5,472.5 Z"/></g>
<g><path style="opacity:1" fill="#d55e3c" d="M 147.5,471.5 C 152.833,472.833 158.167,472.833 163.5,471.5C 163.5,472.5 163.5,473.5 163.5,474.5C 171.653,477.393 179.986,479.56 188.5,481C 190.432,482.459 192.432,483.625 194.5,484.5C 178.568,480.739 162.901,476.406 147.5,471.5 Z"/></g>
<g><path style="opacity:1" fill="#d46144" d="M 321.5,479.5 C 313.487,482.59 305.154,484.923 296.5,486.5C 297.122,484.665 298.456,483.498 300.5,483C 307.622,482.432 314.622,481.265 321.5,479.5 Z"/></g>
<g><path style="opacity:1" fill="#db5634" d="M 238.5,496.5 C 223.571,493.103 208.904,489.103 194.5,484.5C 198.425,484.112 202.092,484.779 205.5,486.5C 206.167,486.167 206.833,485.833 207.5,485.5C 206.833,484.5 206.167,483.5 205.5,482.5C 209.783,481.707 213.45,483.04 216.5,486.5C 215.624,487.251 214.624,487.751 213.5,488C 216.23,488.728 218.897,488.562 221.5,487.5C 227.025,490.762 232.691,493.762 238.5,496.5 Z"/></g>
<g><path style="opacity:0.835" fill="#d36446" d="M 296.5,486.5 C 282.213,490.988 267.879,495.322 253.5,499.5C 252.5,499.5 251.5,499.5 250.5,499.5C 252.24,497.444 254.573,496.111 257.5,495.5C 267.616,493.322 277.616,490.655 287.5,487.5C 290.428,486.516 293.428,486.183 296.5,486.5 Z"/></g>
</svg>
