<?xml version="1.0" encoding="UTF-8"?>
<!DOCTYPE svg PUBLIC "-//W3C//DTD SVG 1.1//EN" "http://www.w3.org/Graphics/SVG/1.1/DTD/svg11.dtd">
<svg xmlns="http://www.w3.org/2000/svg" version="1.1" width="437px" height="115px" style="shape-rendering:geometricPrecision; text-rendering:geometricPrecision; image-rendering:optimizeQuality; fill-rule:evenodd; clip-rule:evenodd" xmlns:xlink="http://www.w3.org/1999/xlink">
<g><path style="opacity:1" fill="#fdfdfe" d="M -0.5,-0.5 C 10.5,-0.5 21.5,-0.5 32.5,-0.5C 27.1587,2.18236 24.9921,6.51569 26,12.5C 26.4226,13.9561 27.2559,14.4561 28.5,14C 30.5989,11.5905 32.2656,8.92386 33.5,6C 38.5903,5.17118 40.4236,7.33784 39,12.5C 35.2674,12.6744 32.4341,14.3411 30.5,17.5C 35.4733,20.4076 39.9733,19.7409 44,15.5C 47.2925,8.21278 45.4592,2.87945 38.5,-0.5C 171.167,-0.5 303.833,-0.5 436.5,-0.5C 436.5,37.8333 436.5,76.1667 436.5,114.5C 304.833,114.5 173.167,114.5 41.5,114.5C 63.7196,108.403 73.553,93.7365 71,70.5C 63.1087,49.1354 47.942,40.6354 25.5,45C 27.0687,48.5354 28.7353,52.0354 30.5,55.5C 44.0186,53.676 53.5186,59.0093 59,71.5C 62.0294,86.2743 56.5294,96.4409 42.5,102C 21.3866,104.22 11.22,94.7201 12,73.5C 14.1151,66.4323 18.2818,60.9323 24.5,57C 23.1165,53.6813 21.4498,50.5147 19.5,47.5C 4.22449,56.055 -1.94218,69.055 1,86.5C 5.08851,101.422 14.5885,110.756 29.5,114.5C 19.5,114.5 9.5,114.5 -0.5,114.5C -0.5,76.1667 -0.5,37.8333 -0.5,-0.5 Z"/></g>
<g><path style="opacity:1" fill="#3caa57" d="M 32.5,-0.5 C 34.5,-0.5 36.5,-0.5 38.5,-0.5C 45.4592,2.87945 47.2925,8.21278 44,15.5C 39.9733,19.7409 35.4733,20.4076 30.5,17.5C 32.4341,14.3411 35.2674,12.6744 39,12.5C 40.4236,7.33784 38.5903,5.17118 33.5,6C 32.2656,8.92386 30.5989,11.5905 28.5,14C 27.2559,14.4561 26.4226,13.9561 26,12.5C 24.9921,6.51569 27.1587,2.18236 32.5,-0.5 Z"/></g>
<g><path style="opacity:1" fill="#ea4435" d="M 10.5,13.5 C 13.5184,13.3354 16.5184,13.502 19.5,14C 26.202,14.976 26.8686,17.3094 21.5,21C 16.0029,19.3705 11.5029,20.8705 8,25.5C 6.70071,32.1932 9.36737,36.1932 16,37.5C 16.9309,39.4595 17.7643,41.4595 18.5,43.5C 4.64369,44.2083 -1.18964,37.5416 1,23.5C 3.02229,18.98 6.18896,15.6467 10.5,13.5 Z"/></g>
<g><path style="opacity:1" fill="#5f6368" d="M 116.5,89.5 C 128.655,90.4952 140.989,90.8286 153.5,90.5C 153.5,93.5 153.5,96.5 153.5,99.5C 137.833,99.5 122.167,99.5 106.5,99.5C 106.5,71.1667 106.5,42.8333 106.5,14.5C 109.833,14.5 113.167,14.5 116.5,14.5C 116.5,39.5 116.5,64.5 116.5,89.5 Z"/></g>
<g><path style="opacity:1" fill="#61656a" d="M 287.5,14.5 C 290.833,14.5 294.167,14.5 297.5,14.5C 297.333,32.1698 297.5,49.8365 298,67.5C 307.833,57.6667 317.667,47.8333 327.5,38C 331.833,37.3333 336.167,37.3333 340.5,38C 331.833,46.6667 323.167,55.3333 314.5,64C 322.833,75.6667 331.167,87.3333 339.5,99C 335.129,99.8275 330.795,99.6609 326.5,98.5C 320.523,89.1997 314.19,80.1997 307.5,71.5C 297.883,78.2914 294.55,87.6247 297.5,99.5C 294.167,99.5 290.833,99.5 287.5,99.5C 287.5,71.1667 287.5,42.8333 287.5,14.5 Z"/></g>
<g><path style="opacity:1" fill="#fbbe1b" d="M 26.5,20.5 C 30.4655,21.2224 32.1322,23.7224 31.5,28C 31.6111,33.6108 29.4444,38.1108 25,41.5C 23.4445,39.5566 22.2779,37.3899 21.5,35C 23.1281,31.4146 23.9615,27.5812 24,23.5C 25.045,22.6266 25.8783,21.6266 26.5,20.5 Z"/></g>
<g><path style="opacity:1" fill="#606469" d="M 244.5,37.5 C 269.008,37.8377 280.508,50.171 279,74.5C 274.363,92.9134 262.53,101.08 243.5,99C 225.625,93.4336 217.792,81.2669 220,62.5C 223.014,48.9867 231.181,40.6533 244.5,37.5 Z"/></g>
<g><path style="opacity:1" fill="#616469" d="M 361.5,37.5 C 384.198,36.8646 395.198,47.8646 394.5,70.5C 379.167,70.5 363.833,70.5 348.5,70.5C 348.649,79.8113 352.982,86.3113 361.5,90C 371.774,92.4117 379.774,89.245 385.5,80.5C 387.5,81.5 389.5,82.5 391.5,83.5C 392.583,84.365 392.749,85.365 392,86.5C 384.177,97.1541 373.677,101.321 360.5,99C 348.899,95.7323 341.732,88.2323 339,76.5C 335.76,56.9474 343.26,43.9474 361.5,37.5 Z"/></g>
<g><path style="opacity:1" fill="#61656a" d="M 179.5,37.5 C 203.393,37.6183 214.893,49.6183 214,73.5C 209.435,92.0593 197.602,100.559 178.5,99C 160.294,93.7931 152.127,81.6264 154,62.5C 157.167,48.4977 165.667,40.1644 179.5,37.5 Z"/></g>
<g><path style="opacity:1" fill="#5f6368" d="M 401.5,37.5 C 404.5,37.5 407.5,37.5 410.5,37.5C 410.335,41.1817 410.501,44.8484 411,48.5C 416.753,39.2058 424.919,35.8725 435.5,38.5C 435.5,41.8333 435.5,45.1667 435.5,48.5C 425.393,45.3623 417.893,48.3623 413,57.5C 411.553,71.4271 411.053,85.4271 411.5,99.5C 408.167,99.5 404.833,99.5 401.5,99.5C 401.5,78.8333 401.5,58.1667 401.5,37.5 Z"/></g>
<g><path style="opacity:1" fill="#4485f4" d="M 41.5,114.5 C 37.5,114.5 33.5,114.5 29.5,114.5C 14.5885,110.756 5.08851,101.422 1,86.5C -1.94218,69.055 4.22449,56.055 19.5,47.5C 21.4498,50.5147 23.1165,53.6813 24.5,57C 18.2818,60.9323 14.1151,66.4323 12,73.5C 11.22,94.7201 21.3866,104.22 42.5,102C 56.5294,96.4409 62.0294,86.2743 59,71.5C 53.5186,59.0093 44.0186,53.676 30.5,55.5C 28.7353,52.0354 27.0687,48.5354 25.5,45C 47.942,40.6354 63.1087,49.1354 71,70.5C 73.553,93.7365 63.7196,108.403 41.5,114.5 Z"/></g>
<g><path style="opacity:1" fill="#fcfcfd" d="M 178.5,46.5 C 195.046,44.9349 203.712,52.4349 204.5,69C 202.229,86.3069 192.562,92.9736 175.5,89C 162.951,80.4197 160.118,69.2531 167,55.5C 170.045,51.4057 173.878,48.4057 178.5,46.5 Z"/></g>
<g><path style="opacity:1" fill="#fdfdfd" d="M 243.5,46.5 C 265.329,46.5116 273.496,57.1782 268,78.5C 260.641,91.0829 250.475,93.9162 237.5,87C 229.928,79.719 227.428,70.8856 230,60.5C 232.687,53.981 237.187,49.3143 243.5,46.5 Z"/></g>
<g><path style="opacity:1" fill="#fafafa" d="M 360.5,46.5 C 368.422,45.1844 375.255,47.1844 381,52.5C 383.035,55.5612 384.201,58.8945 384.5,62.5C 372.5,62.5 360.5,62.5 348.5,62.5C 349.871,55.1371 353.871,49.8038 360.5,46.5 Z"/></g>
<g><path style="opacity:1" fill="#b1b3b5" d="M 116.5,89.5 C 129.167,89.5 141.833,89.5 154.5,89.5C 154.813,93.0419 154.479,96.3752 153.5,99.5C 153.5,96.5 153.5,93.5 153.5,90.5C 140.989,90.8286 128.655,90.4952 116.5,89.5 Z"/></g>
</svg>
