<?xml version="1.0" encoding="UTF-8"?>
<!DOCTYPE svg PUBLIC "-//W3C//DTD SVG 1.1//EN" "http://www.w3.org/Graphics/SVG/1.1/DTD/svg11.dtd">
<svg xmlns="http://www.w3.org/2000/svg" version="1.1" width="235px" height="214px" style="shape-rendering:geometricPrecision; text-rendering:geometricPrecision; image-rendering:optimizeQuality; fill-rule:evenodd; clip-rule:evenodd" xmlns:xlink="http://www.w3.org/1999/xlink">
<g><path style="opacity:1" fill="#d04424" d="M 122.5,-0.5 C 124.5,-0.5 126.5,-0.5 128.5,-0.5C 128.5,6.83333 128.5,14.1667 128.5,21.5C 161.168,21.3334 193.835,21.5 226.5,22C 230.109,22.6249 232.776,24.4582 234.5,27.5C 234.5,78.5 234.5,129.5 234.5,180.5C 233.441,182.555 231.775,183.889 229.5,184.5C 195.663,184.168 161.996,184.502 128.5,185.5C 128.5,194.833 128.5,204.167 128.5,213.5C 126.5,213.5 124.5,213.5 122.5,213.5C 118.281,212.402 113.948,211.402 109.5,210.5C 109.719,209.325 109.386,208.325 108.5,207.5C 106.161,208.724 103.828,208.724 101.5,207.5C 102.826,175.645 103.493,143.645 103.5,111.5C 103.333,79.8333 103.167,48.1667 103,16.5C 102.626,15.5838 102.126,14.7504 101.5,14C 99.4233,13.8078 97.4233,13.3078 95.5,12.5C 96.4383,11.4471 97.605,10.7804 99,10.5C 103.731,12.4788 108.564,14.1455 113.5,15.5C 113.833,15.1667 114.167,14.8333 114.5,14.5C 113.132,11.2203 110.965,10.2203 108,11.5C 101.927,10.0526 95.7605,9.05263 89.5,8.5C 88.3984,7.82434 87.3984,7.15767 86.5,6.5C 98.5,4.16667 110.5,1.83333 122.5,-0.5 Z M 129.5,30.5 C 161.833,30.5 194.167,30.5 226.5,30.5C 226.5,79.5 226.5,128.5 226.5,177.5C 193.833,177.5 161.167,177.5 128.5,177.5C 128.178,171.642 128.511,165.975 129.5,160.5C 152.833,160.5 176.167,160.5 199.5,160.5C 199.813,156.958 199.479,153.625 198.5,150.5C 175.5,149.167 152.5,149.167 129.5,150.5C 128.167,146.167 128.167,141.833 129.5,137.5C 152.833,137.5 176.167,137.5 199.5,137.5C 199.5,135.167 199.5,132.833 199.5,130.5C 199.5,129.167 199.5,127.833 199.5,126.5C 177.5,126.5 155.5,126.5 133.5,126.5C 131.833,126.5 130.167,126.5 128.5,126.5C 128.5,125.5 128.5,124.5 128.5,123.5C 128.334,117.158 128.5,110.825 129,104.5C 145.926,119.422 162.26,118.756 178,102.5C 181.23,98.375 183.063,93.7083 183.5,88.5C 184.461,86.7354 184.795,84.7354 184.5,82.5C 174.167,82.5 163.833,82.5 153.5,82.5C 153.666,72.1613 153.5,61.828 153,51.5C 152.667,51.1667 152.333,50.8333 152,50.5C 149.393,51.1233 146.893,51.79 144.5,52.5C 138.368,53.8169 133.201,56.8169 129,61.5C 128.175,50.9917 128.341,40.6584 129.5,30.5 Z"/></g>
<g><path style="opacity:1" fill="#c14424" d="M 61.5,10.5 C 59.5,11.8333 57.5,13.1667 55.5,14.5C 46.1807,14.1869 36.5141,14.8536 26.5,16.5C 37.9137,13.7707 49.5803,11.7707 61.5,10.5 Z"/></g>
<g><path style="opacity:1" fill="#d04524" d="M 86.5,6.5 C 87.3984,7.15767 88.3984,7.82434 89.5,8.5C 95.7605,9.05263 101.927,10.0526 108,11.5C 110.965,10.2203 113.132,11.2203 114.5,14.5C 114.167,14.8333 113.833,15.1667 113.5,15.5C 108.564,14.1455 103.731,12.4788 99,10.5C 97.605,10.7804 96.4383,11.4471 95.5,12.5C 97.4233,13.3078 99.4233,13.8078 101.5,14C 102.126,14.7504 102.626,15.5838 103,16.5C 103.167,48.1667 103.333,79.8333 103.5,111.5C 103.493,143.645 102.826,175.645 101.5,207.5C 103.828,208.724 106.161,208.724 108.5,207.5C 109.386,208.325 109.719,209.325 109.5,210.5C 89.394,207.593 69.394,204.26 49.5,200.5C 46.2994,198.74 42.6327,197.906 38.5,198C 40.4727,197.505 42.4727,197.338 44.5,197.5C 44.2222,195.654 44.8888,194.32 46.5,193.5C 49.9137,196.318 52.9137,195.985 55.5,192.5C 54.7862,181.544 54.7862,170.544 55.5,159.5C 66.1667,158.833 66.1667,158.167 55.5,157.5C 55.9125,153.817 55.0792,150.483 53,147.5C 52.1049,150.767 50.2716,151.434 47.5,149.5C 47.5,148.167 47.5,146.833 47.5,145.5C 46.1266,145.657 44.7932,145.49 43.5,145C 47.0252,144.821 50.3586,144.321 53.5,143.5C 54.4916,143.672 55.1583,143.338 55.5,142.5C 55.3437,134.471 55.677,126.471 56.5,118.5C 61.5111,118.666 66.5111,118.499 71.5,118C 72.056,117.617 72.3893,117.117 72.5,116.5C 85.8224,106.208 88.9891,93.208 82,77.5C 79.7134,74.5379 76.8801,72.3712 73.5,71C 63.1566,70.4846 52.8233,70.6512 42.5,71.5C 41.6679,94.6631 41.1679,117.996 41,141.5C 40.8188,117.636 40.3188,93.803 39.5,70C 40.5061,68.662 41.5061,67.3287 42.5,66C 39.7737,65.8184 37.1071,65.3184 34.5,64.5C 38.3363,61.6934 42.0029,61.86 45.5,65C 48.4294,65.7772 51.2628,65.6105 54,64.5C 55.3529,47.8657 55.8529,31.1991 55.5,14.5C 57.5,13.1667 59.5,11.8333 61.5,10.5C 69.7129,8.63141 78.0462,7.29808 86.5,6.5 Z"/></g>
<g><path style="opacity:1" fill="#d24826" d="M 55.5,14.5 C 55.8529,31.1991 55.3529,47.8657 54,64.5C 51.2628,65.6105 48.4294,65.7772 45.5,65C 42.0029,61.86 38.3363,61.6934 34.5,64.5C 37.1071,65.3184 39.7737,65.8184 42.5,66C 41.5061,67.3287 40.5061,68.662 39.5,70C 40.3188,93.803 40.8188,117.636 41,141.5C 41.1679,117.996 41.6679,94.6631 42.5,71.5C 42.5,95.1667 42.5,118.833 42.5,142.5C 46.3714,142.185 50.0381,142.518 53.5,143.5C 50.3586,144.321 47.0252,144.821 43.5,145C 44.7932,145.49 46.1266,145.657 47.5,145.5C 47.5,146.833 47.5,148.167 47.5,149.5C 50.2716,151.434 52.1049,150.767 53,147.5C 55.0792,150.483 55.9125,153.817 55.5,157.5C 66.1667,158.167 66.1667,158.833 55.5,159.5C 54.7862,170.544 54.7862,181.544 55.5,192.5C 52.9137,195.985 49.9137,196.318 46.5,193.5C 44.8888,194.32 44.2222,195.654 44.5,197.5C 42.4727,197.338 40.4727,197.505 38.5,198C 42.6327,197.906 46.2994,198.74 49.5,200.5C 32.7878,198.113 16.1211,195.446 -0.5,192.5C -0.5,135.167 -0.5,77.8333 -0.5,20.5C 8.42085,18.6493 17.4208,17.316 26.5,16.5C 36.5141,14.8536 46.1807,14.1869 55.5,14.5 Z"/></g>
<g><path style="opacity:1" fill="#c84527" d="M 162.5,48.5 C 163.167,48.5 163.833,48.5 164.5,48.5C 177.181,51.1807 184.847,58.8473 187.5,71.5C 187.802,74.0593 187.468,76.3926 186.5,78.5C 187.15,74.3928 186.15,70.8928 183.5,68C 184.928,64.5259 184.428,64.0259 182,66.5C 181.808,68.5767 181.308,70.5767 180.5,72.5C 179.447,71.5617 178.78,70.395 178.5,69C 180.022,63.7389 179.189,62.9055 176,66.5C 174.256,65.3508 174.089,64.0175 175.5,62.5C 173.109,61.1914 173.109,60.1914 175.5,59.5C 177.056,60.5471 178.723,61.2137 180.5,61.5C 179.885,57.5517 177.552,55.2184 173.5,54.5C 171.527,55.3311 169.527,55.4978 167.5,55C 169.037,53.8904 169.703,52.3904 169.5,50.5C 166.781,50.3975 164.115,50.7308 161.5,51.5C 160.833,51.1667 160.167,50.8333 159.5,50.5C 160.602,49.8243 161.602,49.1577 162.5,48.5 Z"/></g>
<g><path style="opacity:0.102" fill="#ae4327" d="M 153.5,82.5 C 153.5,82.8333 153.5,83.1667 153.5,83.5C 152.506,73.3468 152.172,63.0135 152.5,52.5C 149.833,52.5 147.167,52.5 144.5,52.5C 146.893,51.79 149.393,51.1233 152,50.5C 152.333,50.8333 152.667,51.1667 153,51.5C 153.5,61.828 153.666,72.1613 153.5,82.5 Z"/></g>
<g><path style="opacity:1" fill="#d14422" d="M 162.5,48.5 C 161.602,49.1577 160.602,49.8243 159.5,50.5C 160.167,50.8333 160.833,51.1667 161.5,51.5C 164.115,50.7308 166.781,50.3975 169.5,50.5C 169.703,52.3904 169.037,53.8904 167.5,55C 169.527,55.4978 171.527,55.3311 173.5,54.5C 177.552,55.2184 179.885,57.5517 180.5,61.5C 178.723,61.2137 177.056,60.5471 175.5,59.5C 173.109,60.1914 173.109,61.1914 175.5,62.5C 174.089,64.0175 174.256,65.3508 176,66.5C 179.189,62.9055 180.022,63.7389 178.5,69C 178.78,70.395 179.447,71.5617 180.5,72.5C 181.308,70.5767 181.808,68.5767 182,66.5C 184.428,64.0259 184.928,64.5259 183.5,68C 186.15,70.8928 187.15,74.3928 186.5,78.5C 176.833,78.5 167.167,78.5 157.5,78.5C 157.5,68.5 157.5,58.5 157.5,48.5C 159.167,48.5 160.833,48.5 162.5,48.5 Z"/></g>
<g><path style="opacity:0.491" fill="#aa472f" d="M 164.5,48.5 C 163.833,48.5 163.167,48.5 162.5,48.5C 160.833,48.5 159.167,48.5 157.5,48.5C 157.5,58.5 157.5,68.5 157.5,78.5C 167.167,78.5 176.833,78.5 186.5,78.5C 187.468,76.3926 187.802,74.0593 187.5,71.5C 188.21,73.8927 188.877,76.3927 189.5,79C 178.505,79.4998 167.505,79.6665 156.5,79.5C 156.5,68.8333 156.5,58.1667 156.5,47.5C 159.385,47.1936 162.052,47.5269 164.5,48.5 Z"/></g>
<g><path style="opacity:0.353" fill="#a54e37" d="M 153.5,83.5 C 153.5,83.1667 153.5,82.8333 153.5,82.5C 163.833,82.5 174.167,82.5 184.5,82.5C 184.795,84.7354 184.461,86.7354 183.5,88.5C 183.5,86.8333 183.5,85.1667 183.5,83.5C 173.5,83.5 163.5,83.5 153.5,83.5 Z"/></g>
<g><path style="opacity:1" fill="#b4482f" d="M 129.5,30.5 C 162.329,29.5017 195.329,29.1684 228.5,29.5C 229.162,79.178 228.495,128.511 226.5,177.5C 226.5,128.5 226.5,79.5 226.5,30.5C 194.167,30.5 161.833,30.5 129.5,30.5 Z"/></g>
<g><path style="opacity:1" fill="#b64226" d="M 68.5,101.5 C 67.657,103.173 66.3237,104.34 64.5,105C 61.2397,105.784 58.0731,105.617 55,104.5C 54.1877,97.2529 54.3544,90.0862 55.5,83C 64.9601,80.8062 70.2935,84.4728 71.5,94C 71.432,96.9563 70.432,99.4563 68.5,101.5 Z"/></g>
<g><path style="opacity:1" fill="#d24523" d="M 68.5,101.5 C 66.3502,101.095 64.3502,100.595 62.5,100C 61.1669,101.84 61.3335,102.34 63,101.5C 63.4828,102.448 63.6495,103.448 63.5,104.5C 61.1667,104.5 58.8333,104.5 56.5,104.5C 56.5,97.8333 56.5,91.1667 56.5,84.5C 65.9505,83.1229 70.4505,87.1229 70,96.5C 69.6667,96.1667 69.3333,95.8333 69,95.5C 68.5045,97.4727 68.3379,99.4727 68.5,101.5 Z"/></g>
<g><path style="opacity:1" fill="#ae4528" d="M 72.5,116.5 C 72.3893,117.117 72.056,117.617 71.5,118C 66.5111,118.499 61.5111,118.666 56.5,118.5C 55.677,126.471 55.3437,134.471 55.5,142.5C 54.3439,134.677 54.1772,126.677 55,118.5C 60.7987,117.768 66.632,117.101 72.5,116.5 Z"/></g>
<g><path style="opacity:0.055" fill="#9f4c30" d="M 133.5,126.5 C 155.5,126.5 177.5,126.5 199.5,126.5C 199.5,127.833 199.5,129.167 199.5,130.5C 199.167,130.5 198.833,130.5 198.5,130.5C 198.5,129.833 198.5,129.167 198.5,128.5C 176.833,127.833 155.167,127.167 133.5,126.5 Z"/></g>
<g><path style="opacity:1" fill="#bd4122" d="M 128.5,123.5 C 128.5,124.5 128.5,125.5 128.5,126.5C 130.167,126.5 131.833,126.5 133.5,126.5C 155.167,127.167 176.833,127.833 198.5,128.5C 174.833,128.5 151.167,128.5 127.5,128.5C 127.216,126.585 127.549,124.919 128.5,123.5 Z"/></g>
<g><path style="opacity:0.601" fill="#b2492f" d="M 198.5,130.5 C 198.833,130.5 199.167,130.5 199.5,130.5C 199.5,132.833 199.5,135.167 199.5,137.5C 176.167,137.5 152.833,137.5 129.5,137.5C 152.327,136.502 175.327,136.169 198.5,136.5C 198.5,134.5 198.5,132.5 198.5,130.5 Z"/></g>
<g><path style="opacity:0.039" fill="#b13319" d="M 129.5,150.5 C 152.5,149.167 175.5,149.167 198.5,150.5C 198.5,150.833 198.5,151.167 198.5,151.5C 175.575,150.511 152.575,150.178 129.5,150.5 Z"/></g>
<g><path style="opacity:0.616" fill="#a8513c" d="M 198.5,150.5 C 199.479,153.625 199.813,156.958 199.5,160.5C 176.167,160.5 152.833,160.5 129.5,160.5C 152.327,159.502 175.327,159.169 198.5,159.5C 198.5,156.833 198.5,154.167 198.5,151.5C 198.5,151.167 198.5,150.833 198.5,150.5 Z"/></g>
<g><path style="opacity:1" fill="#aa3a1b" d="M 128.5,185.5 C 161.996,184.502 195.663,184.168 229.5,184.5C 228.737,185.268 227.737,185.768 226.5,186C 193.762,186.825 161.095,186.659 128.5,185.5 Z"/></g>
</svg>
