<?xml version="1.0" encoding="UTF-8"?>
<!DOCTYPE svg PUBLIC "-//W3C//DTD SVG 1.1//EN" "http://www.w3.org/Graphics/SVG/1.1/DTD/svg11.dtd">
<svg xmlns="http://www.w3.org/2000/svg" version="1.1" width="225px" height="225px" style="shape-rendering:geometricPrecision; text-rendering:geometricPrecision; image-rendering:optimizeQuality; fill-rule:evenodd; clip-rule:evenodd" xmlns:xlink="http://www.w3.org/1999/xlink">
<g><path style="opacity:1" fill="#fffefd" d="M -0.5,-0.5 C 32.8333,-0.5 66.1667,-0.5 99.5,-0.5C 43.1667,9.83333 9.83333,43.1667 -0.5,99.5C -0.5,66.1667 -0.5,32.8333 -0.5,-0.5 Z"/></g>
<g><path style="opacity:1" fill="#fede3d" d="M 99.5,-0.5 C 106.5,-0.5 113.5,-0.5 120.5,-0.5C 179.012,8.01193 213.679,41.3453 224.5,99.5C 224.5,106.167 224.5,112.833 224.5,119.5C 215.964,180.37 181.297,215.37 120.5,224.5C 113.5,224.5 106.5,224.5 99.5,224.5C 40.8815,213.549 7.54816,178.549 -0.5,119.5C -0.5,112.833 -0.5,106.167 -0.5,99.5C 9.83333,43.1667 43.1667,9.83333 99.5,-0.5 Z"/></g>
<g><path style="opacity:1" fill="#fffefd" d="M 120.5,-0.5 C 155.167,-0.5 189.833,-0.5 224.5,-0.5C 224.5,32.8333 224.5,66.1667 224.5,99.5C 213.679,41.3453 179.012,8.01193 120.5,-0.5 Z"/></g>
<g><path style="opacity:1" fill="#e4c636" d="M 87.5,100.5 C 89.1128,99.1619 89.6128,97.4952 89,95.5C 86.1667,90.5 83.3333,85.5 80.5,80.5C 87.4093,78.1937 90.7427,73.3603 90.5,66C 90.1536,60.4511 87.487,56.6178 82.5,54.5C 81.8333,54.5 81.5,54.1667 81.5,53.5C 82.4959,53.5858 83.3292,53.2524 84,52.5C 87.8463,45.4628 92.1796,38.7962 97,32.5C 105.107,37.1331 112.941,42.1331 120.5,47.5C 109.196,65.8892 98.1963,83.5559 87.5,100.5 Z"/></g>
<g><path style="opacity:1" fill="#af992a" d="M 54.5,52.5 C 63.5404,52.2518 72.5404,52.5851 81.5,53.5C 81.5,54.1667 81.8333,54.5 82.5,54.5C 80.3565,57.122 79.0231,60.122 78.5,63.5C 74.0666,61.6994 69.3999,61.0328 64.5,61.5C 64.5,65.1667 64.5,68.8333 64.5,72.5C 66.8333,72.5 69.1667,72.5 71.5,72.5C 70.1944,74.8162 68.8611,77.1495 67.5,79.5C 68.2427,80.1818 68.9094,80.8485 69.5,81.5C 67.8333,81.5 66.1667,81.5 64.5,81.5C 64.5,82.5 64.5,83.5 64.5,84.5C 61.4148,89.672 58.0814,94.672 54.5,99.5C 54.5,83.8333 54.5,68.1667 54.5,52.5 Z"/></g>
<g><path style="opacity:1" fill="#b29b2b" d="M 127.5,52.5 C 141.833,52.5 156.167,52.5 170.5,52.5C 170.5,55.8333 170.5,59.1667 170.5,62.5C 156.167,62.5 141.833,62.5 127.5,62.5C 127.5,59.1667 127.5,55.8333 127.5,52.5 Z"/></g>
<g><path style="opacity:1" fill="#080601" d="M 82.5,54.5 C 87.487,56.6178 90.1536,60.4511 90.5,66C 90.7427,73.3603 87.4093,78.1937 80.5,80.5C 83.3333,85.5 86.1667,90.5 89,95.5C 89.6128,97.4952 89.1128,99.1619 87.5,100.5C 84.7531,100.813 82.0865,100.48 79.5,99.5C 76.1389,93.4378 72.8055,87.4378 69.5,81.5C 68.9094,80.8485 68.2427,80.1818 67.5,79.5C 68.8611,77.1495 70.1944,74.8162 71.5,72.5C 78.1096,72.576 80.4429,69.576 78.5,63.5C 79.0231,60.122 80.3565,57.122 82.5,54.5 Z"/></g>
<g><path style="opacity:1" fill="#f5d63b" d="M 78.5,63.5 C 80.4429,69.576 78.1096,72.576 71.5,72.5C 69.1667,72.5 66.8333,72.5 64.5,72.5C 64.5,68.8333 64.5,65.1667 64.5,61.5C 69.3999,61.0328 74.0666,61.6994 78.5,63.5 Z"/></g>
<g><path style="opacity:1" fill="#b0992a" d="M 170.5,77.5 C 168.321,77.16 166.488,76.16 165,74.5C 163.708,76.2487 162.542,78.082 161.5,80C 164.482,80.498 167.482,80.6646 170.5,80.5C 156.351,80.7132 142.018,80.7132 127.5,80.5C 127.5,77.5 127.5,74.5 127.5,71.5C 141.833,71.5 156.167,71.5 170.5,71.5C 170.5,73.5 170.5,75.5 170.5,77.5 Z"/></g>
<g><path style="opacity:1" fill="#0a0702" d="M 170.5,77.5 C 170.5,78.5 170.5,79.5 170.5,80.5C 167.482,80.6646 164.482,80.498 161.5,80C 162.542,78.082 163.708,76.2487 165,74.5C 166.488,76.16 168.321,77.16 170.5,77.5 Z"/></g>
<g><path style="opacity:1" fill="#e4c636" d="M 165.5,127.5 C 157.632,123.667 149.298,122.501 140.5,124C 137.138,125.343 134.138,127.176 131.5,129.5C 136.968,119.24 142.968,109.24 149.5,99.5C 156.5,99.5 163.5,99.5 170.5,99.5C 170.5,96.1667 170.5,92.8333 170.5,89.5C 166.018,88.6745 161.351,88.1745 156.5,88C 157.627,86.2467 158.627,84.4134 159.5,82.5C 148.674,81.8333 138.008,81.1666 127.5,80.5C 142.018,80.7132 156.351,80.7132 170.5,80.5C 172.194,79.314 173.861,79.4807 175.5,81C 180.008,83.7533 184.341,86.7533 188.5,90C 180.697,102.444 173.03,114.944 165.5,127.5 Z"/></g>
<g><path style="opacity:1" fill="#e2c536" d="M 54.5,52.5 C 54.5,68.1667 54.5,83.8333 54.5,99.5C 57.6248,100.479 60.9581,100.813 64.5,100.5C 64.5,95.1667 64.5,89.8333 64.5,84.5C 64.5,83.5 64.5,82.5 64.5,81.5C 66.1667,81.5 67.8333,81.5 69.5,81.5C 72.8055,87.4378 76.1389,93.4378 79.5,99.5C 82.0865,100.48 84.7531,100.813 87.5,100.5C 85.2612,104.64 82.7612,108.64 80,112.5C 75.8036,119.284 74.1369,126.617 75,134.5C 75.5218,137.281 76.6885,139.615 78.5,141.5C 78.1667,142.167 77.8333,142.833 77.5,143.5C 76.2913,147.589 74.7913,151.589 73,155.5C 69.2648,145.461 65.4315,135.461 61.5,125.5C 57.5411,124.34 53.5411,124.173 49.5,125C 55.4622,139.054 61.1288,153.221 66.5,167.5C 65.8826,167.611 65.3826,167.944 65,168.5C 43.8349,149.659 39.8349,127.659 53,102.5C 53.1685,85.6616 53.6685,68.995 54.5,52.5 Z"/></g>
<g><path style="opacity:1" fill="#0f0c03" d="M 64.5,84.5 C 64.5,89.8333 64.5,95.1667 64.5,100.5C 60.9581,100.813 57.6248,100.479 54.5,99.5C 58.0814,94.672 61.4148,89.672 64.5,84.5 Z"/></g>
<g><path style="opacity:1" fill="#b19a2a" d="M 155.5,89.5 C 153.5,92.8333 151.5,96.1667 149.5,99.5C 142.167,99.5 134.833,99.5 127.5,99.5C 127.5,96.1667 127.5,92.8333 127.5,89.5C 136.833,89.5 146.167,89.5 155.5,89.5 Z"/></g>
<g><path style="opacity:1" fill="#090701" d="M 155.5,89.5 C 160.5,89.5 165.5,89.5 170.5,89.5C 170.5,92.8333 170.5,96.1667 170.5,99.5C 163.5,99.5 156.5,99.5 149.5,99.5C 151.5,96.1667 153.5,92.8333 155.5,89.5 Z"/></g>
<g><path style="opacity:1" fill="#040300" d="M 165.5,127.5 C 163.404,130.262 161.738,133.262 160.5,136.5C 160.167,136.5 159.833,136.5 159.5,136.5C 157.042,133.693 153.875,132.359 150,132.5C 138.585,133.631 133.585,139.964 135,151.5C 135.945,156.767 138.779,160.434 143.5,162.5C 141.5,165.167 139.167,167.5 136.5,169.5C 131.85,167.015 128.35,163.348 126,158.5C 124.711,152.912 124.211,147.245 124.5,141.5C 126.008,136.998 128.341,132.998 131.5,129.5C 134.138,127.176 137.138,125.343 140.5,124C 149.298,122.501 157.632,123.667 165.5,127.5 Z"/></g>
<g><path style="opacity:1" fill="#030200" d="M 77.5,143.5 C 80.1667,145.833 82.8333,148.167 85.5,150.5C 85.5,150.833 85.5,151.167 85.5,151.5C 82.5929,157.69 79.7595,164.023 77,170.5C 74.6194,171.435 72.1194,171.768 69.5,171.5C 68.0256,170.564 67.0256,169.23 66.5,167.5C 61.1288,153.221 55.4622,139.054 49.5,125C 53.5411,124.173 57.5411,124.34 61.5,125.5C 65.4315,135.461 69.2648,145.461 73,155.5C 74.7913,151.589 76.2913,147.589 77.5,143.5 Z"/></g>
<g><path style="opacity:1" fill="#b19a2a" d="M 85.5,150.5 C 82.8333,148.167 80.1667,145.833 77.5,143.5C 77.8333,142.833 78.1667,142.167 78.5,141.5C 80.4866,136.188 82.4866,130.854 84.5,125.5C 88.1073,124.511 91.774,124.177 95.5,124.5C 92.7256,133.382 89.3922,142.049 85.5,150.5 Z"/></g>
<g><path style="opacity:1" fill="#fffefd" d="M -0.5,119.5 C 7.54816,178.549 40.8815,213.549 99.5,224.5C 66.1667,224.5 32.8333,224.5 -0.5,224.5C -0.5,189.5 -0.5,154.5 -0.5,119.5 Z"/></g>
<g><path style="opacity:1" fill="#fffefd" d="M 224.5,119.5 C 224.5,154.5 224.5,189.5 224.5,224.5C 189.833,224.5 155.167,224.5 120.5,224.5C 181.297,215.37 215.964,180.37 224.5,119.5 Z"/></g>
<g><path style="opacity:1" fill="#b29b2a" d="M 165.5,127.5 C 173.889,134.159 177.055,142.826 175,153.5C 170.522,167.962 160.688,174.462 145.5,173C 142.348,172.605 139.348,171.772 136.5,170.5C 136.5,170.167 136.5,169.833 136.5,169.5C 139.167,167.5 141.5,165.167 143.5,162.5C 143.833,162.5 144.167,162.5 144.5,162.5C 156.844,165.163 163.511,160.163 164.5,147.5C 164.342,143.354 163.008,139.688 160.5,136.5C 161.738,133.262 163.404,130.262 165.5,127.5 Z"/></g>
<g><path style="opacity:1" fill="#e2c436" d="M 159.5,136.5 C 154.5,145.167 149.5,153.833 144.5,162.5C 144.167,162.5 143.833,162.5 143.5,162.5C 138.779,160.434 135.945,156.767 135,151.5C 133.585,139.964 138.585,133.631 150,132.5C 153.875,132.359 157.042,133.693 159.5,136.5 Z"/></g>
<g><path style="opacity:1" fill="#fddd3c" d="M 159.5,136.5 C 159.833,136.5 160.167,136.5 160.5,136.5C 163.008,139.688 164.342,143.354 164.5,147.5C 163.511,160.163 156.844,165.163 144.5,162.5C 149.5,153.833 154.5,145.167 159.5,136.5 Z"/></g>
<g><path style="opacity:1" fill="#e3c536" d="M 124.5,141.5 C 124.211,147.245 124.711,152.912 126,158.5C 128.35,163.348 131.85,167.015 136.5,169.5C 136.5,169.833 136.5,170.167 136.5,170.5C 122.32,183.29 105.987,186.79 87.5,181C 80.9636,178.568 74.9636,175.402 69.5,171.5C 72.1194,171.768 74.6194,171.435 77,170.5C 79.7595,164.023 82.5929,157.69 85.5,151.5C 101.265,158.551 114.265,155.218 124.5,141.5 Z"/></g>
</svg>
