<?xml version="1.0" encoding="UTF-8"?>
<!DOCTYPE svg PUBLIC "-//W3C//DTD SVG 1.1//EN" "http://www.w3.org/Graphics/SVG/1.1/DTD/svg11.dtd">
<svg xmlns="http://www.w3.org/2000/svg" version="1.1" width="1200px" height="1641px" style="shape-rendering:geometricPrecision; text-rendering:geometricPrecision; image-rendering:optimizeQuality; fill-rule:evenodd; clip-rule:evenodd" xmlns:xlink="http://www.w3.org/1999/xlink">
<g><path style="opacity:0.917" fill="#4fb784" d="M 745.5,23.5 C 744.527,25.9479 744.194,28.6146 744.5,31.5C 537.166,31.3333 329.833,31.5 122.5,32C 64.1364,39.8663 29.8031,72.6996 19.5,130.5C 22.2616,82.9355 45.2616,49.4355 88.5,30C 95.6626,27.376 102.996,25.376 110.5,24C 217.644,22.8418 324.811,22.3418 432,22.5C 536.667,22.5 641.167,22.8333 745.5,23.5 Z"/></g>
<g><path style="opacity:0.999" fill="#8dd0b0" d="M 745.5,23.5 C 890.5,167.833 1035.17,312.5 1179.5,457.5C 1065.83,457.667 952.166,457.5 838.5,457C 819.458,453.823 802.125,446.657 786.5,435.5C 764.441,417.102 750.774,393.769 745.5,365.5C 744.51,254.518 744.177,143.518 744.5,32.5C 744.5,32.1667 744.5,31.8333 744.5,31.5C 744.194,28.6146 744.527,25.9479 745.5,23.5 Z"/></g>
<g><path style="opacity:1" fill="#26a668" d="M 744.5,31.5 C 744.5,31.8333 744.5,32.1667 744.5,32.5C 718.167,32.5 691.833,32.5 665.5,32.5C 521.833,32.3333 378.166,32.5 234.5,33C 247.879,100.858 229.546,158.525 179.5,206C 133.119,244.68 80.1185,258.18 20.5,246.5C 20.5,390.167 20.5,533.833 20.5,677.5C 20.5,748.833 20.5,820.167 20.5,891.5C 20.5,986.5 20.5,1081.5 20.5,1176.5C 20.1667,1176.5 19.8333,1176.5 19.5,1176.5C 19.5,827.833 19.5,479.167 19.5,130.5C 29.8031,72.6996 64.1364,39.8663 122.5,32C 329.833,31.5 537.166,31.3333 744.5,31.5 Z"/></g>
<g><path style="opacity:1" fill="#22a465" d="M 665.5,32.5 C 674.149,206.081 620.649,357.081 505,485.5C 372.853,621.938 211.353,685.938 20.5,677.5C 20.5,533.833 20.5,390.167 20.5,246.5C 80.1185,258.18 133.119,244.68 179.5,206C 229.546,158.525 247.879,100.858 234.5,33C 378.166,32.5 521.833,32.3333 665.5,32.5 Z"/></g>
<g><path style="opacity:1" fill="#1ea362" d="M 665.5,32.5 C 691.833,32.5 718.167,32.5 744.5,32.5C 744.177,143.518 744.51,254.518 745.5,365.5C 747.993,399.827 762.993,427.161 790.5,447.5C 709.525,602.141 591.859,720.141 437.5,801.5C 394.833,801.5 352.167,801.5 309.5,801.5C 309.5,819.167 309.5,836.833 309.5,854.5C 215.336,883.646 119.002,895.979 20.5,891.5C 20.5,820.167 20.5,748.833 20.5,677.5C 211.353,685.938 372.853,621.938 505,485.5C 620.649,357.081 674.149,206.081 665.5,32.5 Z"/></g>
<g><path style="opacity:1" fill="#229960" d="M 745.5,365.5 C 750.774,393.769 764.441,417.102 786.5,435.5C 792.451,441.787 798.451,448.12 804.5,454.5C 799.523,452.678 794.857,450.345 790.5,447.5C 762.993,427.161 747.993,399.827 745.5,365.5 Z"/></g>
<g><path style="opacity:1" fill="#1aa160" d="M 790.5,447.5 C 794.857,450.345 799.523,452.678 804.5,454.5C 805.833,455.5 807.167,456.5 808.5,457.5C 821.167,470.833 834.167,483.833 847.5,496.5C 889.833,539.5 932.5,582.167 975.5,624.5C 984.5,633.833 993.5,643.167 1002.5,652.5C 969.067,705.943 931.4,756.276 889.5,803.5C 739.17,801.501 588.504,800.835 437.5,801.5C 591.859,720.141 709.525,602.141 790.5,447.5 Z"/></g>
<g><path style="opacity:1" fill="#218557" d="M 786.5,435.5 C 802.125,446.657 819.458,453.823 838.5,457C 952.166,457.5 1065.83,457.667 1179.5,457.5C 1179.5,460.5 1179.5,463.5 1179.5,466.5C 1179.17,466.5 1178.83,466.5 1178.5,466.5C 1066.17,466.667 953.833,466.5 841.5,466C 830.111,464.57 819.111,461.736 808.5,457.5C 807.167,456.5 805.833,455.5 804.5,454.5C 798.451,448.12 792.451,441.787 786.5,435.5 Z"/></g>
<g><path style="opacity:1" fill="#1d8e59" d="M 808.5,457.5 C 819.111,461.736 830.111,464.57 841.5,466C 953.833,466.5 1066.17,466.667 1178.5,466.5C 1178.5,484.5 1178.5,502.5 1178.5,520.5C 1168.83,520.5 1159.17,520.5 1149.5,520.5C 1150.17,517.833 1150.83,515.167 1151.5,512.5C 1099.83,512.667 1048.17,512.5 996.5,512C 999.234,507.365 1001.57,502.532 1003.5,497.5C 951.504,496.5 899.504,496.167 847.5,496.5C 834.167,483.833 821.167,470.833 808.5,457.5 Z"/></g>
<g><path style="opacity:0.998" fill="#1c915a" d="M 1178.5,466.5 C 1178.83,466.5 1179.17,466.5 1179.5,466.5C 1179.5,511.167 1179.5,555.833 1179.5,600.5C 1178.67,609.658 1178.17,618.991 1178,628.5C 1176.17,632.167 1174.33,635.833 1172.5,639.5C 1118.17,640.667 1063.84,640.833 1009.5,640C 1012.5,635 1015.5,630 1018.5,625C 1004.17,624.5 989.837,624.333 975.5,624.5C 932.5,582.167 889.833,539.5 847.5,496.5C 899.504,496.167 951.504,496.5 1003.5,497.5C 1001.57,502.532 999.234,507.365 996.5,512C 1048.17,512.5 1099.83,512.667 1151.5,512.5C 1150.83,515.167 1150.17,517.833 1149.5,520.5C 1159.17,520.5 1168.83,520.5 1178.5,520.5C 1178.5,502.5 1178.5,484.5 1178.5,466.5 Z"/></g>
<g><path style="opacity:1" fill="#19955b" d="M 1179.5,600.5 C 1179.5,635.167 1179.5,669.833 1179.5,704.5C 1178.51,696.684 1178.17,688.684 1178.5,680.5C 1178.5,675.167 1178.5,669.833 1178.5,664.5C 1172.16,664.666 1165.82,664.5 1159.5,664C 1160.83,661.667 1162.17,659.333 1163.5,657C 1111.5,656.5 1059.5,656.333 1007.5,656.5C 1005.83,655.167 1004.17,653.833 1002.5,652.5C 993.5,643.167 984.5,633.833 975.5,624.5C 989.837,624.333 1004.17,624.5 1018.5,625C 1015.5,630 1012.5,635 1009.5,640C 1063.84,640.833 1118.17,640.667 1172.5,639.5C 1174.33,635.833 1176.17,632.167 1178,628.5C 1178.17,618.991 1178.67,609.658 1179.5,600.5 Z"/></g>
<g><path style="opacity:1" fill="#17a05e" d="M 1002.5,652.5 C 1004.17,653.833 1005.83,655.167 1007.5,656.5C 1033.17,682.833 1059.17,708.833 1085.5,734.5C 1092.17,741.5 1098.83,748.5 1105.5,755.5C 1044.91,848.132 972.911,931.466 889.5,1005.5C 889.5,938.167 889.5,870.833 889.5,803.5C 931.4,756.276 969.067,705.943 1002.5,652.5 Z"/></g>
<g><path style="opacity:1" fill="#19975b" d="M 1007.5,656.5 C 1059.5,656.333 1111.5,656.5 1163.5,657C 1162.17,659.333 1160.83,661.667 1159.5,664C 1165.82,664.5 1172.16,664.666 1178.5,664.5C 1178.5,669.833 1178.5,675.167 1178.5,680.5C 1169.16,680.334 1159.83,680.5 1150.5,681C 1140.37,698.63 1130.03,716.13 1119.5,733.5C 1108.19,734.499 1096.85,734.832 1085.5,734.5C 1059.17,708.833 1033.17,682.833 1007.5,656.5 Z"/></g>
<g><path style="opacity:1" fill="#17995b" d="M 1178.5,680.5 C 1178.17,688.684 1178.51,696.684 1179.5,704.5C 1179.5,739.167 1179.5,773.833 1179.5,808.5C 1178.53,806.052 1178.19,803.385 1178.5,800.5C 1169.49,800.666 1160.49,800.5 1151.5,800C 1135.99,785.327 1120.66,770.494 1105.5,755.5C 1098.83,748.5 1092.17,741.5 1085.5,734.5C 1096.85,734.832 1108.19,734.499 1119.5,733.5C 1130.03,716.13 1140.37,698.63 1150.5,681C 1159.83,680.5 1169.16,680.334 1178.5,680.5 Z"/></g>
<g><path style="opacity:1" fill="#149f5b" d="M 1105.5,755.5 C 1120.66,770.494 1135.99,785.327 1151.5,800C 1160.49,800.5 1169.49,800.666 1178.5,800.5C 1178.19,803.385 1178.53,806.052 1179.5,808.5C 1179.5,979.167 1179.5,1149.83 1179.5,1320.5C 1178.67,1288.67 1178.17,1256.67 1178,1224.5C 992.698,1402.64 776.531,1530.3 529.5,1607.5C 391.166,1607.67 252.833,1607.5 114.5,1607C 67.659,1598.16 37.159,1570.99 23,1525.5C 21.4035,1518.92 20.5702,1512.26 20.5,1505.5C 20.5,1443.5 20.5,1381.5 20.5,1319.5C 117.768,1322.69 214.102,1314.69 309.5,1295.5C 309.5,1306.17 309.5,1316.83 309.5,1327.5C 502.833,1327.5 696.167,1327.5 889.5,1327.5C 889.5,1220.17 889.5,1112.83 889.5,1005.5C 972.911,931.466 1044.91,848.132 1105.5,755.5 Z"/></g>
<g><path style="opacity:1" fill="#1aa160" d="M 309.5,854.5 C 309.5,952.833 309.5,1051.17 309.5,1149.5C 214.346,1171.38 118.013,1180.38 20.5,1176.5C 20.5,1081.5 20.5,986.5 20.5,891.5C 119.002,895.979 215.336,883.646 309.5,854.5 Z"/></g>
<g><path style="opacity:1" fill="#b6dbc9" d="M 437.5,801.5 C 588.504,800.835 739.17,801.501 889.5,803.5C 889.5,870.833 889.5,938.167 889.5,1005.5C 889.5,1112.83 889.5,1220.17 889.5,1327.5C 696.167,1327.5 502.833,1327.5 309.5,1327.5C 309.5,1316.83 309.5,1306.17 309.5,1295.5C 309.5,1246.83 309.5,1198.17 309.5,1149.5C 309.5,1051.17 309.5,952.833 309.5,854.5C 309.5,836.833 309.5,819.167 309.5,801.5C 352.167,801.5 394.833,801.5 437.5,801.5 Z"/></g>
<g><path style="opacity:1" fill="#f0f1f1" d="M 310.5,802.5 C 503.167,802.5 695.833,802.5 888.5,802.5C 888.5,977.167 888.5,1151.83 888.5,1326.5C 695.833,1326.5 503.167,1326.5 310.5,1326.5C 310.5,1151.83 310.5,977.167 310.5,802.5 Z"/></g>
<g><path style="opacity:1" fill="#19a15f" d="M 635.5,874.5 C 695.833,874.5 756.167,874.5 816.5,874.5C 816.5,904.5 816.5,934.5 816.5,964.5C 756.167,964.5 695.833,964.5 635.5,964.5C 635.5,934.5 635.5,904.5 635.5,874.5 Z"/></g>
<g><path style="opacity:1" fill="#1ba260" d="M 382.5,874.5 C 442.833,874.5 503.167,874.5 563.5,874.5C 563.5,904.5 563.5,934.5 563.5,964.5C 503.167,964.5 442.833,964.5 382.5,964.5C 382.5,934.5 382.5,904.5 382.5,874.5 Z"/></g>
<g><path style="opacity:1" fill="#19a15f" d="M 382.5,1019.5 C 442.833,1019.5 503.167,1019.5 563.5,1019.5C 563.5,1049.5 563.5,1079.5 563.5,1109.5C 503.167,1109.5 442.833,1109.5 382.5,1109.5C 382.5,1079.5 382.5,1049.5 382.5,1019.5 Z"/></g>
<g><path style="opacity:1" fill="#17a05e" d="M 635.5,1019.5 C 695.833,1019.5 756.167,1019.5 816.5,1019.5C 816.5,1049.5 816.5,1079.5 816.5,1109.5C 756.167,1109.5 695.833,1109.5 635.5,1109.5C 635.5,1079.5 635.5,1049.5 635.5,1019.5 Z"/></g>
<g><path style="opacity:1" fill="#17a05e" d="M 309.5,1149.5 C 309.5,1198.17 309.5,1246.83 309.5,1295.5C 214.102,1314.69 117.768,1322.69 20.5,1319.5C 20.5,1381.5 20.5,1443.5 20.5,1505.5C 20.1667,1505.5 19.8333,1505.5 19.5,1505.5C 19.5,1395.83 19.5,1286.17 19.5,1176.5C 19.8333,1176.5 20.1667,1176.5 20.5,1176.5C 118.013,1180.38 214.346,1171.38 309.5,1149.5 Z"/></g>
<g><path style="opacity:1" fill="#17a05e" d="M 382.5,1164.5 C 442.5,1164.5 502.5,1164.5 562.5,1164.5C 562.5,1194.5 562.5,1224.5 562.5,1254.5C 502.5,1254.5 442.5,1254.5 382.5,1254.5C 382.5,1224.5 382.5,1194.5 382.5,1164.5 Z"/></g>
<g><path style="opacity:1" fill="#67bc91" d="M 382.5,1164.5 C 442.664,1163.5 502.998,1163.17 563.5,1163.5C 563.831,1194 563.498,1224.34 562.5,1254.5C 562.5,1224.5 562.5,1194.5 562.5,1164.5C 502.5,1164.5 442.5,1164.5 382.5,1164.5 Z"/></g>
<g><path style="opacity:1" fill="#66bc90" d="M 816.5,1164.5 C 756.5,1164.5 696.5,1164.5 636.5,1164.5C 636.5,1194.5 636.5,1224.5 636.5,1254.5C 635.502,1224.34 635.169,1194 635.5,1163.5C 696.002,1163.17 756.336,1163.5 816.5,1164.5 Z"/></g>
<g><path style="opacity:1" fill="#169f5d" d="M 816.5,1164.5 C 816.5,1194.5 816.5,1224.5 816.5,1254.5C 756.5,1254.5 696.5,1254.5 636.5,1254.5C 636.5,1224.5 636.5,1194.5 636.5,1164.5C 696.5,1164.5 756.5,1164.5 816.5,1164.5 Z"/></g>
<g><path style="opacity:0.999" fill="#119d59" d="M 1179.5,1320.5 C 1179.5,1381.17 1179.5,1441.83 1179.5,1502.5C 1175.32,1550.86 1150.65,1584.02 1105.5,1602C 1100.25,1603.65 1094.91,1604.98 1089.5,1606C 902.856,1607.49 716.189,1607.99 529.5,1607.5C 776.531,1530.3 992.698,1402.64 1178,1224.5C 1178.17,1256.67 1178.67,1288.67 1179.5,1320.5 Z"/></g>
<g><path style="opacity:1" fill="#158953" d="M 1179.5,1502.5 C 1179.8,1545.41 1162.13,1578.58 1126.5,1602C 1111.57,1610.42 1095.57,1615.42 1078.5,1617C 759.167,1617.67 439.833,1617.67 120.5,1617C 74.9005,1611.73 43.4005,1587.89 26,1545.5C 21.3665,1532.57 19.1999,1519.23 19.5,1505.5C 19.8333,1505.5 20.1667,1505.5 20.5,1505.5C 20.5702,1512.26 21.4035,1518.92 23,1525.5C 37.159,1570.99 67.659,1598.16 114.5,1607C 252.833,1607.5 391.166,1607.67 529.5,1607.5C 716.189,1607.99 902.856,1607.49 1089.5,1606C 1094.91,1604.98 1100.25,1603.65 1105.5,1602C 1150.65,1584.02 1175.32,1550.86 1179.5,1502.5 Z"/></g>
</svg>
