<?xml version="1.0" encoding="UTF-8"?>
<!DOCTYPE svg PUBLIC "-//W3C//DTD SVG 1.1//EN" "http://www.w3.org/Graphics/SVG/1.1/DTD/svg11.dtd">
<svg xmlns="http://www.w3.org/2000/svg" version="1.1" width="200px" height="200px" style="shape-rendering:geometricPrecision; text-rendering:geometricPrecision; image-rendering:optimizeQuality; fill-rule:evenodd; clip-rule:evenodd" xmlns:xlink="http://www.w3.org/1999/xlink">
<g><path style="opacity:0.997" fill="#161616" d="M 86.5,13.5 C 86.5,14.8333 86.5,16.1667 86.5,17.5C 61.661,17.831 36.9944,17.4977 12.5,16.5C 12.1961,15.8501 11.8627,15.1835 11.5,14.5C 14.8482,13.7125 18.1815,12.8792 21.5,12C 42.8333,11.3333 64.1667,11.3333 85.5,12C 86.056,12.3826 86.3893,12.8826 86.5,13.5 Z"/></g>
<g><path style="opacity:1" fill="#161616" d="M 186.5,13.5 C 186.5,14.8333 186.5,16.1667 186.5,17.5C 159.833,17.5 133.167,17.5 106.5,17.5C 106.5,15.8333 106.5,14.1667 106.5,12.5C 132.761,11.3432 159.095,11.1766 185.5,12C 186.056,12.3826 186.389,12.8826 186.5,13.5 Z"/></g>
<g><path style="opacity:0.745" fill="#424242" d="M 86.5,13.5 C 87.4511,14.9187 87.7845,16.5853 87.5,18.5C 62.1579,18.8331 36.8246,18.4998 11.5,17.5C 11.6236,16.8933 11.9569,16.56 12.5,16.5C 36.9944,17.4977 61.661,17.831 86.5,17.5C 86.5,16.1667 86.5,14.8333 86.5,13.5 Z"/></g>
<g><path style="opacity:0.753" fill="#434343" d="M 106.5,12.5 C 106.5,14.1667 106.5,15.8333 106.5,17.5C 133.167,17.5 159.833,17.5 186.5,17.5C 186.5,16.1667 186.5,14.8333 186.5,13.5C 187.451,14.9187 187.784,16.5853 187.5,18.5C 160.167,18.5 132.833,18.5 105.5,18.5C 105.205,16.2646 105.539,14.2646 106.5,12.5 Z"/></g>
<g><path style="opacity:1" fill="#1c1c1c" d="M 11.5,24.5 C 36.8333,24.5 62.1667,24.5 87.5,24.5C 87.6666,42.8364 87.4999,61.1697 87,79.5C 86.5,80 86,80.5 85.5,81C 61.5,81.6667 37.5,81.6667 13.5,81C 13,80.5 12.5,80 12,79.5C 11.5001,61.1697 11.3334,42.8364 11.5,24.5 Z M 19.5,31.5 C 31.4139,31.1785 43.2473,31.5118 55,32.5C 55.6667,45.8333 55.6667,59.1667 55,72.5C 54.5,73 54,73.5 53.5,74C 42.5,74.6667 31.5,74.6667 20.5,74C 20,73.5 19.5,73 19,72.5C 18.186,58.7584 18.3527,45.0917 19.5,31.5 Z M 63.5,31.5 C 69.0934,31.1934 74.5934,31.5268 80,32.5C 80.6667,37.5 80.6667,42.5 80,47.5C 79.5,48 79,48.5 78.5,49C 73.8333,49.6667 69.1667,49.6667 64.5,49C 64,48.5 63.5,48 63,47.5C 62.2185,42.0833 62.3852,36.7499 63.5,31.5 Z M 63.5,56.5 C 69.0934,56.1934 74.5934,56.5268 80,57.5C 80.6667,62.5 80.6667,67.5 80,72.5C 79.5,73 79,73.5 78.5,74C 73.8333,74.6667 69.1667,74.6667 64.5,74C 64,73.5 63.5,73 63,72.5C 62.2185,67.0833 62.3852,61.7499 63.5,56.5 Z"/></g>
<g><path style="opacity:1" fill="#1a1a1a" d="M 114.5,80.5 C 129.695,80.8386 144.695,81.8386 159.5,83.5C 159.461,84.5832 159.127,85.5832 158.5,86.5C 143.27,87.1741 128.103,87.8408 113,88.5C 112.316,89.7839 112.483,90.9505 113.5,92C 127.496,92.4999 141.496,92.6666 155.5,92.5C 155.335,94.8268 154.669,96.9935 153.5,99C 140.5,99.3333 127.5,99.6667 114.5,100C 111.876,101.969 111.876,103.802 114.5,105.5C 125.988,106.495 137.655,106.828 149.5,106.5C 149.5,108.167 149.5,109.833 149.5,111.5C 135.673,112.661 121.673,112.827 107.5,112C 107,111.5 106.5,111 106,110.5C 105.5,81.8353 105.333,53.1686 105.5,24.5C 132.833,24.5 160.167,24.5 187.5,24.5C 187.667,53.1686 187.5,81.8353 187,110.5C 185.211,112.229 183.044,112.896 180.5,112.5C 177.864,102.222 174.364,92.2219 170,82.5C 169.232,79.4891 167.732,76.9891 165.5,75C 148.5,74.3333 131.5,74.3333 114.5,75C 111.876,76.9688 111.876,78.8022 114.5,80.5 Z M 113.5,31.5 C 135.503,31.3334 157.503,31.5 179.5,32C 180.654,43.4238 180.82,54.9238 180,66.5C 157.906,67.66 135.739,67.8267 113.5,67C 112.176,55.1667 112.176,43.3334 113.5,31.5 Z"/></g>
<g><path style="opacity:0.47" fill="#7a7a7a" d="M 49.5,37.5 C 45.5,37.5 41.5,37.5 37.5,37.5C 37.7845,39.4147 37.4511,41.0813 36.5,42.5C 36.5,40.5 36.5,38.5 36.5,36.5C 41.0323,36.1818 45.3656,36.5151 49.5,37.5 Z"/></g>
<g><path style="opacity:0.998" fill="#373737" d="M 25.5,36.5 C 31.0159,36.4734 32.3492,38.64 29.5,43C 24.5705,43.427 23.2372,41.2604 25.5,36.5 Z"/></g>
<g><path style="opacity:1" fill="#161616" d="M 49.5,37.5 C 49.8293,43.5368 49.4959,49.5368 48.5,55.5C 45.7544,53.3771 42.921,51.3771 40,49.5C 34.9492,53.9281 30.1159,58.5947 25.5,63.5C 24.1667,58.5 24.1667,53.5 25.5,48.5C 30.6583,49.4184 34.3249,47.4184 36.5,42.5C 37.4511,41.0813 37.7845,39.4147 37.5,37.5C 41.5,37.5 45.5,37.5 49.5,37.5 Z"/></g>
<g><path style="opacity:1" fill="#0e0e0e" d="M 74.5,37.5 C 74.5,39.5 74.5,41.5 74.5,43.5C 72.5,43.5 70.5,43.5 68.5,43.5C 68.5,41.5 68.5,39.5 68.5,37.5C 70.5,37.5 72.5,37.5 74.5,37.5 Z"/></g>
<g><path style="opacity:1" fill="#171717" d="M 99.5,37.5 C 99.0376,62.8849 99.5376,88.2182 101,113.5C 102.214,115.049 103.714,116.215 105.5,117C 120.163,117.5 134.83,117.667 149.5,117.5C 149.5,119.833 149.5,122.167 149.5,124.5C 130.5,124.5 111.5,124.5 92.5,124.5C 92.6664,115.827 92.4998,107.16 92,98.5C 90.4571,96.6217 88.6238,95.1217 86.5,94C 65.836,93.5 45.1694,93.3334 24.5,93.5C 24.5,91.1667 24.5,88.8333 24.5,86.5C 45.1694,86.6666 65.836,86.5 86.5,86C 89.3229,85.0084 91.3229,83.1751 92.5,80.5C 93.4959,66.3431 93.8293,52.0097 93.5,37.5C 95.5,37.5 97.5,37.5 99.5,37.5 Z"/></g>
<g><path style="opacity:1" fill="#000000" d="M 174.5,37.5 C 174.5,45.5 174.5,53.5 174.5,61.5C 155.833,61.5 137.167,61.5 118.5,61.5C 118.5,53.5 118.5,45.5 118.5,37.5C 137.167,37.5 155.833,37.5 174.5,37.5 Z"/></g>
<g><path style="opacity:0.197" fill="#ababab" d="M 74.5,37.5 C 72.5,37.5 70.5,37.5 68.5,37.5C 68.5,39.5 68.5,41.5 68.5,43.5C 67.5318,41.3926 67.1984,39.0593 67.5,36.5C 70.0593,36.1984 72.3926,36.5318 74.5,37.5 Z"/></g>
<g><path style="opacity:0.196" fill="#b6b6b6" d="M 99.5,37.5 C 97.5,37.5 95.5,37.5 93.5,37.5C 93.8293,52.0097 93.4959,66.3431 92.5,80.5C 92.5,65.8333 92.5,51.1667 92.5,36.5C 95.0593,36.1984 97.3926,36.5318 99.5,37.5 Z"/></g>
<g><path style="opacity:0.999" fill="#1c1c1c" d="M 39.5,56.5 C 43.0317,57.8539 46.1984,59.8539 49,62.5C 49.4955,64.4727 49.6621,66.4727 49.5,68.5C 42.4921,68.6663 35.4921,68.4996 28.5,68C 32.3705,64.2977 36.0371,60.4643 39.5,56.5 Z"/></g>
<g><path style="opacity:0.479" fill="#848484" d="M 174.5,37.5 C 155.833,37.5 137.167,37.5 118.5,37.5C 118.5,45.5 118.5,53.5 118.5,61.5C 137.167,61.5 155.833,61.5 174.5,61.5C 155.674,62.497 136.674,62.8303 117.5,62.5C 117.5,53.8333 117.5,45.1667 117.5,36.5C 136.674,36.1697 155.674,36.503 174.5,37.5 Z"/></g>
<g><path style="opacity:0.208" fill="#aeaeae" d="M 74.5,62.5 C 72.5,62.5 70.5,62.5 68.5,62.5C 68.5,64.5 68.5,66.5 68.5,68.5C 67.5318,66.3926 67.1984,64.0593 67.5,61.5C 70.0593,61.1984 72.3926,61.5318 74.5,62.5 Z"/></g>
<g><path style="opacity:1" fill="#0e0e0e" d="M 74.5,62.5 C 74.5,64.5 74.5,66.5 74.5,68.5C 72.5,68.5 70.5,68.5 68.5,68.5C 68.5,66.5 68.5,64.5 68.5,62.5C 70.5,62.5 72.5,62.5 74.5,62.5 Z"/></g>
<g><path style="opacity:0.73" fill="#434343" d="M 114.5,80.5 C 129.833,80.5 145.167,80.5 160.5,80.5C 160.737,81.791 160.404,82.791 159.5,83.5C 144.695,81.8386 129.695,80.8386 114.5,80.5 Z"/></g>
<g><path style="opacity:1" fill="#3a3a3a" d="M 164.5,85.5 C 166.059,87.6076 167.392,89.9409 168.5,92.5C 166.235,93.6474 163.902,93.8141 161.5,93C 162.991,90.6922 163.991,88.1922 164.5,85.5 Z"/></g>
<g><path style="opacity:1" fill="#010101" d="M 86.5,100.5 C 86.5,102.167 86.5,103.833 86.5,105.5C 61.8333,105.5 37.1667,105.5 12.5,105.5C 12.5,103.833 12.5,102.167 12.5,100.5C 37.1667,99.1667 61.8333,99.1667 86.5,100.5 Z"/></g>
<g><path style="opacity:1" fill="#101010" d="M 172.5,104.5 C 167.695,105.487 162.695,105.821 157.5,105.5C 157.472,103.418 158.139,101.584 159.5,100C 163.486,99.5012 167.486,99.3345 171.5,99.5C 171.629,101.216 171.962,102.883 172.5,104.5 Z"/></g>
<g><path style="opacity:0.2" fill="#bababa" d="M 12.5,100.5 C 12.5,102.167 12.5,103.833 12.5,105.5C 37.1667,105.5 61.8333,105.5 86.5,105.5C 86.5,103.833 86.5,102.167 86.5,100.5C 87.4614,102.265 87.7947,104.265 87.5,106.5C 62.1667,106.5 36.8333,106.5 11.5,106.5C 11.2053,104.265 11.5386,102.265 12.5,100.5 Z"/></g>
<g><path style="opacity:0.751" fill="#494949" d="M 114.5,105.5 C 126.5,105.5 138.5,105.5 150.5,105.5C 150.795,107.735 150.461,109.735 149.5,111.5C 149.5,109.833 149.5,108.167 149.5,106.5C 137.655,106.828 125.988,106.495 114.5,105.5 Z"/></g>
<g><path style="opacity:0.2" fill="#c1c1c1" d="M 172.5,104.5 C 173.043,104.56 173.376,104.893 173.5,105.5C 168.014,106.815 162.68,106.815 157.5,105.5C 162.695,105.821 167.695,105.487 172.5,104.5 Z"/></g>
<g><path style="opacity:0.467" fill="#808080" d="M 86.5,154.5 C 86.5,140.5 86.5,126.5 86.5,112.5C 61.8333,112.5 37.1667,112.5 12.5,112.5C 12.5,126.5 12.5,140.5 12.5,154.5C 11.5041,140.343 11.1707,126.01 11.5,111.5C 36.8333,111.5 62.1667,111.5 87.5,111.5C 87.8293,126.01 87.4959,140.343 86.5,154.5 Z M 20.5,118.5 C 27.7546,118.187 34.9213,118.52 42,119.5C 42.8321,129.184 42.6655,138.851 41.5,148.5C 34.5505,149.63 27.5505,149.797 20.5,149C 20,148.5 19.5,148 19,147.5C 18.3333,138.5 18.3333,129.5 19,120.5C 19.7172,119.956 20.2172,119.289 20.5,118.5 Z M 51.5,118.5 C 60.5062,118.334 69.5062,118.5 78.5,119C 81.1667,120.667 81.1667,122.333 78.5,124C 69.8333,124.667 61.1667,124.667 52.5,124C 49.3362,122.431 49.0028,120.598 51.5,118.5 Z M 50.5,131.5 C 60.1724,131.334 69.8391,131.5 79.5,132C 80.8333,133.333 80.8333,134.667 79.5,136C 69.8161,136.832 60.1495,136.665 50.5,135.5C 49.6371,134.274 49.6371,132.94 50.5,131.5 Z M 51.5,143.5 C 60.5062,143.334 69.5062,143.5 78.5,144C 81.1667,145.667 81.1667,147.333 78.5,149C 69.8333,149.667 61.1667,149.667 52.5,149C 49.3362,147.431 49.0028,145.598 51.5,143.5 Z"/></g>
<g><path style="opacity:1" fill="#171717" d="M 86.5,154.5 C 86.3893,155.117 86.056,155.617 85.5,156C 61.8333,156.667 38.1667,156.667 14.5,156C 13.5842,155.722 12.9175,155.222 12.5,154.5C 12.5,140.5 12.5,126.5 12.5,112.5C 37.1667,112.5 61.8333,112.5 86.5,112.5C 86.5,126.5 86.5,140.5 86.5,154.5 Z M 20.5,118.5 C 20.2172,119.289 19.7172,119.956 19,120.5C 18.3333,129.5 18.3333,138.5 19,147.5C 19.5,148 20,148.5 20.5,149C 27.5505,149.797 34.5505,149.63 41.5,148.5C 42.6655,138.851 42.8321,129.184 42,119.5C 34.9213,118.52 27.7546,118.187 20.5,118.5 Z M 51.5,118.5 C 49.0028,120.598 49.3362,122.431 52.5,124C 61.1667,124.667 69.8333,124.667 78.5,124C 81.1667,122.333 81.1667,120.667 78.5,119C 69.5062,118.5 60.5062,118.334 51.5,118.5 Z M 50.5,131.5 C 49.6371,132.94 49.6371,134.274 50.5,135.5C 60.1495,136.665 69.8161,136.832 79.5,136C 80.8333,134.667 80.8333,133.333 79.5,132C 69.8391,131.5 60.1724,131.334 50.5,131.5 Z M 51.5,143.5 C 49.0028,145.598 49.3362,147.431 52.5,149C 61.1667,149.667 69.8333,149.667 78.5,149C 81.1667,147.333 81.1667,145.667 78.5,144C 69.5062,143.5 60.5062,143.334 51.5,143.5 Z"/></g>
<g><path style="opacity:1" fill="#0d0d0d" d="M 155.5,112.5 C 157.5,112.5 159.5,112.5 161.5,112.5C 161.5,126.833 161.5,141.167 161.5,155.5C 159.5,155.5 157.5,155.5 155.5,155.5C 155.5,141.167 155.5,126.833 155.5,112.5 Z"/></g>
<g><path style="opacity:0.999" fill="#060606" d="M 174.5,112.5 C 174.5,127.167 174.5,141.833 174.5,156.5C 172.265,156.795 170.265,156.461 168.5,155.5C 168.5,141.167 168.5,126.833 168.5,112.5C 170.5,112.5 172.5,112.5 174.5,112.5 Z"/></g>
<g><path style="opacity:0.202" fill="#b8b8b8" d="M 174.5,112.5 C 172.5,112.5 170.5,112.5 168.5,112.5C 168.5,126.833 168.5,141.167 168.5,155.5C 167.504,141.01 167.171,126.343 167.5,111.5C 170.059,111.198 172.393,111.532 174.5,112.5 Z"/></g>
<g><path style="opacity:0.48" fill="#858585" d="M 155.5,112.5 C 157.607,111.532 159.941,111.198 162.5,111.5C 162.5,126.5 162.5,141.5 162.5,156.5C 159.941,156.802 157.607,156.468 155.5,155.5C 157.5,155.5 159.5,155.5 161.5,155.5C 161.5,141.167 161.5,126.833 161.5,112.5C 159.5,112.5 157.5,112.5 155.5,112.5 Z"/></g>
<g><path style="opacity:1" fill="#111111" d="M 24.5,124.5 C 28.8333,124.5 33.1667,124.5 37.5,124.5C 37.5,130.833 37.5,137.167 37.5,143.5C 33.1667,143.5 28.8333,143.5 24.5,143.5C 24.5,137.167 24.5,130.833 24.5,124.5 Z"/></g>
<g><path style="opacity:1" fill="#090909" d="M 92.5,130.5 C 111.5,130.5 130.5,130.5 149.5,130.5C 149.5,136.833 149.5,143.167 149.5,149.5C 130.5,149.5 111.5,149.5 92.5,149.5C 92.5,143.167 92.5,136.833 92.5,130.5 Z"/></g>
<g><path style="opacity:0.751" fill="#454545" d="M 92.5,156.5 C 95.8167,155.835 99.3167,155.501 103,155.5C 106.902,155.512 110.402,156.179 113.5,157.5C 106.588,156.538 99.5878,156.205 92.5,156.5 Z"/></g>
<g><path style="opacity:1" fill="#090909" d="M 92.5,156.5 C 99.5878,156.205 106.588,156.538 113.5,157.5C 114.99,163.126 116.323,168.793 117.5,174.5C 105.5,174.5 93.5,174.5 81.5,174.5C 82.1844,170.429 83.1844,166.429 84.5,162.5C 87.593,160.966 90.2597,158.966 92.5,156.5 Z"/></g>
<g><path style="opacity:1" fill="#000000" d="M 174.5,162.5 C 174.5,164.167 174.5,165.833 174.5,167.5C 168.5,167.5 162.5,167.5 156.5,167.5C 156.5,165.833 156.5,164.167 156.5,162.5C 162.5,162.5 168.5,162.5 174.5,162.5 Z"/></g>
<g><path style="opacity:0.753" fill="#525252" d="M 174.5,162.5 C 168.5,162.5 162.5,162.5 156.5,162.5C 156.5,164.167 156.5,165.833 156.5,167.5C 162.5,167.5 168.5,167.5 174.5,167.5C 168.355,168.49 162.022,168.823 155.5,168.5C 155.5,166.167 155.5,163.833 155.5,161.5C 162.022,161.177 168.355,161.51 174.5,162.5 Z"/></g>
<g><path style="opacity:0.999" fill="#131313" d="M 155.5,174.5 C 161.833,174.5 168.167,174.5 174.5,174.5C 175.702,182.114 172.535,186.448 165,187.5C 157.45,186.407 154.283,182.074 155.5,174.5 Z"/></g>
<g><path style="opacity:1" fill="#0f0f0f" d="M 141.5,184.5 C 127.85,185.833 113.85,186.499 99.5,186.5C 85.1504,186.499 71.1504,185.833 57.5,184.5C 58.343,182.827 59.6763,181.66 61.5,181C 86.8333,180.333 112.167,180.333 137.5,181C 139.324,181.66 140.657,182.827 141.5,184.5 Z"/></g>
<g><path style="opacity:0.495" fill="#7d7d7d" d="M 57.5,184.5 C 71.1504,185.833 85.1504,186.499 99.5,186.5C 113.85,186.499 127.85,185.833 141.5,184.5C 142.404,185.209 142.737,186.209 142.5,187.5C 113.833,187.5 85.1667,187.5 56.5,187.5C 56.2627,186.209 56.596,185.209 57.5,184.5 Z"/></g>
</svg>
