<?xml version="1.0" encoding="UTF-8"?>
<!DOCTYPE svg PUBLIC "-//W3C//DTD SVG 1.1//EN" "http://www.w3.org/Graphics/SVG/1.1/DTD/svg11.dtd">
<svg xmlns="http://www.w3.org/2000/svg" version="1.1" width="231px" height="218px" style="shape-rendering:geometricPrecision; text-rendering:geometricPrecision; image-rendering:optimizeQuality; fill-rule:evenodd; clip-rule:evenodd" xmlns:xlink="http://www.w3.org/1999/xlink">
<g><path style="opacity:0.965" fill="#20477e" d="M 124.5,0.5 C 115.677,3.34765 106.677,5.34765 97.5,6.5C 91.0334,8.12804 84.3667,8.79471 77.5,8.5C 92.9498,5.31347 108.616,2.64681 124.5,0.5 Z"/></g>
<g><path style="opacity:1" fill="#295497" d="M 97.5,6.5 C 99.3588,6.46091 100.692,7.29424 101.5,9C 108.286,9.77848 114.953,11.1118 121.5,13C 115.022,13.9185 108.689,13.4185 102.5,11.5C 101.5,11.8333 100.5,12.1667 99.5,12.5C 101.743,13.4742 104.076,13.8076 106.5,13.5C 106.333,29.8367 106.5,46.1701 107,62.5C 107.5,47.1703 107.667,31.837 107.5,16.5C 108.833,16.5 110.167,16.5 111.5,16.5C 111.5,31.8333 111.5,47.1667 111.5,62.5C 110.178,62.33 109.011,62.6634 108,63.5C 107.667,67.8333 107.333,72.1667 107,76.5C 105.933,77.1905 104.766,77.6905 103.5,78C 105.031,81.6458 106.197,85.4791 107,89.5C 108.301,81.8739 109.301,74.2073 110,66.5C 110.667,65.1667 111.333,65.1667 112,66.5C 113.102,74.0834 112.269,81.4168 109.5,88.5C 111.465,128.766 112.132,169.099 111.5,209.5C 109.429,209.502 107.262,209.169 105,208.5C 104.667,170.833 104.333,133.167 104,95.5C 103.946,92.1388 102.946,89.1388 101,86.5C 100.667,86.8333 100.333,87.1667 100,87.5C 99.161,84.8604 99.661,82.5271 101.5,80.5C 99.9602,77.709 100.294,75.209 102.5,73C 101.756,71.9614 100.756,71.4614 99.5,71.5C 97.5,71.5 95.5,71.5 93.5,71.5C 88.6863,71.2197 84.0196,71.8864 79.5,73.5C 80.5575,73.9059 81.8908,73.9059 83.5,73.5C 82.0878,86.2208 80.4211,98.8875 78.5,111.5C 77.1667,111.5 75.8333,111.5 74.5,111.5C 73.3714,98.2611 71.0381,85.2611 67.5,72.5C 64.8589,71.1644 62.5255,71.4977 60.5,73.5C 58.283,74.3686 55.9496,74.702 53.5,74.5C 50.6286,75.9864 49.2953,74.9864 49.5,71.5C 52.7216,71.8919 55.7216,71.3919 58.5,70C 54.6437,68.8971 50.6437,68.0638 46.5,67.5C 46.7093,66.914 47.0426,66.414 47.5,66C 46.3279,65.5814 45.3279,64.9147 44.5,64C 44.8388,49.8331 45.8388,35.8331 47.5,22C 45.4418,20.1921 45.1084,18.0254 46.5,15.5C 48.099,15.7678 49.4324,15.4345 50.5,14.5C 52.99,13.8443 55.6567,12.8443 58.5,11.5C 64.7134,9.96473 71.0467,8.96473 77.5,8.5C 84.3667,8.79471 91.0334,8.12804 97.5,6.5 Z"/></g>
<g><path style="opacity:1" fill="#275293" d="M 125.5,-0.5 C 127.167,-0.5 128.833,-0.5 130.5,-0.5C 130.5,6.5 130.5,13.5 130.5,20.5C 129.5,20.5 128.5,20.5 127.5,20.5C 127.5,21.5 127.5,22.5 127.5,23.5C 129.5,23.1667 131.5,22.8333 133.5,22.5C 133.22,26.1133 131.22,28.1133 127.5,28.5C 128.325,29.3857 129.325,29.719 130.5,29.5C 130.179,34.6946 130.513,39.6946 131.5,44.5C 156.5,45.1667 181.5,45.8333 206.5,46.5C 205.833,46.5 205.167,46.5 204.5,46.5C 180.831,46.3334 157.164,46.5 133.5,47C 135.271,47.5354 135.604,48.3687 134.5,49.5C 132.872,48.4647 131.205,48.4647 129.5,49.5C 128.883,49.3893 128.383,49.056 128,48.5C 127.219,49.9437 127.386,51.277 128.5,52.5C 130.336,53.0276 132.003,53.6942 133.5,54.5C 132.508,54.3284 131.842,54.6618 131.5,55.5C 131.5,59.5 131.5,63.5 131.5,67.5C 133.833,67.5 136.167,67.5 138.5,67.5C 138.167,68.1667 137.833,68.8333 137.5,69.5C 135.076,69.1924 132.743,69.5258 130.5,70.5C 131.647,72.5846 130.98,74.0846 128.5,75C 129.025,75.6924 129.692,76.1924 130.5,76.5C 133.05,74.9952 135.05,72.9952 136.5,70.5C 138.225,71.0149 139.892,71.6816 141.5,72.5C 155.518,73.1572 169.518,73.9905 183.5,75C 168.466,74.8464 153.799,75.6797 139.5,77.5C 136.615,77.1936 133.948,77.5269 131.5,78.5C 131.5,82.8333 131.5,87.1667 131.5,91.5C 130.834,87.3155 130.167,82.9822 129.5,78.5C 129.193,79.8875 129.193,81.5542 129.5,83.5C 128.5,83.5 127.5,83.5 126.5,83.5C 126.5,84.5 126.5,85.5 126.5,86.5C 127.5,86.5 128.5,86.5 129.5,86.5C 129.97,89.3456 129.137,91.6789 127,93.5C 125.967,98.9702 127.801,99.6369 132.5,95.5C 133.452,97.0453 133.785,98.712 133.5,100.5C 157.833,100.5 182.167,100.5 206.5,100.5C 181.5,101.167 156.5,101.833 131.5,102.5C 131.5,106.5 131.5,110.5 131.5,114.5C 130.681,111.695 130.181,108.695 130,105.5C 129.667,108.167 129.333,110.833 129,113.5C 127.299,115.024 127.799,116.024 130.5,116.5C 132.423,120.38 131.423,123.047 127.5,124.5C 129.13,127.578 129.963,130.911 130,134.5C 130.181,131.305 130.681,128.305 131.5,125.5C 131.182,130.032 131.515,134.366 132.5,138.5C 132.389,139.117 132.056,139.617 131.5,140C 132.793,140.49 134.127,140.657 135.5,140.5C 135.5,143.167 135.5,145.833 135.5,148.5C 134.209,148.263 133.209,148.596 132.5,149.5C 131.515,153.634 131.182,157.968 131.5,162.5C 156.5,163.167 181.5,163.833 206.5,164.5C 184.167,164.5 161.833,164.5 139.5,164.5C 140.401,168.241 139.068,170.241 135.5,170.5C 135.5,168.5 135.5,166.5 135.5,164.5C 134.167,164.5 132.833,164.5 131.5,164.5C 131.5,166.833 131.5,169.167 131.5,171.5C 132.5,171.5 133.5,171.5 134.5,171.5C 136.167,172.167 137.833,172.833 139.5,173.5C 136.833,173.5 134.167,173.5 131.5,173.5C 131.5,178.167 131.5,182.833 131.5,187.5C 133.833,187.5 136.167,187.5 138.5,187.5C 136.5,188.167 134.5,188.833 132.5,189.5C 130.54,188.862 128.707,188.862 127,189.5C 126.503,191.81 126.337,194.143 126.5,196.5C 127.833,196.5 129.167,196.5 130.5,196.5C 130.263,197.791 130.596,198.791 131.5,199.5C 131.5,205.5 131.5,211.5 131.5,217.5C 129.5,217.5 127.5,217.5 125.5,217.5C 116.989,215.634 108.323,213.968 99.5,212.5C 103.352,211.356 107.352,211.356 111.5,212.5C 111.5,211.5 111.5,210.5 111.5,209.5C 112.132,169.099 111.465,128.766 109.5,88.5C 112.269,81.4168 113.102,74.0834 112,66.5C 111.333,65.1667 110.667,65.1667 110,66.5C 109.301,74.2073 108.301,81.8739 107,89.5C 106.197,85.4791 105.031,81.6458 103.5,78C 104.766,77.6905 105.933,77.1905 107,76.5C 107.333,72.1667 107.667,67.8333 108,63.5C 109.011,62.6634 110.178,62.33 111.5,62.5C 111.5,47.1667 111.5,31.8333 111.5,16.5C 110.167,16.5 108.833,16.5 107.5,16.5C 107.667,31.837 107.5,47.1703 107,62.5C 106.5,46.1701 106.333,29.8367 106.5,13.5C 104.076,13.8076 101.743,13.4742 99.5,12.5C 100.5,12.1667 101.5,11.8333 102.5,11.5C 108.689,13.4185 115.022,13.9185 121.5,13C 114.953,11.1118 108.286,9.77848 101.5,9C 100.692,7.29424 99.3588,6.46091 97.5,6.5C 106.677,5.34765 115.677,3.34765 124.5,0.5C 125.167,0.5 125.5,0.166667 125.5,-0.5 Z"/></g>
<g><path style="opacity:0.996" fill="#274d87" d="M 58.5,11.5 C 55.6567,12.8443 52.99,13.8443 50.5,14.5C 43.1444,15.3356 35.8111,16.5023 28.5,18C 27.2845,20.0955 26.4512,19.9288 26,17.5C 25.2496,18.1258 24.4162,18.6258 23.5,19C 17.5273,19.9066 11.5273,20.5733 5.5,21C 6.67209,21.4186 7.67209,22.0853 8.5,23C 8,23.1667 7.5,23.3333 7,23.5C 4.68126,22.1287 2.18126,21.4621 -0.5,21.5C -0.5,21.1667 -0.5,20.8333 -0.5,20.5C 19.1523,17.4068 38.819,14.4068 58.5,11.5 Z"/></g>
<g><path style="opacity:1" fill="#274c85" d="M 139.5,21.5 C 167.833,21.5 196.167,21.5 224.5,21.5C 227.167,22.1667 228.833,23.8333 229.5,26.5C 228.038,25.5423 226.705,24.3756 225.5,23C 196.664,22.8323 167.997,22.3323 139.5,21.5 Z"/></g>
<g><path style="opacity:1" fill="#2b589c" d="M 50.5,14.5 C 49.4324,15.4345 48.099,15.7678 46.5,15.5C 45.1084,18.0254 45.4418,20.1921 47.5,22C 45.8388,35.8331 44.8388,49.8331 44.5,64C 45.3279,64.9147 46.3279,65.5814 47.5,66C 47.0426,66.414 46.7093,66.914 46.5,67.5C 50.6437,68.0638 54.6437,68.8971 58.5,70C 55.7216,71.3919 52.7216,71.8919 49.5,71.5C 49.2953,74.9864 50.6286,75.9864 53.5,74.5C 53.3713,76.2161 53.038,77.8828 52.5,79.5C 49.3783,84.2317 48.045,89.565 48.5,95.5C 48.5,95.8333 48.5,96.1667 48.5,96.5C 47.8826,96.6107 47.3826,96.944 47,97.5C 46.1721,101.466 45.6721,105.466 45.5,109.5C 44.6851,110.429 43.8518,111.429 43,112.5C 41.7043,109.429 40.5377,106.429 39.5,103.5C 38.5386,101.735 38.2053,99.7354 38.5,97.5C 39.0969,92.706 38.4302,88.3727 36.5,84.5C 35.8333,84.5 35.5,84.1667 35.5,83.5C 36.7422,80.2598 36.5755,76.9264 35,73.5C 30.92,74.3002 26.7533,74.8002 22.5,75C 21.9415,75.7247 21.6082,76.5581 21.5,77.5C 23.7841,91.6041 26.7841,105.271 30.5,118.5C 30.1588,122.16 30.8255,125.493 32.5,128.5C 33.7378,132.329 34.7378,136.329 35.5,140.5C 35.9081,141.643 36.5748,142.643 37.5,143.5C 40.0841,142.607 42.7508,142.274 45.5,142.5C 45.5,158.833 45.5,175.167 45.5,191.5C 43.4727,191.338 41.4727,191.505 39.5,192C 40.9523,193.517 42.4523,193.684 44,192.5C 48.3002,194.699 52.8002,196.533 57.5,198C 55.5595,198.304 53.8928,199.137 52.5,200.5C 48.8323,199.891 45.1656,200.225 41.5,201.5C 29.8705,198.795 17.8705,197.128 5.5,196.5C 3.5,196.5 1.5,196.5 -0.5,196.5C -0.5,138.167 -0.5,79.8333 -0.5,21.5C 2.18126,21.4621 4.68126,22.1287 7,23.5C 7.5,23.3333 8,23.1667 8.5,23C 7.67209,22.0853 6.67209,21.4186 5.5,21C 11.5273,20.5733 17.5273,19.9066 23.5,19C 24.4162,18.6258 25.2496,18.1258 26,17.5C 26.4512,19.9288 27.2845,20.0955 28.5,18C 35.8111,16.5023 43.1444,15.3356 50.5,14.5 Z"/></g>
<g><path style="opacity:0.318" fill="#2c4f83" d="M 130.5,-0.5 C 130.833,-0.5 131.167,-0.5 131.5,-0.5C 131.5,6.5 131.5,13.5 131.5,20.5C 162.671,20.1685 193.671,20.5018 224.5,21.5C 196.167,21.5 167.833,21.5 139.5,21.5C 138.167,21.5 136.833,21.5 135.5,21.5C 135.5,23.5 135.5,25.5 135.5,27.5C 163.646,26.1963 191.646,26.1963 219.5,27.5C 192.995,27.1688 166.661,27.5022 140.5,28.5C 137.5,28.5 134.5,28.5 131.5,28.5C 131.5,33.8333 131.5,39.1667 131.5,44.5C 130.513,39.6946 130.179,34.6946 130.5,29.5C 129.325,29.719 128.325,29.3857 127.5,28.5C 131.22,28.1133 133.22,26.1133 133.5,22.5C 131.5,22.8333 129.5,23.1667 127.5,23.5C 127.5,22.5 127.5,21.5 127.5,20.5C 128.5,20.5 129.5,20.5 130.5,20.5C 130.5,13.5 130.5,6.5 130.5,-0.5 Z"/></g>
<g><path style="opacity:1" fill="#285498" d="M 139.5,21.5 C 167.997,22.3323 196.664,22.8323 225.5,23C 226.705,24.3756 228.038,25.5423 229.5,26.5C 229.833,26.5 230.167,26.5 230.5,26.5C 230.5,81.1667 230.5,135.833 230.5,190.5C 229.833,190.5 229.5,190.833 229.5,191.5C 227.5,192.5 225.5,193.5 223.5,194.5C 192.926,194.829 162.426,194.496 132,193.5C 131.536,194.094 131.369,194.761 131.5,195.5C 130.833,195.5 130.5,195.833 130.5,196.5C 129.167,196.5 127.833,196.5 126.5,196.5C 126.337,194.143 126.503,191.81 127,189.5C 128.707,188.862 130.54,188.862 132.5,189.5C 160.835,189.667 189.169,189.5 217.5,189C 210.987,188.828 204.653,188.328 198.5,187.5C 206.5,187.5 214.5,187.5 222.5,187.5C 223.499,134.336 223.832,81.0026 223.5,27.5C 222.167,27.5 220.833,27.5 219.5,27.5C 191.646,26.1963 163.646,26.1963 135.5,27.5C 135.5,25.5 135.5,23.5 135.5,21.5C 136.833,21.5 138.167,21.5 139.5,21.5 Z"/></g>
<g><path style="opacity:0.46" fill="#354f7b" d="M 131.5,44.5 C 157.189,43.8426 182.522,44.5093 207.5,46.5C 207.167,46.5 206.833,46.5 206.5,46.5C 181.5,45.8333 156.5,45.1667 131.5,44.5 Z"/></g>
<g><path style="opacity:1" fill="#295599" d="M 204.5,46.5 C 205.369,48.717 205.702,51.0504 205.5,53.5C 183.49,53.833 161.49,53.4997 139.5,52.5C 137.337,50.2802 134.837,49.9469 132,51.5C 131.005,50.9341 130.172,50.2674 129.5,49.5C 131.205,48.4647 132.872,48.4647 134.5,49.5C 135.604,48.3687 135.271,47.5354 133.5,47C 157.164,46.5 180.831,46.3334 204.5,46.5 Z"/></g>
<g><path style="opacity:1" fill="#214c95" d="M 204.5,46.5 C 205.167,46.5 205.833,46.5 206.5,46.5C 206.5,49.1667 206.5,51.8333 206.5,54.5C 182.167,54.5 157.833,54.5 133.5,54.5C 132.003,53.6942 130.336,53.0276 128.5,52.5C 127.386,51.277 127.219,49.9437 128,48.5C 128.383,49.056 128.883,49.3893 129.5,49.5C 130.172,50.2674 131.005,50.9341 132,51.5C 134.837,49.9469 137.337,50.2802 139.5,52.5C 161.49,53.4997 183.49,53.833 205.5,53.5C 205.702,51.0504 205.369,48.717 204.5,46.5 Z"/></g>
<g><path style="opacity:0.263" fill="#27477e" d="M 206.5,46.5 C 206.833,46.5 207.167,46.5 207.5,46.5C 207.5,49.5 207.5,52.5 207.5,55.5C 182.167,55.5 156.833,55.5 131.5,55.5C 131.842,54.6618 132.508,54.3284 133.5,54.5C 157.833,54.5 182.167,54.5 206.5,54.5C 206.5,51.8333 206.5,49.1667 206.5,46.5 Z"/></g>
<g><path style="opacity:1" fill="#275692" d="M 92.5,63.5 C 94.0443,63.7031 95.3777,64.3698 96.5,65.5C 97.1667,64.8333 97.8333,64.1667 98.5,63.5C 100.22,64.934 102.22,65.7674 104.5,66C 105.337,67.0113 105.67,68.1779 105.5,69.5C 102.907,68.1472 100.073,67.4805 97,67.5C 91.6161,67.3555 86.1161,67.5222 80.5,68C 79.1667,67.3333 79.1667,66.6667 80.5,66C 84.9558,66.1018 88.9558,65.2684 92.5,63.5 Z"/></g>
<g><path style="opacity:1" fill="#1e4889" d="M 138.5,67.5 C 161.339,67.1692 184.006,67.5025 206.5,68.5C 206.5,71.5 206.5,74.5 206.5,77.5C 185.167,77.5 163.833,77.5 142.5,77.5C 163.327,76.5027 184.327,76.1694 205.5,76.5C 205.917,73.9208 205.25,71.7542 203.5,70C 181.503,69.5 159.503,69.3334 137.5,69.5C 137.833,68.8333 138.167,68.1667 138.5,67.5 Z"/></g>
<g><path style="opacity:0.999" fill="#295499" d="M 137.5,69.5 C 159.503,69.3334 181.503,69.5 203.5,70C 205.25,71.7542 205.917,73.9208 205.5,76.5C 184.327,76.1694 163.327,76.5027 142.5,77.5C 141.5,77.5 140.5,77.5 139.5,77.5C 153.799,75.6797 168.466,74.8464 183.5,75C 169.518,73.9905 155.518,73.1572 141.5,72.5C 139.892,71.6816 138.225,71.0149 136.5,70.5C 135.05,72.9952 133.05,74.9952 130.5,76.5C 129.692,76.1924 129.025,75.6924 128.5,75C 130.98,74.0846 131.647,72.5846 130.5,70.5C 132.743,69.5258 135.076,69.1924 137.5,69.5 Z"/></g>
<g><path style="opacity:0.42" fill="#2b4a77" d="M 140.5,28.5 C 166.661,27.5022 192.995,27.1688 219.5,27.5C 220.833,27.5 222.167,27.5 223.5,27.5C 223.832,81.0026 223.499,134.336 222.5,187.5C 222.5,134.5 222.5,81.5 222.5,28.5C 195.167,28.5 167.833,28.5 140.5,28.5 Z"/></g>
<g><path style="opacity:0.765" fill="#2e4b76" d="M 206.5,68.5 C 207.479,71.6248 207.813,74.9581 207.5,78.5C 182.167,78.5 156.833,78.5 131.5,78.5C 133.948,77.5269 136.615,77.1936 139.5,77.5C 140.5,77.5 141.5,77.5 142.5,77.5C 163.833,77.5 185.167,77.5 206.5,77.5C 206.5,74.5 206.5,71.5 206.5,68.5 Z"/></g>
<g><path style="opacity:0.714" fill="#294d85" d="M 35.5,83.5 C 36.7661,78.4654 34.9328,75.7988 30,75.5C 27.4088,75.5653 24.9088,76.0653 22.5,77C 25.8677,90.6729 28.5344,104.506 30.5,118.5C 26.7841,105.271 23.7841,91.6041 21.5,77.5C 21.6082,76.5581 21.9415,75.7247 22.5,75C 26.7533,74.8002 30.92,74.3002 35,73.5C 36.5755,76.9264 36.7422,80.2598 35.5,83.5 Z"/></g>
<g><path style="opacity:0.839" fill="#264c7f" d="M 36.5,84.5 C 38.4302,88.3727 39.0969,92.706 38.5,97.5C 37.2911,93.3819 36.6245,89.0485 36.5,84.5 Z"/></g>
<g><path style="opacity:0.657" fill="#2e4f82" d="M 131.5,91.5 C 156.833,91.5 182.167,91.5 207.5,91.5C 207.5,95.1667 207.5,98.8333 207.5,102.5C 182.167,102.5 156.833,102.5 131.5,102.5C 156.5,101.833 181.5,101.167 206.5,100.5C 206.5,97.8333 206.5,95.1667 206.5,92.5C 181.328,92.831 156.328,92.4977 131.5,91.5 Z"/></g>
<g><path style="opacity:0.529" fill="#26497c" d="M 52.5,79.5 C 51.4543,85.0161 50.121,90.3494 48.5,95.5C 48.045,89.565 49.3783,84.2317 52.5,79.5 Z"/></g>
<g><path style="opacity:1" fill="#285498" d="M 131.5,91.5 C 156.328,92.4977 181.328,92.831 206.5,92.5C 206.5,95.1667 206.5,97.8333 206.5,100.5C 182.167,100.5 157.833,100.5 133.5,100.5C 133.785,98.712 133.452,97.0453 132.5,95.5C 127.801,99.6369 125.967,98.9702 127,93.5C 129.137,91.6789 129.97,89.3456 129.5,86.5C 128.5,86.5 127.5,86.5 126.5,86.5C 126.5,85.5 126.5,84.5 126.5,83.5C 127.5,83.5 128.5,83.5 129.5,83.5C 129.193,81.5542 129.193,79.8875 129.5,78.5C 130.167,82.9822 130.834,87.3155 131.5,91.5 Z"/></g>
<g><path style="opacity:1" fill="#295497" d="M 99.5,71.5 C 100.756,71.4614 101.756,71.9614 102.5,73C 100.294,75.209 99.9602,77.709 101.5,80.5C 99.661,82.5271 99.161,84.8604 100,87.5C 100.333,87.1667 100.667,86.8333 101,86.5C 102.946,89.1388 103.946,92.1388 104,95.5C 104.333,133.167 104.667,170.833 105,208.5C 107.262,209.169 109.429,209.502 111.5,209.5C 111.5,210.5 111.5,211.5 111.5,212.5C 107.352,211.356 103.352,211.356 99.5,212.5C 97.901,212.768 96.5676,212.434 95.5,211.5C 89.9272,208.857 83.9272,207.857 77.5,208.5C 73.0478,208.369 68.7144,207.702 64.5,206.5C 64.0825,205.778 63.4158,205.278 62.5,205C 55.5621,203.578 48.5621,202.745 41.5,202.5C 41.5,202.167 41.5,201.833 41.5,201.5C 45.1656,200.225 48.8323,199.891 52.5,200.5C 53.8928,199.137 55.5595,198.304 57.5,198C 52.8002,196.533 48.3002,194.699 44,192.5C 42.4523,193.684 40.9523,193.517 39.5,192C 41.4727,191.505 43.4727,191.338 45.5,191.5C 45.5,175.167 45.5,158.833 45.5,142.5C 42.7508,142.274 40.0841,142.607 37.5,143.5C 36.5748,142.643 35.9081,141.643 35.5,140.5C 39.8689,140.467 44.2022,140.8 48.5,141.5C 48.8583,138.733 49.525,136.067 50.5,133.5C 51.3164,131.856 52.6498,130.69 54.5,130C 53.9032,128.938 53.5698,127.772 53.5,126.5C 54.3383,120.97 55.3383,115.47 56.5,110C 56.472,108.93 56.1386,108.097 55.5,107.5C 55.5,106.833 55.8333,106.5 56.5,106.5C 57.6005,104.723 58.4338,102.723 59,100.5C 59.2402,106.709 60.4068,112.709 62.5,118.5C 62.3298,120.529 61.9965,122.529 61.5,124.5C 63.5761,126.036 65.2428,128.37 66.5,131.5C 67.7934,134.679 68.4601,138.012 68.5,141.5C 68.4142,142.496 68.7476,143.329 69.5,144C 74.4179,144.195 79.2512,144.695 84,145.5C 85.0793,143.606 86.4126,143.273 88,144.5C 89.2542,141.024 89.9209,137.358 90,133.5C 92.0328,134.016 92.0328,133.35 90,131.5C 89.6667,131.833 89.3333,132.167 89,132.5C 88.502,129.518 88.3354,126.518 88.5,123.5C 89.6491,123.209 90.3158,122.376 90.5,121C 92.3201,110.003 95.3201,99.5029 99.5,89.5C 98.5827,86.2423 98.2493,82.909 98.5,79.5C 98.8333,76.8333 99.1667,74.1667 99.5,71.5 Z"/></g>
<g><path style="opacity:1" fill="#234883" d="M 98.5,79.5 C 98.2493,82.909 98.5827,86.2423 99.5,89.5C 95.3201,99.5029 92.3201,110.003 90.5,121C 90.3158,122.376 89.6491,123.209 88.5,123.5C 91.2324,108.581 94.5657,93.9139 98.5,79.5 Z"/></g>
<g><path style="opacity:0.875" fill="#254475" d="M 48.5,96.5 C 47.9434,101.052 46.9434,105.385 45.5,109.5C 45.6721,105.466 46.1721,101.466 47,97.5C 47.3826,96.944 47.8826,96.6107 48.5,96.5 Z"/></g>
<g><path style="opacity:1" fill="#254880" d="M 93.5,71.5 C 91.0521,72.4731 88.3854,72.8064 85.5,72.5C 82.9934,89.8735 80.16,107.207 77,124.5C 72.9258,107.629 69.4258,90.6293 66.5,73.5C 64.5,73.5 62.5,73.5 60.5,73.5C 62.5255,71.4977 64.8589,71.1644 67.5,72.5C 71.0381,85.2611 73.3714,98.2611 74.5,111.5C 75.8333,111.5 77.1667,111.5 78.5,111.5C 80.4211,98.8875 82.0878,86.2208 83.5,73.5C 81.8908,73.9059 80.5575,73.9059 79.5,73.5C 84.0196,71.8864 88.6863,71.2197 93.5,71.5 Z"/></g>
<g><path style="opacity:0.937" fill="#224780" d="M 39.5,103.5 C 40.5377,106.429 41.7043,109.429 43,112.5C 43.8518,111.429 44.6851,110.429 45.5,109.5C 44.8623,114.19 44.029,118.856 43,123.5C 40.9585,117.058 39.7918,110.392 39.5,103.5 Z"/></g>
<g><path style="opacity:0.153" fill="#2f4e77" d="M 131.5,114.5 C 157.189,113.843 182.522,114.509 207.5,116.5C 207.167,116.5 206.833,116.5 206.5,116.5C 181.5,115.833 156.5,115.167 131.5,114.5 Z"/></g>
<g><path style="opacity:1" fill="#265296" d="M 131.5,114.5 C 156.5,115.167 181.5,115.833 206.5,116.5C 206.5,119.167 206.5,121.833 206.5,124.5C 181.328,124.169 156.328,124.502 131.5,125.5C 130.681,128.305 130.181,131.305 130,134.5C 129.963,130.911 129.13,127.578 127.5,124.5C 131.423,123.047 132.423,120.38 130.5,116.5C 127.799,116.024 127.299,115.024 129,113.5C 129.333,110.833 129.667,108.167 130,105.5C 130.181,108.695 130.681,111.695 131.5,114.5 Z"/></g>
<g><path style="opacity:1" fill="#264d84" d="M 66.5,131.5 C 65.2428,128.37 63.5761,126.036 61.5,124.5C 61.9965,122.529 62.3298,120.529 62.5,118.5C 60.4068,112.709 59.2402,106.709 59,100.5C 58.4338,102.723 57.6005,104.723 56.5,106.5C 56.8839,102.414 57.7173,98.414 59,94.5C 61.6949,106.808 64.1949,119.141 66.5,131.5 Z"/></g>
<g><path style="opacity:0.551" fill="#24477e" d="M 206.5,116.5 C 206.833,116.5 207.167,116.5 207.5,116.5C 207.5,119.5 207.5,122.5 207.5,125.5C 182.167,125.5 156.833,125.5 131.5,125.5C 156.328,124.502 181.328,124.169 206.5,124.5C 206.5,121.833 206.5,119.167 206.5,116.5 Z"/></g>
<g><path style="opacity:1" fill="#2a4d7d" d="M 30.5,118.5 C 31.7846,121.589 32.4512,124.922 32.5,128.5C 30.8255,125.493 30.1588,122.16 30.5,118.5 Z"/></g>
<g><path style="opacity:0.984" fill="#244c83" d="M 55.5,107.5 C 56.1386,108.097 56.472,108.93 56.5,110C 55.3383,115.47 54.3383,120.97 53.5,126.5C 53.5698,127.772 53.9032,128.938 54.5,130C 52.6498,130.69 51.3164,131.856 50.5,133.5C 52.1667,124.833 53.8333,116.167 55.5,107.5 Z"/></g>
<g><path style="opacity:1" fill="#254d8a" d="M 88.5,123.5 C 88.3354,126.518 88.502,129.518 89,132.5C 89.3333,132.167 89.6667,131.833 90,131.5C 92.0328,133.35 92.0328,134.016 90,133.5C 89.9209,137.358 89.2542,141.024 88,144.5C 86.4126,143.273 85.0793,143.606 84,145.5C 79.2512,144.695 74.4179,144.195 69.5,144C 68.7476,143.329 68.4142,142.496 68.5,141.5C 73.4334,142.361 78.4334,143.028 83.5,143.5C 84.88,136.646 86.5467,129.98 88.5,123.5 Z"/></g>
<g><path style="opacity:1" fill="#1b4377" d="M 132.5,138.5 C 156.5,138.5 180.5,138.5 204.5,138.5C 205.167,139.167 205.833,139.833 206.5,140.5C 182.833,140.5 159.167,140.5 135.5,140.5C 134.127,140.657 132.793,140.49 131.5,140C 132.056,139.617 132.389,139.117 132.5,138.5 Z"/></g>
<g><path style="opacity:1" fill="#265699" d="M 135.5,140.5 C 159.167,140.5 182.833,140.5 206.5,140.5C 206.5,142.167 206.5,143.833 206.5,145.5C 183.5,145.5 160.5,145.5 137.5,145.5C 137.5,146.5 137.5,147.5 137.5,148.5C 136.833,148.5 136.167,148.5 135.5,148.5C 135.5,145.833 135.5,143.167 135.5,140.5 Z"/></g>
<g><path style="opacity:1" fill="#2a5298" d="M 206.5,145.5 C 206.5,146.5 206.5,147.5 206.5,148.5C 183.5,148.5 160.5,148.5 137.5,148.5C 137.5,147.5 137.5,146.5 137.5,145.5C 160.5,145.5 183.5,145.5 206.5,145.5 Z"/></g>
<g><path style="opacity:0.753" fill="#254978" d="M 204.5,138.5 C 205.5,138.5 206.5,138.5 207.5,138.5C 207.5,142.167 207.5,145.833 207.5,149.5C 182.5,149.5 157.5,149.5 132.5,149.5C 133.209,148.596 134.209,148.263 135.5,148.5C 136.167,148.5 136.833,148.5 137.5,148.5C 160.5,148.5 183.5,148.5 206.5,148.5C 206.5,147.5 206.5,146.5 206.5,145.5C 206.5,143.833 206.5,142.167 206.5,140.5C 205.833,139.833 205.167,139.167 204.5,138.5 Z"/></g>
<g><path style="opacity:0.638" fill="#344f77" d="M 131.5,162.5 C 157.189,161.843 182.522,162.509 207.5,164.5C 207.167,164.5 206.833,164.5 206.5,164.5C 181.5,163.833 156.5,163.167 131.5,162.5 Z"/></g>
<g><path style="opacity:1" fill="#295499" d="M 206.5,164.5 C 206.5,166.833 206.5,169.167 206.5,171.5C 182.5,171.5 158.5,171.5 134.5,171.5C 133.5,171.5 132.5,171.5 131.5,171.5C 131.5,169.167 131.5,166.833 131.5,164.5C 132.833,164.5 134.167,164.5 135.5,164.5C 135.5,166.5 135.5,168.5 135.5,170.5C 139.068,170.241 140.401,168.241 139.5,164.5C 161.833,164.5 184.167,164.5 206.5,164.5 Z"/></g>
<g><path style="opacity:1" fill="#074288" d="M 134.5,171.5 C 158.5,171.5 182.5,171.5 206.5,171.5C 184.833,172.167 163.167,172.833 141.5,173.5C 140.833,173.5 140.167,173.5 139.5,173.5C 137.833,172.833 136.167,172.167 134.5,171.5 Z"/></g>
<g><path style="opacity:0.122" fill="#1d4a81" d="M 206.5,164.5 C 206.833,164.5 207.167,164.5 207.5,164.5C 207.5,167.5 207.5,170.5 207.5,173.5C 185.5,173.5 163.5,173.5 141.5,173.5C 163.167,172.833 184.833,172.167 206.5,171.5C 206.5,169.167 206.5,166.833 206.5,164.5 Z"/></g>
<g><path style="opacity:1" fill="#104285" d="M 138.5,187.5 C 158.5,187.5 178.5,187.5 198.5,187.5C 204.653,188.328 210.987,188.828 217.5,189C 189.169,189.5 160.835,189.667 132.5,189.5C 134.5,188.833 136.5,188.167 138.5,187.5 Z"/></g>
<g><path style="opacity:1" fill="#224c86" d="M 223.5,194.5 C 193.005,195.498 162.338,195.831 131.5,195.5C 131.369,194.761 131.536,194.094 132,193.5C 162.426,194.496 192.926,194.829 223.5,194.5 Z"/></g>
<g><path style="opacity:0.536" fill="#304d78" d="M 229.5,191.5 C 228.327,193.504 226.66,195.004 224.5,196C 193.502,196.5 162.502,196.667 131.5,196.5C 131.5,197.5 131.5,198.5 131.5,199.5C 130.596,198.791 130.263,197.791 130.5,196.5C 130.5,195.833 130.833,195.5 131.5,195.5C 162.338,195.831 193.005,195.498 223.5,194.5C 225.5,193.5 227.5,192.5 229.5,191.5 Z"/></g>
<g><path style="opacity:1" fill="#274e86" d="M 5.5,196.5 C 17.8705,197.128 29.8705,198.795 41.5,201.5C 41.5,201.833 41.5,202.167 41.5,202.5C 29.2678,201.128 17.2678,199.128 5.5,196.5 Z"/></g>
<g><path style="opacity:0.627" fill="#284981" d="M 41.5,202.5 C 48.5621,202.745 55.5621,203.578 62.5,205C 63.4158,205.278 64.0825,205.778 64.5,206.5C 56.6153,205.687 48.9486,204.353 41.5,202.5 Z"/></g>
<g><path style="opacity:1" fill="#26497e" d="M 77.5,208.5 C 83.9272,207.857 89.9272,208.857 95.5,211.5C 89.2676,211.128 83.2676,210.128 77.5,208.5 Z"/></g>
</svg>
